<?xml version="1.0" encoding="utf-8"?>
<!-- Generator: Adobe Illustrator 22.0.1, SVG Export Plug-In . SVG Version: 6.00 Build 0)  -->
<svg version="1.1" id="圖層_2" xmlns="http://www.w3.org/2000/svg" xmlns:xlink="http://www.w3.org/1999/xlink" x="0px" y="0px"
	 viewBox="0 0 414.2 53.6" style="enable-background:new 0 0 414.2 53.6;" xml:space="preserve">
<style type="text/css">
	.st0{fill:#19306E;}
	.st1{fill:#83B87C;}
</style>
<g>
	<g>
		<path class="st0" d="M17.1,25.7l-3.3,3.6c-0.9-2.5-1.6-4.4-2.2-5.5v29H6.7V27.2c-0.9,3.6-2.2,7.3-4,11L0,32.5
			C2.7,27.5,4.8,22,6.2,16H0.7v-5h6V0.5h4.9V11h3.7v5h-3.7v0.6C13.8,19.8,15.6,22.8,17.1,25.7z M38,47.8c-9.2,2.6-16.8,4.2-22.6,4.9
			l-1.1-4.7c2.5-0.3,4.7-0.6,6.4-0.9c-0.2-2.4-0.9-5.5-2.1-9.2l3.4-1.9h-4.1V21.7H35v14.2h-3.8l3.3,1.6c-0.4,1.8-1.2,4-2.2,6.7
			c0.4,0,2.2-0.5,5.5-1.4L38,47.8z M36.8,9.8h-8v4.1h6.6v4.6H17.1v-4.6h6.7V9.8h-8.1V5.1h8.1V0.5h5.1v4.6h8V9.8z M30.1,31.1v-4.9
			h-7.3v4.9H30.1z M29.8,35.9h-6.7c1.2,3.9,1.9,7.3,2.1,10.1c0.9-0.2,1.5-0.3,1.6-0.4C28.4,41.7,29.4,38.4,29.8,35.9z M44.2,35.5
			l-4.7,1.9c-0.6-5.1-1.7-10.1-3-15l4.4-1.8C42.6,26.7,43.7,31.7,44.2,35.5z M52.9,16h-2.7v31.4c0,3.5-1.7,5.3-5.1,5.3
			c-1.9,0-3.2,0-3.9-0.1l-1.6-5h4.6c0.2,0,0.4-0.1,0.6-0.4c0.2-0.3,0.3-0.5,0.3-0.7V16h-7.6v-5.2h7.6V0.4h5v10.5h2.7V16z"/>
		<path class="st0" d="M77.8,25.8L75,30.7c-0.7-1.9-1.4-3.7-2.3-5.4V53h-5V28c-1.2,3.2-2.9,6.5-5,9.9l-2.7-5.8
			c3.7-5.4,6.2-10.7,7.4-16h-6.8l0.1-5h7V0.4h5v10.7h4.2v5h-4.2v0.4C75,20.4,76.7,23.5,77.8,25.8z M113,37.2H97.7v4h14v4.6h-14V53
			h-5.1v-7.1H79.2v-4.6h13.4v-4H77.3v-4.6h15.3V18.1H78.7v-4.5h33.1v4.5H97.7v14.6H113V37.2z M93.9,9.4h-4.1v2.9h-5V9.4h-7V4.9h7
			V0.4h5v4.5h4.1V9.4z M90.7,26.9h-3v3.8h-4.9v-3.8h-4.2v-4.5h4.2v-2.8h4.9v2.8h3V26.9z M112.9,9.4h-7.6v2.9h-5.2V9.4h-3.7V4.9h3.7
			V0.4h5.2v4.5h7.6V9.4z M113,26.9h-5.4v3.8h-5v-3.8h-2.9v-4.5h2.9v-2.8h5v2.8h5.4V26.9z"/>
		<path class="st0" d="M140.1,40.9c-5,3.9-10.5,7.1-16.5,9.3l-3.2-4.3c5.8-2.1,11-4.9,15.7-8.5L140.1,40.9z M172.1,35l-4.5,3.2
			c-1.4-2-2.5-3.4-3.3-4.4c-5.6,0.7-10.5,1.2-14.8,1.5v12.2c0.1,1.6-0.4,2.9-1.5,3.9c-1,0.9-4.2,1.4-9.5,1.4l-2.1-5.3
			c2.2,0.2,4.2,0.2,6.1,0.2c1.1,0,1.6-0.5,1.6-1.6V35.8c-8.2,0.4-14.3,0.6-18.3,0.7l-1.3-4.6c5.1-1.4,11-3.9,17.7-7.4
			c-7,0.4-12,0.5-14.9,0.5l-0.8-3.9c8.2-2.6,15.6-6.7,22-12.5l4.9,2.8c-3.9,3.5-8.8,6.5-14.6,8.9l4.7-0.2l7.2-0.6
			c0.3,0,1.7-0.9,4-2.5l4.2-3.1l4.7,3.3c-9.4,6.7-18.2,11.5-26.5,14.3c7-0.3,14.7-1,23.2-2c-1-1.1-2.2-2.2-3.5-3.4l4.7-2.7
			C166.1,27.6,169.6,31.4,172.1,35z M153.7,2.9c-6,4.9-14.5,8.8-25.3,11.7l-3.1-4.6c9.6-2.1,17.6-5.4,23.9-10L153.7,2.9z
			 M173.4,46.6l-3.6,4c-4-3.4-9.3-6.7-15.8-9.9l3.7-3.7C164.1,40.2,169.4,43.3,173.4,46.6z"/>
		<path class="st0" d="M188,38.9c-0.8,6-2,10.8-3.8,14.4l-4.5-2.1c1.8-3.4,3.1-7.8,3.9-13.2L188,38.9z M202.6,34.9l-4.7,1.6
			c0-0.2-0.2-1.3-0.6-3.1c-5.3,1.6-10.5,2.7-15.8,3.5l-0.9-4.1c3.5-2.8,7.1-6.9,10.8-12.3c-3.2,0.5-6.3,0.8-9.3,1.1l-0.6-3.5
			c4.5-5,8-11,10.7-18l5,1.8c-2.5,5.8-5.4,10.8-8.7,14.8c2.1-0.2,4-0.4,5.7-0.7c1.2-1.8,2.1-3.6,2.9-5.3l4.6,2.4
			c-4.2,7.5-8.4,13.5-12.7,17.9c2.5-0.5,4.8-1.1,6.9-1.9c-0.4-1.2-0.7-2-1-2.6l4.1-1.8C200.7,28.2,201.9,31.6,202.6,34.9z
			 M195.8,50.8l-4.5,1c0.1-3.9-0.4-8.2-1.5-12.9l4.1-1.1C195,42.6,195.7,46.9,195.8,50.8z M202.8,45.7l-4,1.6
			c-0.6-3.4-1.4-6.3-2.3-8.5l4-1.5C201.4,39.6,202.2,42.3,202.8,45.7z M233.4,38.8c-0.4,6.3-0.7,9.7-1.1,10.4
			c-0.4,0.6-1,1.3-1.8,2.2s-2.9,1.2-6.2,1.2c-2.7,0-4.5-0.4-5.4-1.2c-0.9-0.8-1.3-2.5-1.3-5V26.1c-2,0.3-3.5,0.5-4.6,0.7
			c0,4.3-0.2,8-0.6,10.9c-0.4,2.9-1.4,5.8-3,8.6c-1.6,2.8-3.7,5.2-6.3,7.3l-3.8-3.7c1.7-1.2,3.3-2.9,4.8-4.9
			c1.5-2.1,2.5-4.3,3.1-6.8c0.6-2.5,0.9-6.1,0.8-10.8l-5.3,0.6l-1-4c3.4-4.2,6.2-8.5,8.3-13.1h-8.9V5.9h10.9c0.5-1.1,1.1-3,2-5.5
			l5.5,0.8c-0.7,1.9-1.3,3.5-1.8,4.7h14.9v4.9h-17.1c-1.7,3.8-4,7.7-6.9,11.7c5.1-0.3,9.8-0.9,14.1-1.7c-0.7-1.2-1.8-2.5-3.1-4
			l4.2-2.8c4.1,4.9,7.1,9.1,8.8,12.5l-4.4,3c-1.1-2-2-3.5-2.8-4.7l-3,0.5v21.1c0,1,0.9,1.5,2.7,1.5c1.4,0,2.3-0.5,2.6-1.6
			c0.3-1.1,0.6-4.1,0.7-9.2L233.4,38.8z"/>
		<path class="st0" d="M253.9,0.9c-0.3,1.8-0.9,4.2-1.8,7.4l-1.4,4.4V53h-5.2V24.4c-1.2,2.1-2.2,3.7-3,4.9l-2.4-6.2
			c4-6.4,7-14.1,8.9-23.1L253.9,0.9z M293.6,48.5l-1.9,4.6c-6.7-0.8-12.8-2-18.5-3.8c-4.6,1.9-10.8,3.3-18.6,4.2l-2-4.5
			c6-0.4,11-1.2,15.1-2.4c-2.3-1.4-3.8-2.3-4.6-2.9c-2.7,1.5-4.8,2.6-6.5,3.4l-2.8-3.7c2.1-0.9,3.9-1.7,5.4-2.6
			c-0.7-0.6-1.3-1-1.6-1.4l3.5-2.6c0.5,0.4,1.2,1,2.1,1.7c1.4-1,2.5-2,3.5-2.9c-1.5-0.7-2.3-1.9-2.3-3.7v-4.5h4.8v3.7
			c0,0.8,0.4,1.3,1.3,1.3l5.9-0.2c0.4,0,0.7-0.1,1-0.3s0.6-1,0.9-2.5l3.9,1.9c-0.2,1.8-0.9,3.1-2,3.8c-1.1,0.7-3.7,1-7.8,0.8
			c-0.2,0.4-0.7,1-1.5,1.7h14.7v3.5c-2.1,2-4.3,3.8-6.7,5.2C282.7,47.5,287.6,48.2,293.6,48.5z M292.4,5.4h-16.9
			c-0.2,0.8-0.5,1.5-0.9,2.3h12.7v14.6h4.8v7.6h-4.4c1.2,1.4,2.3,3.2,3.5,5.2l-3.8,2.5c-1.8-3.3-3.7-6-5.7-8.2l3.4-2.4
			c0.4,0.4,1,1,1.8,2V26h-28.1v3.8c0.8-1.2,1.2-2,1.4-2.2l3.6,1.8c-1.3,2.8-3.3,5.5-5.8,8l-3.2-2.7c1.4-1.3,2.7-2.9,3.9-4.7h-5v-7.7
			h4.8V7.7H269c0.4-0.9,0.7-1.7,0.9-2.3h-15V1.3h37.5V5.4z M282.1,12.8v-2h-18.3v2H282.1z M282.1,17.4v-2h-18.3v2H282.1z
			 M282.1,22.3v-2.1h-18.3v2.1H282.1z M279.1,41.1h-12c1.9,1.3,4.1,2.5,6.4,3.4C274.8,43.8,276.7,42.7,279.1,41.1z M277.2,28.4
			l-1.8,3c-1.9-1-3.5-1.7-4.8-2.1l1.5-3C273.7,26.8,275.4,27.5,277.2,28.4z"/>
		<path class="st0" d="M326.7,13.3h-4.6v1.6c0,0.7,0.4,1.1,1.1,1.1h3v4h-4.4c-2.9,0-4.4-1.4-4.4-4.1v-2.6h-5.2
			c-0.4,2.1-1.6,3.8-3.5,5.4c-1.9,1.5-4.1,2.5-6.5,2.9l-2.2-3.8c4.1-0.9,6.6-2.4,7.5-4.5h-7V9.6h11.1V6.9h-8.6V3.1h8.6V0.5h5v2.6
			h8.6v3.8h-8.6v2.7h10V13.3z M326.8,32c-7.8,0.7-16.1,1.3-25,1.8l-0.7-4.2c3.8,0,7.4-0.1,10.6-0.3v-3h-8.4v-4h8.4v-3.5h5.1v3.5h8.5
			v4h-8.5v2.6c3.2-0.2,6.5-0.4,10-0.8L326.8,32z M348.7,36.6c-0.3,3.7-0.6,6.7-1.1,8.9c-0.5,2.3-1.2,3.9-2.1,4.9c-0.9,1-2,1.7-3.1,2
			c-1.1,0.3-3.2,0.5-6.3,0.5c-1.1,0-2,0-2.7-0.1l-1.8-4.9c1.5,0.1,3,0.2,4.3,0.2c2.4,0,4-0.1,4.6-0.3c0.6-0.2,1.1-0.7,1.5-1.5
			c0.4-0.8,0.7-2.5,1-5.2h-16.1c-3.8,7.1-11.5,11.3-23.1,12.4l-2.4-4.9c10.4-0.8,16.9-3.4,19.5-7.6h-16.3v-4.5H323
			c0.4-0.8,0.7-1.7,0.8-2.9l5.2,0.1c-0.2,1.3-0.3,2.2-0.5,2.8H348.7z M353.5,23.9c-0.6,6.5-2.4,9.8-5.2,9.8c-1.5,0-2.7-1.1-3.8-3.2
			c-1-2.1-1.6-7.3-1.6-15.6c0-1.4,0-2.7,0.1-3.8h-4.2c-0.2,3.6-0.6,6.8-1.2,9.5c1.5,1.7,2.9,3.4,4,5l-3.4,4c-1.2-2-2-3.1-2.3-3.4
			c-1,2.5-2.5,4.9-4.4,7.3l-3.5-3.5c1.8-2.1,3.3-4.6,4.5-7.7c-1-1.2-2.4-2.5-4.4-4.2l2.9-3.8c0.8,0.6,1.7,1.4,2.6,2.3
			c0.3-2.1,0.5-3.8,0.5-5.4h-5.7V6.4h5.7c0.1-1.7,0.2-3.7,0.1-6l4.7,0.1c0.1,2.3,0.1,4.2,0,5.9h9.2c-0.1,3.1-0.2,8.5-0.2,16.3
			c0,1.7,0.1,2.9,0.2,3.7c0.1,0.8,0.3,1.2,0.4,1.2c0.1,0,0.3-0.5,0.6-1.5c0.3-1,0.5-2.4,0.6-4.1L353.5,23.9z"/>
	</g>
</g>
<path class="st1" d="M371.7,49.9h5.1V6.2h-5.1V49.9z M397.8,9.9L397.8,9.9c-5.7-10.5-18.3-3.6-18.3-3.6v23c0,0,5.7-8.2,15.2,0.6
	c9.5,8.8,19.5-13.4,19.5-13.4S406.2,23.6,397.8,9.9z"/>
</svg>
