<?xml version="1.0" encoding="utf-8"?>
<!-- Generator: Adobe Illustrator 22.0.1, SVG Export Plug-In . SVG Version: 6.00 Build 0)  -->
<svg version="1.1" id="圖層_2" xmlns="http://www.w3.org/2000/svg" xmlns:xlink="http://www.w3.org/1999/xlink" x="0px" y="0px"
	 viewBox="0 0 86.8 100.6" style="enable-background:new 0 0 86.8 100.6;" xml:space="preserve">
<style type="text/css">
	.st0{fill-rule:evenodd;clip-rule:evenodd;fill:#83B87C;}
	.st1{fill:#C8BB9B;}
</style>
<g>
	<g id="touchpad">
		<g>
			<path class="st0" d="M9.6,65.7V43h51.1v34.8c0.6-0.5,1.3-0.7,2.1-0.7c0.8,0,1.5,0.3,2.1,0.7V43c0-2.4-1.9-4.3-4.3-4.3H9.6
				c-2.4,0-4.3,1.9-4.3,4.3v27.7c1.5-2,2.7-3.6,3.3-4.4C8.9,66,9.2,65.8,9.6,65.7z M57.1,77.1c0.8,0,1.5,0.3,2.1,0.7V44.4H11v20.9
				c3.3-0.3,8.2,2.2,5.1,7.8c1.2-0.7-1.9,3-5.1,6.7v0.1h36.9V69.2c0-2,1.6-3.5,3.5-3.5c2,0,3.5,1.6,3.5,3.5v8.5
				C55.6,77.3,56.3,77.1,57.1,77.1z M26.6,72.8h-5.7v-5.7h5.7V72.8z M26.6,64.3h-5.7v-5.7h5.7V64.3z M26.6,55.8h-5.7v-5.7h5.7V55.8z
				 M10.9,85.6h37v-4.3h-37C10.9,84.3,10.9,83.4,10.9,85.6z M68.5,82.7c-1.2,0-2.1,1-2.1,2.1V87h-1.4v-3.5c0-1.2-1-2.1-2.1-2.1
				c-1.2,0-2.1,1-2.1,2.1V87h-1.4v-5c0-1.2-1-2.1-2.1-2.1c-1.2,0-2.1,1-2.1,2.1v5h-1.4V70.7c0-1.2-1-2.1-2.1-2.1
				c-1.2,0-2.1,1-2.1,2.1V87h-5.8l2.9,12.8h24.1V84.9C70.6,83.7,69.7,82.7,68.5,82.7z M6.4,81.2c0,0,8.1-9.5,6.4-8.4
				c2.5-3.3-1.4-5.6-3-3.7C8.3,71,1.1,80.8,1.1,80.8s-2.4,3.2,0,6c0.5,0.5,13.1,12.8,13.1,12.8s1.4,2,3.5,0.1
				c2.1-1.9,10.2-9.7,10.2-9.7V87c0,0-12.7,0-17.7,0C3.8,87,6.4,81.2,6.4,81.2z"/>
		</g>
	</g>
	<path class="st1" d="M80.8,12.9c0.2-0.8,0.3-1.7,0.3-2.6C81.1,4.6,76.5,0,70.8,0c-4.3,0-8,2.6-9.5,6.3c-1.3-1.6-3.3-2.6-5.6-2.6
		c-4,0-7.3,3.3-7.3,7.3c0,0.7,0.1,1.4,0.3,2c-3.3,1.2-5.6,4.4-5.6,8.1c0,4.7,3.8,8.6,8.6,8.6h11.2v-7.3h-4.6l7.1-8.6l7.1,8.6h-4.6
		v7.3h10.4c4.8,0,8.6-3.9,8.6-8.6C86.8,17.3,84.3,14,80.8,12.9z"/>
</g>
</svg>
