<?xml version="1.0" encoding="utf-8"?>
<!-- Generator: Adobe Illustrator 22.0.1, SVG Export Plug-In . SVG Version: 6.00 Build 0)  -->
<svg version="1.1" id="圖層_1" xmlns="http://www.w3.org/2000/svg" xmlns:xlink="http://www.w3.org/1999/xlink" x="0px" y="0px"
	 viewBox="0 0 895.4 84.1" style="enable-background:new 0 0 895.4 84.1;" xml:space="preserve">
<style type="text/css">
	.st0{fill:#19306E;}
	.st1{fill:#C79F62;}
	.st2{fill:#183068;}
	.st3{fill:#183067;}
	.st4{fill:#AE1E25;}
</style>
<g>
	<g>
		<path class="st0" d="M483.2,34.9c-0.1,1.5-0.3,3.3-0.7,5.2c-0.4,2-1.1,3.2-2.1,3.7c-1,0.5-1.8,0.8-2.3,0.8c-0.5,0-2.3,0-5.5,0
			s-5.1-0.1-5.9-0.2c-0.8-0.2-1.5-0.6-2.1-1.3c-0.6-0.7-0.9-1.8-0.9-3.4V27.6H457c-0.5,9.9-6,15.9-16.6,18l-2.1-4.4
			c3.9-0.7,7.1-2,9.7-4c2.6-2,4-5.2,4.3-9.6h-13.9v-4.2h44.7v4.2h-14.9v11.6c0,0.2,0.1,0.4,0.3,0.7c0.2,0.2,0.5,0.4,0.7,0.4h7.1
			c0.4,0,0.9-0.2,1.3-0.7c0.4-0.5,0.6-1.1,0.7-1.8l0.4-4.5L483.2,34.9z M481.6,18h-4.5V9.7h-32.7V18h-4.6V5.4h18.1
			c-0.2-1.1-0.9-2.4-2-4.1L461,0c0.9,1.7,1.7,3.5,2.3,5.4h18.4V18z M474.9,18.4h-28.2v-4.2h28.2V18.4z"/>
		<path class="st0" d="M534.6,30H490v-3.8h11.6c-0.5-0.7-1.2-1.6-2.1-2.6l2.6-1.4h-11.9v-3.8h19.8v-2.7h-17.4v-3.7h17.4V9.6h-18.9
			V5.9h42.2v3.7h-18.7v2.6h17.3v3.7h-17.3v2.7h19.8v3.8h-11.8l2.5,1.1c-0.9,1.2-1.6,2.1-2.3,2.8h11.7V30z M530.1,45.5h-4.5v-1.8
			h-26.7v1.8h-4.6V32.6h35.8V45.5z M509.2,3.2l-3.5,2.5c-2-1-4.5-1.9-7.3-2.7l3.6-2.6C504.4,1.2,506.8,2.1,509.2,3.2z M525.6,40.1
			v-3.8h-26.7v3.8H525.6z M520,22.3h-15.6c1.1,1.4,2,2.7,2.8,3.9h9.9C517.7,25.4,518.7,24.1,520,22.3z M525.9,2.3
			c-2.7,1.4-5.1,2.5-7.3,3.3l-3.8-2.4c2.5-0.8,4.7-1.8,6.8-3L525.9,2.3z"/>
		<path class="st0" d="M560.5,45h-4.4v-3.4h-9.3v3.9h-4.5V8.3h4.6c1.3-2.4,2.3-5,3-7.8l4.7,0.8c-0.2,1.6-1.1,4-2.4,7h8.3V45z
			 M556.1,22.2v-9.5h-9.3v9.5H556.1z M556.1,37.3V26.5h-9.3v10.8H556.1z M585.2,8.5c0,4.9-0.2,11.3-0.5,19.1
			c-0.3,7.8-0.8,12.4-1.4,13.8c-0.6,1.4-1.6,2.4-2.8,3.1c-1.3,0.7-4.3,1-9.2,1l-1.7-4.5l6.9,0c0.7,0,1.3-0.3,2.1-0.8
			c0.7-0.6,1.3-4.3,1.7-11.1c0.4-6.9,0.5-12.2,0.5-16.1h-10.3c-1.6,4.1-3.4,7.5-5.4,10.4l-3.5-3.1c3.7-5.9,6.3-12.6,7.8-19.9l4.5,1
			c-0.3,1.7-0.9,4.1-1.8,7.2H585.2z M577.8,31.4l-4,2.6c-2.2-4.4-4.6-8.1-7.1-11l4-2.5C574.1,24.7,576.5,28.3,577.8,31.4z"/>
		<path class="st0" d="M637.3,17l-2.4,4.2c-9-3.7-15.8-8.7-20.3-14.9c-2.1,2.5-4.5,4.8-7.4,7c-2.9,2.2-7.3,4.7-13.1,7.5l-2.4-4.3
			c10.1-4.3,17.3-9.6,21.5-15.9l5.1,1l-0.9,1.3C622,9.1,628.7,13.8,637.3,17z M636.6,44.7h-44.5v-4.5h7.7V22h4.7v18.1h8.6V13.8
			l4.5,0v10.7h14.9V29h-14.9v11.2h19V44.7z"/>
		<path class="st0" d="M688.2,33.2h-20.1v12.3h-4.6V33.2h-20v-3.9h20v-2.6H646v-3.9h17.6v-2.5h-18.9v-3.9h11.7
			c-0.5-0.8-1.1-1.6-1.8-2.2l3.4-1.9h-14.6V8.6h15.7V1h4.5v7.6h4.6V1h4.5v7.6h15.5v3.8H674l3,1.6c-0.7,1.1-1.2,2-1.7,2.5h11.8v3.9
			h-19v2.5h17.7v3.9h-17.7v2.6h20.1V33.2z M659.9,37.5c-4.7,3.4-9.1,6-13.3,7.7l-3-3.6c4-1.6,8.3-3.9,12.7-7.1L659.9,37.5z
			 M655.4,5.8L652,8.3c-1.5-1.8-3-3.3-4.6-4.5l3.4-2.7C652.7,2.6,654.2,4.2,655.4,5.8z M672.5,12.4H659c1,1.2,1.9,2.6,2.9,4.1h7.8
			C670.7,15.2,671.7,13.9,672.5,12.4z M689.2,41.4l-2.5,3.7c-4.9-2.9-9.8-5.2-14.7-7l2.7-3.7C679.3,36.2,684.1,38.5,689.2,41.4z
			 M684.2,3.1c-1,1.4-2.4,3-4.4,4.8l-4.1-2.4c1.6-1.3,3.1-2.8,4.5-4.5L684.2,3.1z"/>
		<path class="st0" d="M739.5,23.5h-10c-1.9,4.7-4,8.4-6.4,11.1c6.6,2.8,12,5.3,16.3,7.5l-2.7,3.8c-4.5-2.4-10.1-5-16.8-7.8
			c-5.2,4.2-13.1,6.7-23.5,7.7l-1.7-4.4c9.2-0.9,15.9-2.6,19.9-5.2c-4.5-1.7-9.1-3.2-13.8-4.6c2-2.6,3.9-5.3,5.8-8.1h-11.7v-4.3
			h14.5c1.6-2.5,3.1-5.1,4.7-8l4.9,0.7c-1.6,2.9-2.9,5.3-4.1,7.3h11.3c0.5-1.3,0.9-2.5,1.1-3.6l4.5,0.5c-0.1,0.9-0.4,1.9-0.8,3.1
			h8.6V23.5z M738.2,15.8h-4.6V9.9H701v6h-4.7V5.5h18.5c-0.6-1.5-1.3-2.8-2.2-4.1l4.6-1.2c1,1.4,1.9,3.2,2.6,5.3h18.3V15.8z
			 M724.5,23.5h-12.2c-1,1.6-2.2,3.5-3.7,5.7c3.2,1.1,6.6,2.3,10.2,3.7C720.9,30.5,722.8,27.3,724.5,23.5z"/>
		<path class="st0" d="M791.1,15.4l-2.2,4.3c-2.5-1-4.2-1.7-5.1-2.1V21h-13v7.2h12.6v4.4h-12.6V40h18.8v4.4h-42.4V40h19v-7.4h-12.9
			v-4.4h12.9V21H753v-3.9c-1.6,0.7-3.3,1.4-5.2,2.2l-2.1-4.2c7.2-2.7,12.8-5.7,16.7-9.2h-4.1V1.6H771C774.3,7.2,781,11.8,791.1,15.4
			z M781.8,16.5c-5.7-2.9-10.2-6.2-13.3-10.1c-3.1,3.6-7.8,6.9-14.2,10.1H781.8z"/>
		<path class="st0" d="M813.9,35.2c-4.3,3.4-9,6-14.1,8l-2.7-3.7c5-1.8,9.4-4.2,13.4-7.2L813.9,35.2z M841.3,30.2l-3.8,2.7
			c-1.2-1.7-2.1-2.9-2.8-3.8c-4.8,0.6-9,1-12.6,1.3v10.5c0.1,1.4-0.3,2.5-1.2,3.3c-0.9,0.8-3.6,1.2-8.1,1.2l-1.8-4.6
			c1.9,0.1,3.6,0.2,5.2,0.2c0.9,0,1.4-0.4,1.4-1.3v-8.9c-7,0.4-12.2,0.6-15.6,0.6l-1.1-3.9c4.3-1.2,9.4-3.3,15.1-6.4
			c-6,0.3-10.2,0.5-12.8,0.5l-0.7-3.3c7-2.2,13.3-5.8,18.8-10.7l4.2,2.4c-3.4,3-7.5,5.5-12.5,7.6l4.1-0.2l6.2-0.5
			c0.3,0,1.4-0.8,3.4-2.2l3.6-2.6l4,2.8c-8,5.7-15.6,9.8-22.6,12.2c6-0.2,12.6-0.8,19.8-1.7c-0.9-0.9-1.9-1.9-3-2.9l4.1-2.3
			C836.2,23.8,839.1,27.2,841.3,30.2z M825.6,2.8c-5.1,4.2-12.3,7.5-21.6,10l-2.6-3.9c8.2-1.8,15-4.6,20.4-8.6L825.6,2.8z
			 M842.4,40.1l-3.1,3.5c-3.5-2.9-7.9-5.7-13.5-8.5l3.2-3.2C834.5,34.6,838.9,37.3,842.4,40.1z"/>
		<path class="st0" d="M854.8,33.5c-0.7,5.1-1.7,9.2-3.3,12.3l-3.9-1.8c1.5-2.9,2.6-6.7,3.4-11.3L854.8,33.5z M867.3,30.1l-4,1.4
			c0-0.2-0.2-1.1-0.5-2.7c-4.5,1.3-9,2.3-13.5,3l-0.8-3.5c3-2.4,6-5.9,9.2-10.5c-2.7,0.4-5.4,0.7-7.9,0.9l-0.5-3
			c3.8-4.2,6.9-9.4,9.2-15.4l4.3,1.5c-2.2,5-4.6,9.2-7.4,12.6c1.8-0.2,3.4-0.4,4.9-0.6c1-1.6,1.8-3.1,2.5-4.5l4,2.1
			c-3.6,6.4-7.2,11.5-10.8,15.3c2.2-0.4,4.1-1,5.9-1.6c-0.4-1-0.6-1.7-0.8-2.2l3.5-1.5C865.7,24.4,866.7,27.3,867.3,30.1z
			 M861.5,43.7l-3.9,0.9c0.1-3.3-0.3-7-1.3-11l3.5-0.9C860.8,36.7,861.4,40.4,861.5,43.7z M867.5,39.4l-3.4,1.4
			c-0.5-2.9-1.2-5.3-2-7.2l3.4-1.3C866.3,34.1,867,36.5,867.5,39.4z M893.6,33.4c-0.3,5.4-0.6,8.3-0.9,8.8c-0.3,0.5-0.8,1.1-1.5,1.8
			c-0.7,0.7-2.5,1.1-5.3,1.1c-2.3,0-3.9-0.4-4.6-1.1c-0.7-0.7-1.1-2.1-1.1-4.2V22.6c-1.7,0.3-3,0.5-3.9,0.6c0,3.7-0.2,6.8-0.5,9.3
			c-0.4,2.5-1.2,5-2.5,7.3c-1.3,2.4-3.1,4.4-5.4,6.2l-3.3-3.1c1.5-1,2.9-2.4,4.1-4.2c1.3-1.8,2.1-3.7,2.7-5.8
			c0.5-2.1,0.7-5.2,0.7-9.2l-4.5,0.5l-0.8-3.4c2.9-3.6,5.3-7.3,7.1-11.2h-7.6V5.4h9.3c0.4-1,1-2.5,1.7-4.7l4.7,0.7
			c-0.6,1.7-1.1,3-1.5,4h12.7v4.2h-14.6c-1.5,3.2-3.4,6.6-5.9,10c4.4-0.3,8.4-0.8,12-1.5c-0.6-1-1.5-2.1-2.7-3.4l3.6-2.4
			c3.5,4.2,6,7.8,7.5,10.7l-3.8,2.5c-0.9-1.7-1.7-3-2.4-4.1l-2.6,0.5v18c0,0.8,0.8,1.3,2.3,1.3c1.2,0,2-0.5,2.2-1.4s0.5-3.5,0.6-7.8
			L893.6,33.4z"/>
		<path class="st1" d="M447.9,60.8h-7.3v6h6.7v2.6h-6.7v8.2h-3V58.2h10.3V60.8z"/>
		<path class="st1" d="M451,59c0-0.5,0.2-0.9,0.5-1.2c0.3-0.3,0.8-0.5,1.3-0.5c0.5,0,0.9,0.2,1.3,0.5c0.4,0.3,0.5,0.7,0.5,1.2
			s-0.2,0.9-0.5,1.2c-0.4,0.3-0.8,0.5-1.3,0.5c-0.5,0-0.9-0.2-1.3-0.5C451.2,59.9,451,59.5,451,59z M451.3,77.6V63.7h2.9v13.8H451.3
			z"/>
		<path class="st1" d="M470.8,77.6h-2.9v-7.8c0-2.7-1-4-2.9-4c-1,0-1.8,0.4-2.4,1.1c-0.6,0.7-1,1.7-1,2.8v7.9h-2.9V63.7h2.9V66h0.1
			c1-1.7,2.5-2.6,4.5-2.6c3.1,0,4.6,1.9,4.6,5.7V77.6z"/>
		<path class="st1" d="M475.2,64.7c1.4-0.8,3-1.3,4.9-1.3c3.5,0,5.2,1.8,5.2,5.4v8.7h-2.9v-2.1h-0.1c-0.9,1.6-2.3,2.4-4.2,2.4
			c-1.4,0-2.4-0.4-3.2-1.1c-0.8-0.7-1.2-1.7-1.2-3c0-2.6,1.5-4.1,4.6-4.6l4-0.6c0-2.1-0.9-3.1-2.7-3.1c-1.7,0-3.2,0.5-4.6,1.6V64.7z
			 M479.5,71.2c-1,0.1-1.7,0.4-2.1,0.8c-0.4,0.4-0.6,0.9-0.6,1.7c0,0.6,0.2,1.1,0.7,1.5c0.4,0.4,1,0.6,1.7,0.6c1,0,1.8-0.3,2.5-1
			c0.7-0.7,1-1.6,1-2.6v-1.2L479.5,71.2z"/>
		<path class="st1" d="M501.7,77.6h-2.9v-7.8c0-2.7-1-4-2.9-4c-1,0-1.8,0.4-2.4,1.1c-0.6,0.7-1,1.7-1,2.8v7.9h-2.9V63.7h2.9V66h0.1
			c1-1.7,2.5-2.6,4.5-2.6c3.1,0,4.6,1.9,4.6,5.7V77.6z"/>
		<path class="st1" d="M515.6,77c-1,0.6-2.3,0.9-3.9,0.9c-2,0-3.7-0.6-4.9-1.9c-1.3-1.3-1.9-2.9-1.9-5c0-2.3,0.7-4.1,2-5.5
			c1.3-1.4,3.1-2.1,5.4-2.1c1.4,0,2.5,0.2,3.3,0.7v2.8c-1-0.7-2-1.1-3.2-1.1c-1.4,0-2.4,0.5-3.3,1.4c-0.8,0.9-1.3,2.1-1.3,3.6
			c0,1.5,0.4,2.7,1.2,3.5c0.8,0.8,1.9,1.3,3.2,1.3c1.2,0,2.3-0.4,3.3-1.1V77z"/>
		<path class="st1" d="M518.7,59c0-0.5,0.2-0.9,0.5-1.2c0.3-0.3,0.8-0.5,1.3-0.5c0.5,0,0.9,0.2,1.3,0.5c0.4,0.3,0.5,0.7,0.5,1.2
			s-0.2,0.9-0.5,1.2c-0.4,0.3-0.8,0.5-1.3,0.5c-0.5,0-0.9-0.2-1.3-0.5C518.9,59.9,518.7,59.5,518.7,59z M519,77.6V63.7h2.9v13.8H519
			z"/>
		<path class="st1" d="M526.7,64.7c1.4-0.8,3-1.3,4.9-1.3c3.5,0,5.2,1.8,5.2,5.4v8.7H534v-2.1h-0.1c-0.9,1.6-2.3,2.4-4.2,2.4
			c-1.4,0-2.4-0.4-3.2-1.1c-0.8-0.7-1.2-1.7-1.2-3c0-2.6,1.5-4.1,4.6-4.6l4-0.6c0-2.1-0.9-3.1-2.7-3.1c-1.7,0-3.2,0.5-4.6,1.6V64.7z
			 M530.9,71.2c-1,0.1-1.7,0.4-2.1,0.8c-0.4,0.4-0.6,0.9-0.6,1.7c0,0.6,0.2,1.1,0.7,1.5c0.4,0.4,1,0.6,1.7,0.6c1,0,1.8-0.3,2.5-1
			c0.7-0.7,1-1.6,1-2.6v-1.2L530.9,71.2z"/>
		<path class="st1" d="M540.9,77.6V57.1h2.9v20.5H540.9z"/>
		<path class="st1" d="M560.1,60.7h-1.8v14.5h1.8v2.5h-6.6v-2.5h1.8V60.7h-1.8v-2.5h6.6V60.7z"/>
		<path class="st1" d="M575.2,77.6h-2.9v-7.8c0-2.7-1-4-2.9-4c-1,0-1.8,0.4-2.4,1.1c-0.6,0.7-1,1.7-1,2.8v7.9H563V63.7h2.9V66h0.1
			c1-1.7,2.5-2.6,4.5-2.6c3.1,0,4.6,1.9,4.6,5.7V77.6z"/>
		<path class="st1" d="M578.7,74.4c1.3,0.9,2.6,1.3,4,1.3c1.8,0,2.8-0.6,2.8-1.7c0-0.5-0.2-0.9-0.6-1.2c-0.4-0.3-1.2-0.7-2.6-1.2
			c-1.4-0.5-2.4-1.1-2.9-1.7c-0.5-0.6-0.7-1.4-0.7-2.3c0-1.3,0.5-2.3,1.6-3c1.1-0.7,2.4-1.1,4-1.1c1.2,0,2.3,0.2,3.4,0.6v2.6
			c-1.1-0.7-2.2-1-3.5-1c-0.7,0-1.3,0.2-1.8,0.5c-0.5,0.3-0.7,0.7-0.7,1.2c0,0.5,0.2,0.9,0.5,1.2c0.3,0.3,1.1,0.7,2.3,1.1
			c1.5,0.5,2.5,1.1,3.1,1.8c0.5,0.6,0.8,1.4,0.8,2.3c0,1.3-0.5,2.3-1.6,3.1c-1.1,0.8-2.5,1.1-4.2,1.1c-1.5,0-2.8-0.3-3.9-0.8V74.4z"
			/>
		<path class="st1" d="M598.8,77.4c-0.5,0.3-1.3,0.5-2.3,0.5c-2.6,0-3.9-1.4-3.9-4.3v-7.5h-2.3v-2.3h2.3v-3.2l2.9-0.9v4.1h3.4v2.3
			h-3.4v7c0,0.9,0.2,1.5,0.5,1.9c0.3,0.4,0.8,0.6,1.5,0.6c0.5,0,1-0.2,1.4-0.5V77.4z"/>
		<path class="st1" d="M601.5,59c0-0.5,0.2-0.9,0.5-1.2s0.8-0.5,1.3-0.5c0.5,0,0.9,0.2,1.3,0.5s0.5,0.7,0.5,1.2s-0.2,0.9-0.5,1.2
			c-0.4,0.3-0.8,0.5-1.3,0.5c-0.5,0-0.9-0.2-1.3-0.5C601.7,59.9,601.5,59.5,601.5,59z M601.8,77.6V63.7h2.9v13.8H601.8z"/>
		<path class="st1" d="M616.2,77.4c-0.5,0.3-1.3,0.5-2.3,0.5c-2.6,0-3.9-1.4-3.9-4.3v-7.5h-2.3v-2.3h2.3v-3.2l2.9-0.9v4.1h3.4v2.3
			h-3.4v7c0,0.9,0.2,1.5,0.5,1.9c0.3,0.4,0.8,0.6,1.5,0.6c0.5,0,1-0.2,1.4-0.5V77.4z"/>
		<path class="st1" d="M631.1,77.6h-2.9v-2.2h-0.1c-1,1.7-2.4,2.5-4.3,2.5c-3.3,0-4.9-2-4.9-5.9v-8.3h2.9v7.9c0,2.6,1,3.9,3,3.9
			c1,0,1.8-0.4,2.4-1.1c0.6-0.7,0.9-1.6,0.9-2.8v-8h2.9V77.6z"/>
		<path class="st1" d="M642.6,77.4c-0.5,0.3-1.3,0.5-2.3,0.5c-2.6,0-3.9-1.4-3.9-4.3v-7.5H634v-2.3h2.3v-3.2l2.9-0.9v4.1h3.4v2.3
			h-3.4v7c0,0.9,0.2,1.5,0.5,1.9c0.3,0.4,0.8,0.6,1.5,0.6c0.5,0,1-0.2,1.4-0.5V77.4z"/>
		<path class="st1" d="M645.3,59c0-0.5,0.2-0.9,0.5-1.2s0.8-0.5,1.3-0.5c0.5,0,0.9,0.2,1.3,0.5c0.4,0.3,0.5,0.7,0.5,1.2
			s-0.2,0.9-0.5,1.2c-0.4,0.3-0.8,0.5-1.3,0.5c-0.5,0-0.9-0.2-1.3-0.5C645.5,59.9,645.3,59.5,645.3,59z M645.6,77.6V63.7h2.9v13.8
			H645.6z"/>
		<path class="st1" d="M652.1,70.8c0-2.3,0.6-4.1,1.9-5.4c1.3-1.3,3.1-2,5.3-2c2.1,0,3.8,0.6,5,1.9c1.2,1.3,1.8,3,1.8,5.2
			c0,2.2-0.6,4-1.9,5.3c-1.3,1.3-3,2-5.2,2c-2.1,0-3.8-0.6-5.1-1.9C652.7,74.7,652.1,72.9,652.1,70.8z M655.1,70.7
			c0,1.5,0.4,2.7,1.1,3.6c0.7,0.9,1.7,1.3,3,1.3c2.7,0,4-1.6,4-4.9c0-1.6-0.3-2.8-1-3.6c-0.7-0.8-1.7-1.2-3-1.2
			c-1.3,0-2.3,0.4-3,1.3C655.4,68,655.1,69.2,655.1,70.7z"/>
		<path class="st1" d="M681.8,77.6h-2.9v-7.8c0-2.7-1-4-2.9-4c-1,0-1.8,0.4-2.4,1.1c-0.6,0.7-1,1.7-1,2.8v7.9h-2.9V63.7h2.9V66h0.1
			c1-1.7,2.5-2.6,4.5-2.6c3.1,0,4.6,1.9,4.6,5.7V77.6z"/>
		<path class="st1" d="M685.3,74.4c1.3,0.9,2.6,1.3,4,1.3c1.8,0,2.8-0.6,2.8-1.7c0-0.5-0.2-0.9-0.6-1.2c-0.4-0.3-1.2-0.7-2.6-1.2
			c-1.4-0.5-2.4-1.1-2.9-1.7c-0.5-0.6-0.7-1.4-0.7-2.3c0-1.3,0.5-2.3,1.6-3c1.1-0.7,2.4-1.1,4-1.1c1.2,0,2.3,0.2,3.4,0.6v2.6
			c-1.1-0.7-2.2-1-3.5-1c-0.7,0-1.3,0.2-1.8,0.5c-0.5,0.3-0.7,0.7-0.7,1.2c0,0.5,0.2,0.9,0.5,1.2c0.3,0.3,1.1,0.7,2.3,1.1
			c1.5,0.5,2.5,1.1,3.1,1.8c0.5,0.6,0.8,1.4,0.8,2.3c0,1.3-0.5,2.3-1.6,3.1c-1.1,0.8-2.5,1.1-4.2,1.1c-1.5,0-2.8-0.3-3.9-0.8V74.4z"
			/>
		<path class="st1" d="M704.4,73.6c1.5,1.2,3.2,1.8,5.2,1.8c2.6,0,3.9-0.9,3.9-2.6c0-0.5-0.1-1-0.4-1.4c-0.3-0.4-0.7-0.8-1.1-1.1
			s-1.4-0.8-2.8-1.5c-1.7-0.8-3-1.7-3.7-2.5c-0.7-0.9-1-1.9-1-3c0-1.7,0.7-3,2-3.9c1.3-1,3-1.4,5.1-1.4c1.9,0,3.4,0.2,4.4,0.7v3.1
			c-1.2-0.8-2.7-1.2-4.5-1.2c-1.1,0-2.1,0.2-2.8,0.7c-0.7,0.5-1.1,1.1-1.1,1.9c0,0.7,0.3,1.3,0.8,1.8c0.5,0.5,1.6,1.1,3.2,1.9
			c1.9,0.9,3.3,1.8,4,2.7c0.7,0.9,1.1,1.9,1.1,3.1c0,1.8-0.6,3.1-1.9,4c-1.3,0.9-3,1.4-5.3,1.4c-0.8,0-1.7-0.1-2.8-0.3
			c-1-0.2-1.8-0.5-2.3-0.8V73.6z"/>
		<path class="st1" d="M731.4,63.7l-6.1,15.7c-1.2,3.1-3,4.7-5.3,4.7c-0.8,0-1.4-0.1-1.8-0.2v-2.5c0.5,0.2,1,0.3,1.5,0.3
			c1.1,0,1.9-0.6,2.4-1.8l1-2.3l-5.5-13.8h3.3l3.3,9.9c0.1,0.2,0.2,0.7,0.3,1.3h0.1c0-0.3,0.2-0.7,0.3-1.3l3.5-9.9H731.4z"/>
		<path class="st1" d="M733.1,74.4c1.3,0.9,2.6,1.3,4,1.3c1.8,0,2.8-0.6,2.8-1.7c0-0.5-0.2-0.9-0.6-1.2c-0.4-0.3-1.2-0.7-2.6-1.2
			c-1.4-0.5-2.4-1.1-2.9-1.7c-0.5-0.6-0.7-1.4-0.7-2.3c0-1.3,0.5-2.3,1.6-3c1.1-0.7,2.4-1.1,4-1.1c1.2,0,2.3,0.2,3.4,0.6v2.6
			c-1.1-0.7-2.2-1-3.5-1c-0.7,0-1.3,0.2-1.8,0.5c-0.5,0.3-0.7,0.7-0.7,1.2c0,0.5,0.2,0.9,0.5,1.2c0.3,0.3,1.1,0.7,2.3,1.1
			c1.5,0.5,2.5,1.1,3.1,1.8c0.5,0.6,0.8,1.4,0.8,2.3c0,1.3-0.5,2.3-1.6,3.1c-1.1,0.8-2.5,1.1-4.2,1.1c-1.5,0-2.8-0.3-3.9-0.8V74.4z"
			/>
		<path class="st1" d="M753.2,77.4c-0.5,0.3-1.3,0.5-2.3,0.5c-2.6,0-3.9-1.4-3.9-4.3v-7.5h-2.3v-2.3h2.3v-3.2l2.9-0.9v4.1h3.4v2.3
			h-3.4v7c0,0.9,0.2,1.5,0.5,1.9c0.3,0.4,0.8,0.6,1.5,0.6c0.5,0,1-0.2,1.4-0.5V77.4z"/>
		<path class="st1" d="M767.6,71.5h-9.5c0.1,2.8,1.5,4.2,4.3,4.2c1.5,0,2.9-0.5,4.2-1.4v2.4c-1.2,0.8-2.9,1.2-4.9,1.2
			c-2.1,0-3.7-0.6-4.8-1.9c-1.2-1.3-1.7-3-1.7-5.3c0-2.1,0.6-3.9,1.9-5.3c1.2-1.4,2.8-2.1,4.7-2.1c1.9,0,3.3,0.6,4.4,1.8
			c1,1.2,1.6,2.8,1.6,4.9V71.5z M764.7,69.3c0-1.2-0.3-2.1-0.8-2.7c-0.5-0.6-1.3-1-2.3-1c-0.9,0-1.7,0.3-2.3,1
			c-0.7,0.7-1.1,1.6-1.2,2.7H764.7z"/>
		<path class="st1" d="M791.4,77.6h-2.9v-7.9c0-1.4-0.2-2.4-0.7-3c-0.4-0.6-1.1-0.9-2.1-0.9c-0.8,0-1.6,0.4-2.2,1.2
			s-0.9,1.7-0.9,2.8v7.8h-2.9v-8.1c0-2.5-0.9-3.7-2.8-3.7c-0.9,0-1.6,0.4-2.2,1.1c-0.6,0.7-0.9,1.7-0.9,2.9v7.8h-2.9V63.7h2.9v2.2
			h0.1c1-1.7,2.4-2.5,4.4-2.5c1.9,0,3.3,0.9,3.9,2.8c1-1.8,2.6-2.8,4.6-2.8c3,0,4.5,1.9,4.5,5.6V77.6z"/>
		<path class="st1" d="M801.8,64.5c1.7,1.9,2.5,3.7,2.5,5.6c0,2.3-1.2,3.5-3.6,3.5c-0.5,0-0.9,0-1.3-0.1l-0.7-2.2
			c0.5,0.1,1.1,0.1,1.7,0.1c0.8,0,1.3-0.1,1.5-0.2c0.2-0.2,0.2-0.5,0.2-1c0-1.8-1-3.6-2.9-5.2c0.8-1.7,1.5-3.6,2.2-5.7h-3.2v19.7
			h-2.3V57h7.7v2.2C803.1,60.8,802.5,62.5,801.8,64.5z M817.5,62.1h-7.9l-0.1,3.3h6.9c0,2.1,0,4.5-0.2,7.2c-0.2,2.7-0.4,4.3-0.7,4.7
			c-0.3,0.5-0.6,0.8-1,1.1c-0.4,0.3-1.4,0.4-2.9,0.4c-0.4,0-0.9,0-1.5,0l-0.9-2.3c0.9,0,1.6,0,2.3,0c1,0,1.5,0,1.7-0.1
			c0.2-0.1,0.3-0.2,0.4-0.5c0.1-0.2,0.2-1.2,0.3-2.9c0.1-1.7,0.2-3.5,0.2-5.5h-4.7c-0.4,4.8-2.3,8.6-5.8,11.5l-1.6-1.6
			c1.2-1,2.3-2.3,3.2-3.7c0.9-1.4,1.5-2.9,1.8-4.6c0.3-1.6,0.4-4,0.4-7.2H804v-2.2h5.5c-0.3-0.8-0.8-1.7-1.6-2.8l2.3-0.8
			c0.8,1.4,1.4,2.6,1.8,3.6h5.5V62.1z"/>
		<path class="st1" d="M828.2,68c-1,0.5-1.7,0.9-2.1,1.1v7.9c0,0.4-0.2,0.8-0.5,1.2c-0.3,0.4-1.1,0.7-2.3,0.7c-0.3,0-0.6,0-1.1,0
			l-0.9-2.2c0.5,0,0.9,0,1.4,0c0.6,0,0.9,0,1-0.1c0.1-0.1,0.1-0.2,0.1-0.3v-6.1c-0.6,0.3-1.4,0.6-2.3,0.9l-0.6-2.1
			c0.9-0.3,1.9-0.7,3-1.2v-4.8h-2.8v-2.2h2.8v-4.1h2.2v4.1h1.5v2.2h-1.5v3.9l1.7-0.9L828.2,68z M842.7,78.8h-2.2v-1h-6.9v1h-2.2v-5
			c-0.5,2-1.3,3.7-2.5,5l-1.9-1.5c0.8-0.9,1.5-1.9,2-3.3c0.5-1.3,0.7-3.2,0.7-5.6v-5h12.5v7.1h-10.3c0,0.4,0,0.9-0.1,1.3h11V78.8z
			 M843.8,61.2l-1,1.9c-1.2-0.5-2.4-1-3.5-1.6v0.7h-6.9v-0.7c-1.3,0.8-2.4,1.3-3.3,1.7l-1-2c3.3-1.5,5.7-3.2,7.2-5l2.2,0.7
			c-0.1,0.1-0.1,0.2-0.3,0.4C838.5,58.6,840.7,59.9,843.8,61.2z M839.9,66.2v-1h-8v1H839.9z M839.9,68.8v-1.2h-8v1.2H839.9z
			 M840.5,76v-2.4h-6.9V76H840.5z M837.6,60.4c-0.5-0.3-1.1-0.8-2-1.5c-0.5,0.5-1.1,1-1.8,1.5H837.6z"/>
		<path class="st1" d="M855.3,73.7c-2.1,1.7-4.5,3-7,4l-1.4-1.8c2.5-0.9,4.7-2.1,6.7-3.6L855.3,73.7z M868.9,71.3l-1.9,1.4
			c-0.6-0.8-1.1-1.5-1.4-1.9c-2.4,0.3-4.5,0.5-6.3,0.6v5.2c0,0.7-0.2,1.2-0.6,1.6c-0.4,0.4-1.8,0.6-4.1,0.6l-0.9-2.3
			c0.9,0.1,1.8,0.1,2.6,0.1c0.5,0,0.7-0.2,0.7-0.7v-4.4c-3.5,0.2-6.1,0.3-7.8,0.3l-0.5-2c2.2-0.6,4.7-1.7,7.6-3.2
			c-3,0.2-5.1,0.2-6.4,0.2l-0.4-1.7c3.5-1.1,6.7-2.9,9.4-5.3l2.1,1.2c-1.7,1.5-3.8,2.8-6.2,3.8l2-0.1l3.1-0.2c0.1,0,0.7-0.4,1.7-1.1
			l1.8-1.3l2,1.4c-4,2.9-7.8,4.9-11.3,6.1c3-0.1,6.3-0.4,9.9-0.9c-0.4-0.5-0.9-0.9-1.5-1.5l2-1.2C866.4,68.1,867.9,69.7,868.9,71.3z
			 M861.1,57.5c-2.6,2.1-6.2,3.8-10.8,5l-1.3-2c4.1-0.9,7.5-2.3,10.2-4.3L861.1,57.5z M869.5,76.2l-1.5,1.7c-1.7-1.5-4-2.9-6.7-4.2
			l1.6-1.6C865.5,73.4,867.8,74.8,869.5,76.2z"/>
		<path class="st1" d="M876,72.9c-0.3,2.5-0.9,4.6-1.6,6.2l-1.9-0.9c0.8-1.5,1.3-3.3,1.7-5.6L876,72.9z M882.2,71.2l-2,0.7
			c0-0.1-0.1-0.5-0.3-1.3c-2.2,0.7-4.5,1.2-6.8,1.5l-0.4-1.8c1.5-1.2,3-2.9,4.6-5.2c-1.4,0.2-2.7,0.4-4,0.5l-0.3-1.5
			c1.9-2.1,3.4-4.7,4.6-7.7l2.1,0.8c-1.1,2.5-2.3,4.6-3.7,6.3c0.9-0.1,1.7-0.2,2.5-0.3c0.5-0.8,0.9-1.5,1.2-2.3l2,1
			c-1.8,3.2-3.6,5.8-5.4,7.7c1.1-0.2,2.1-0.5,3-0.8c-0.2-0.5-0.3-0.9-0.4-1.1l1.8-0.8C881.4,68.3,881.9,69.8,882.2,71.2z M879.3,78
			l-1.9,0.4c0-1.7-0.2-3.5-0.6-5.5l1.8-0.5C879,74.5,879.3,76.3,879.3,78z M882.3,75.8l-1.7,0.7c-0.3-1.5-0.6-2.7-1-3.6l1.7-0.6
			C881.7,73.2,882.1,74.4,882.3,75.8z M895.4,72.8c-0.2,2.7-0.3,4.2-0.5,4.4c-0.2,0.3-0.4,0.6-0.8,0.9c-0.4,0.3-1.2,0.5-2.6,0.5
			c-1.2,0-1.9-0.2-2.3-0.5c-0.4-0.4-0.5-1.1-0.5-2.1v-8.6c-0.8,0.1-1.5,0.2-2,0.3c0,1.9-0.1,3.4-0.3,4.7c-0.2,1.3-0.6,2.5-1.3,3.7
			c-0.7,1.2-1.6,2.2-2.7,3.1l-1.6-1.6c0.7-0.5,1.4-1.2,2.1-2.1c0.6-0.9,1.1-1.9,1.3-2.9c0.3-1.1,0.4-2.6,0.3-4.6l-2.3,0.2l-0.4-1.7
			c1.5-1.8,2.6-3.6,3.6-5.6h-3.8v-2.1h4.7c0.2-0.5,0.5-1.3,0.8-2.4l2.3,0.4c-0.3,0.8-0.5,1.5-0.8,2h6.4v2.1h-7.3
			c-0.7,1.6-1.7,3.3-2.9,5c2.2-0.1,4.2-0.4,6-0.7c-0.3-0.5-0.8-1.1-1.3-1.7l1.8-1.2c1.8,2.1,3,3.9,3.8,5.3l-1.9,1.3
			c-0.5-0.8-0.8-1.5-1.2-2l-1.3,0.2v9c0,0.4,0.4,0.6,1.1,0.6c0.6,0,1-0.2,1.1-0.7c0.1-0.5,0.2-1.8,0.3-3.9L895.4,72.8z"/>
	</g>
</g>
<g>
	<g>
		<g>
			<path class="st2" d="M92.4,37l9.2-0.9c0.5,3,1.7,5.3,3.3,6.7c1.7,1.5,4,2.1,6.9,2.1c3,0,5.3-0.7,6.9-2c1.6-1.3,2.4-2.8,2.4-4.5
				c0-1.1-0.3-2-0.9-2.8c-0.7-0.8-1.7-1.5-3.4-2c-1.1-0.4-3.6-1.1-7.5-2c-5-1.2-8.6-2.8-10.7-4.6c-2.9-2.5-4.4-5.7-4.4-9.4
				c0-2.4,0.7-4.6,2-6.7c1.3-2.1,3.3-3.7,5.8-4.7c2.5-1.1,5.5-1.6,9.2-1.6c5.8,0,10.3,1.3,13.2,3.8s4.5,5.9,4.6,10.3l-9.4,0.4
				c-0.4-2.4-1.3-4.1-2.6-5.1c-1.3-1.1-3.3-1.6-5.9-1.6c-2.8,0-4.9,0.5-6.5,1.7c-1.1,0.7-1.5,1.7-1.5,2.9c0,1.1,0.5,2.1,1.5,2.8
				c1.2,1.1,4.1,2,8.7,3.2c4.6,1.1,7.9,2.2,10.2,3.3c2.2,1.2,4,2.8,5.1,4.7c1.2,2,1.8,4.5,1.8,7.4c0,2.6-0.8,5.1-2.2,7.5
				c-1.5,2.4-3.6,4.1-6.3,5.1c-2.8,1.2-6.1,1.7-10.2,1.7c-5.9,0-10.4-1.3-13.6-4.1C94.9,46.3,92.9,42.3,92.4,37z"/>
			<path class="st2" d="M138.3,52.2V5.5h9.4v18.3h18.5V5.5h9.4v46.7h-9.4V31.9h-18.5v20.4h-9.4V52.2z"/>
			<path class="st2" d="M227.4,52.2h-10.3L213,41.7h-18.6l-3.8,10.5h-10l18.2-46.7h10L227.4,52.2z M210,33.7l-6.5-17.3l-6.3,17.3
				H210z"/>
			<path class="st2" d="M232.7,52.2V5.9h9.4v38.4h23.5v7.9H232.7z"/>
			<path class="st2" d="M314.3,52.2H304l-4.1-10.5h-18.6l-3.8,10.5h-10l18.2-46.7h10L314.3,52.2z M296.9,33.7l-6.5-17.3l-6.3,17.3
				H296.9z"/>
			<path class="st2" d="M319.3,52.2V5.5h19.8c5,0,8.6,0.4,10.8,1.3c2.2,0.8,4.1,2.4,5.4,4.5c1.3,2.1,2,4.6,2,7.4
				c0,3.6-1.1,6.3-3,8.7c-2.1,2.2-5.1,3.7-9.2,4.4c2,1.2,3.7,2.5,5,4c1.3,1.5,3.2,4,5.4,7.5l5.7,9.1h-11.2L343,42.2
				c-2.4-3.7-4.1-5.9-5-6.9c-0.9-0.9-1.8-1.6-2.8-2c-1.1-0.4-2.6-0.5-4.7-0.5h-1.8v19.5h-9.4V52.2z M328.7,25.3h7
				c4.5,0,7.4-0.1,8.4-0.5c1.2-0.4,2-1.1,2.6-2s0.9-2.1,0.9-3.6c0-1.6-0.4-2.9-1.3-3.8c-0.8-0.9-2-1.6-3.6-1.8
				c-0.8-0.1-3-0.1-6.9-0.1h-7.4v11.9H328.7z"/>
			<path class="st2" d="M366.2,52.2V5.5h14.1l8.4,31.8l8.3-31.8h14.2v46.7h-8.7V15.6l-9.2,36.8h-9.1l-9.2-36.8v36.8h-8.8V52.2z"/>
		</g>
		<g>
			<path class="st3" d="M101.1,60.2l0.1-0.7c1.1-0.1,2.2-0.3,3.7-0.7c-0.4,1.1-0.8,2.2-1.1,3.6l-0.9,4c-0.7,2.9-1.5,5-2.2,6.5
				c0.8,0.1,1.6,0.3,2.1,0.3c1.7,0,3-0.4,4.4-1.1c1.2-0.7,2.2-1.7,2.9-3c0.7-1.3,1.1-2.8,1.1-4.4c0-2.1-0.7-3.8-1.8-5.1
				c-1.2-1.3-2.8-2-4.7-2c-1.7,0-3.3,0.4-4.7,1.2c-1.5,0.8-2.6,1.8-3.6,3.2c-0.9,1.3-1.3,2.6-1.3,3.8s0.5,2.1,1.6,2.6
				c0.3,0.1,0.5,0.3,0.5,0.4c0.1,0.1,0.1,0.3,0.1,0.4c0,0.3-0.1,0.4-0.3,0.7c-0.1,0.1-0.4,0.3-0.7,0.3c-0.5,0-1.1-0.3-1.5-1.1
				c-0.7-0.9-0.9-1.8-0.9-2.9c0-1.6,0.5-3.2,1.5-4.7c0.9-1.5,2.4-2.8,4.1-3.6c1.7-0.9,3.7-1.3,5.8-1.3c2.6,0,4.6,0.7,6.2,2.1
				c1.6,1.5,2.4,3.2,2.4,5.3c0,2-0.5,3.7-1.6,5.4c-1.1,1.6-2.4,2.8-4,3.6c-1.6,0.7-3,1.1-4.6,1.1c-0.5,0-1.3,0-2.5-0.1
				c-1.1,0-2.1,0-3,0c-0.4,0-1.1,0-2,0l0.3-0.7c0.9,0,1.5-0.1,1.6-0.3c0.3-0.1,0.4-0.3,0.5-0.5c0.3-0.4,0.7-1.3,1.1-2.8l0.9-3.7
				l1.2-4.6c0-0.3,0.1-0.4,0.1-0.5c0-0.1,0-0.3-0.1-0.4c-0.1-0.1-0.3-0.1-0.4-0.1C101.4,60.2,101.3,60.2,101.1,60.2z"/>
			<path class="st3" d="M130.8,70.3l0.5,0.7c-2.4,2.2-4.4,3.3-5.9,3.3c-0.7,0-1.2-0.3-1.6-0.7c-0.4-0.4-0.5-1.2-0.5-2.2
				c0-2,0.7-4.1,1.8-6.1c1.3-2.2,3-3.4,4.9-3.4c0.7,0,1.2,0.1,1.6,0.5c0.4,0.4,0.5,0.8,0.5,1.3c0,0.7-0.3,1.2-0.7,1.8
				c-0.4,0.7-1.2,1.2-2.2,1.8c-0.5,0.3-1.7,0.9-3.6,1.7c-0.1,0.5-0.1,1.1-0.1,1.5c0,0.7,0.1,1.2,0.3,1.5c0.3,0.3,0.5,0.4,0.9,0.4
				c0.4,0,0.8-0.1,1.3-0.3C128.7,71.9,129.5,71.2,130.8,70.3z M125.8,68.3c1.6-0.7,2.6-1.5,3.4-2.2c0.5-0.5,0.8-1.1,0.8-1.6
				c0-0.4-0.1-0.8-0.3-0.9c-0.3-0.3-0.5-0.4-0.8-0.4c-0.4,0-0.7,0.1-1.1,0.4c-0.4,0.4-0.8,0.9-1.1,1.6
				C126.3,66.2,125.9,67.2,125.8,68.3z"/>
			<path class="st3" d="M148.1,62c0.8,0,1.5,0.1,2,0.5c0.4,0.3,0.7,0.7,0.7,1.2c0,0.3-0.1,0.5-0.3,0.7c-0.1,0.1-0.4,0.3-0.7,0.3
				c-0.1,0-0.4,0-0.5-0.1s-0.3-0.3-0.5-0.7c-0.4-0.7-0.9-0.9-1.3-0.9c-0.4,0-0.8,0.1-1.1,0.4c-0.3,0.3-0.4,0.7-0.4,1.1
				c0,0.4,0.1,0.8,0.3,1.2c0.1,0.4,0.7,0.9,1.5,1.7c1.1,1.1,1.6,2.1,1.6,3.2c0,1.1-0.4,1.8-1.3,2.6c-0.8,0.8-2,1.2-3.3,1.2
				c-1.2,0-2-0.3-2.5-0.7c-0.5-0.4-0.8-1.1-0.8-1.7c0-0.3,0.1-0.7,0.3-0.8c0.3-0.3,0.5-0.3,0.8-0.3s0.5,0.1,0.7,0.3
				c0.1,0.1,0.3,0.4,0.3,0.7c0,0.1,0,0.3,0,0.4c0,0.1,0,0.3,0,0.3c0,0.3,0.1,0.5,0.4,0.8c0.3,0.3,0.7,0.3,1.1,0.3
				c0.5,0,0.9-0.1,1.3-0.3c0.4-0.1,0.7-0.4,0.9-0.8c0.3-0.4,0.3-0.7,0.3-1.1s-0.1-0.7-0.3-1.1c-0.3-0.4-0.7-0.9-1.3-1.7
				c-0.9-1.1-1.5-2.1-1.5-3.2c0-0.9,0.4-1.7,1.1-2.4C145.9,62.4,146.9,62,148.1,62z"/>
			<path class="st3" d="M160.3,65.3l-0.7-0.5c0.9-1.1,1.8-1.7,2.6-2.2c0.8-0.4,1.5-0.7,2-0.7c0.3,0,0.5,0,0.7,0.3
				c0.1,0.1,0.3,0.3,0.3,0.5c0,0.3-0.3,1.5-0.9,3.4c-1.1,3.3-1.5,5.4-1.5,6.1c0,0.1,0,0.3,0.1,0.4c0,0.1,0.1,0.1,0.3,0.1
				c0.3,0,1.1-0.5,2.4-1.7l0.5,0.5c-1.3,1.2-2.2,2-2.8,2.4c-0.7,0.4-1.1,0.5-1.5,0.5c-0.4,0-0.5-0.1-0.8-0.3
				c-0.1-0.3-0.3-0.5-0.3-0.9c0-1.2,0.7-4.1,2.1-8.7c0-0.3,0.1-0.4,0.1-0.5c0-0.1-0.1-0.3-0.3-0.3s-0.4,0.1-0.7,0.3
				C161.6,63.9,161.1,64.5,160.3,65.3z M165.9,55.9c0.3,0,0.5,0.1,0.7,0.3c0.1,0.1,0.3,0.4,0.3,0.8s-0.1,0.8-0.4,1.1
				c-0.3,0.3-0.7,0.5-0.9,0.5c-0.3,0-0.5-0.1-0.7-0.3c-0.1-0.3-0.3-0.4-0.3-0.8s0.1-0.8,0.4-1.1C165.2,56,165.5,55.9,165.9,55.9z"/>
			<path class="st3" d="M185,61.8l1.2-0.3c-0.7,2.2-1.3,4.5-1.8,6.6c-0.4,1.6-0.7,2.9-0.9,4c-0.1,0.5-0.1,1.2-0.1,2
				c0,1.3-0.1,2.5-0.4,3.3c-0.4,1.2-1.2,2.1-2.2,2.8c-1.1,0.7-2.4,1.1-3.8,1.1c-1.3,0-2.2-0.3-3-0.9c-0.8-0.7-1.1-1.3-1.1-2.1
				c0-0.8,0.3-1.5,0.9-2.1c0.4-0.5,1.3-1.1,2.8-1.8c0.7-0.4,1.3-0.8,2-1.2c-0.7,0.4-1.2,0.5-1.6,0.5c-0.4,0-0.7-0.1-0.9-0.5
				c-0.3-0.3-0.4-0.8-0.4-1.3c0-1.7,0.5-3.4,1.6-5.1c1.1-1.7,2.2-3,3.7-3.8c0.9-0.5,2-0.8,3.4-0.8c0.3,0,0.5,0,0.9,0L185,61.8z
				 M181.5,71.7c-0.7,0.5-1.8,1.5-3.7,2.8c-1.6,1.1-2.6,1.8-3,2.4c-0.4,0.5-0.5,1.1-0.5,1.6c0,0.5,0.3,1.1,0.7,1.5
				c0.5,0.4,1.1,0.7,1.7,0.7s1.3-0.1,1.8-0.5c0.7-0.3,1.2-0.8,1.6-1.3c0.4-0.7,0.8-1.3,0.9-2c0.1-0.8,0.3-1.7,0.3-3
				C181.4,73.3,181.4,72.6,181.5,71.7z M183.4,63.9c-0.4-0.1-0.8-0.1-1.2-0.1c-0.9,0-1.7,0.3-2.4,0.7c-0.7,0.5-1.2,1.3-1.6,2.4
				c-0.7,1.6-0.9,2.9-0.9,4c0,0.4,0.1,0.8,0.4,1.1c0.3,0.3,0.5,0.4,0.8,0.4c0.4,0,0.8-0.1,1.5-0.5c0.5-0.4,1.1-0.8,1.3-1.3
				c0.4-0.5,0.7-1.5,1.1-2.8L183.4,63.9z"/>
			<path class="st3" d="M196.2,65.3l-0.5-0.5c1.2-1.2,2.1-2,2.9-2.2c0.7-0.4,1.3-0.5,1.8-0.5c0.3,0,0.4,0,0.5,0.1
				c0.1,0.1,0.1,0.1,0.1,0.3c0,0.1,0,0.3-0.1,0.4l-0.7,2.9c0.9-1.1,2.1-2.1,3.6-3c0.8-0.5,1.5-0.7,1.8-0.7c0.4,0,0.7,0.1,0.9,0.4
				c0.3,0.3,0.3,0.5,0.3,1.1c0,0.3,0,0.7-0.1,1.1c-0.1,0.7-0.5,2-1.2,4c-0.7,2-0.9,3.2-0.9,3.8c0,0.1,0,0.4,0.1,0.4
				c0,0.1,0.1,0.1,0.3,0.1c0.3,0,0.7-0.3,1.3-0.8c0.4-0.4,0.8-0.8,1.2-1.1l0.4,0.5c-0.9,0.9-1.7,1.7-2.8,2.4
				c-0.7,0.4-1.1,0.5-1.5,0.5c-0.4,0-0.7-0.1-0.8-0.4c-0.3-0.3-0.3-0.7-0.3-1.3c0-0.8,0.5-2.9,1.6-6.3c0.3-1.2,0.5-1.8,0.5-2.1
				s-0.1-0.4-0.5-0.4c-0.4,0-0.9,0.3-1.5,0.7c-0.9,0.5-1.6,1.3-2.2,2.1c-0.4,0.5-0.7,1.3-0.9,2.4l-1.2,5h-2c0.4-1.5,0.8-2.8,1.1-4.1
				l1.3-5.4c0-0.3,0.1-0.4,0.1-0.5c0-0.3-0.1-0.4-0.3-0.4s-0.4,0.1-0.7,0.3C197.2,64.2,196.7,64.7,196.2,65.3z"/>
			<path class="st3" d="M236.9,59.7l2.2-0.9l-1.1,4h2.9l-0.3,1.1h-2.9l-1.2,4.7c-0.4,1.5-0.5,2.4-0.5,3c0,0.3,0,0.4,0.1,0.5
				c0.1,0.1,0.3,0.1,0.4,0.1c0.3,0,0.8-0.1,1.3-0.5c0.8-0.4,1.6-0.9,2.2-1.6l0.5,0.7c-2.1,1.6-3.4,2.5-4.1,2.9
				c-0.7,0.4-1.3,0.5-1.7,0.5s-0.7-0.1-0.8-0.4c-0.3-0.3-0.3-0.7-0.3-1.2c0-0.7,0.1-1.7,0.5-3.2l1.5-5.7h-2.2l0.3-1.1h2.2
				L236.9,59.7z"/>
			<path class="st3" d="M257.9,62c0.9,0,1.7,0.4,2.4,1.1c0.7,0.8,0.9,1.7,0.9,3c0,2.1-0.8,4-2.2,5.7s-3,2.5-4.6,2.5
				c-1.1,0-1.8-0.4-2.5-1.1c-0.7-0.7-0.9-1.6-0.9-2.8c0-2,0.5-3.8,1.7-5.5C254,63,255.8,62,257.9,62z M256.7,63
				c-0.8,0-1.6,0.5-2.4,1.7c-0.8,1.2-1.2,2.8-1.2,4.7c0,1.2,0.3,2.2,0.7,2.9c0.4,0.5,0.8,0.8,1.3,0.8c0.8,0,1.5-0.5,2.1-1.5
				c0.8-1.3,1.2-2.9,1.2-4.7c0-1.5-0.1-2.4-0.5-3C257.7,63.3,257.3,63,256.7,63z"/>
			<path class="st3" d="M286.5,65.5L286,65c0.9-1.1,1.7-1.8,2.5-2.2c0.8-0.5,1.6-0.8,2.2-0.8c0.3,0,0.4,0,0.5,0.1
				c0.1,0.1,0.3,0.3,0.3,0.5c0,0.3,0,0.5-0.1,0.8c0,0.3-0.3,0.9-0.5,2.1c1.5-1.5,2.4-2.4,2.9-2.6c0.9-0.5,1.7-0.9,2.4-0.9
				c0.5,0,0.9,0.3,1.2,0.7c0.4,0.4,0.5,1.2,0.5,2.1c0,2.2-0.7,4.5-2.1,6.5c-1.5,2.1-3,3-4.7,3c-0.7,0-1.3-0.1-2-0.5l-1.2,4.6
				c-0.1,0.3-0.1,0.5-0.1,0.7c0,0.4,0.1,0.7,0.4,0.8c0.4,0.3,1.3,0.4,2.5,0.5l-0.1,0.7c-1.6-0.1-2.8-0.1-3.6-0.1
				c-0.9,0-2.1,0-3.4,0.1l0.1-0.7c0.7-0.1,1.2-0.3,1.6-0.7c0.3-0.3,0.5-0.9,0.8-1.7l2.5-10.8c0.5-2,0.7-3.2,0.7-3.3
				c0-0.3-0.1-0.4-0.4-0.4C288.5,63.7,287.7,64.2,286.5,65.5z M289.4,72.1c0.8,0.8,1.5,1.1,2.2,1.1c1.2,0,2.1-0.9,3-2.6
				c0.8-1.7,1.3-3.4,1.3-5.1c0-0.5-0.1-0.9-0.4-1.2c-0.3-0.3-0.5-0.4-0.9-0.4s-0.9,0.3-1.6,0.7c-0.9,0.7-1.6,1.3-2,2.1
				c-0.3,0.5-0.7,1.3-0.9,2.5L289.4,72.1z"/>
			<path class="st3" d="M310.3,73.8h-2.1l1.1-3.8c0.5-1.8,0.9-3.7,1.3-5.3c0.1-0.4,0.1-0.7,0.1-0.8c0-0.3-0.1-0.4-0.3-0.4
				s-0.4,0.1-0.7,0.3s-0.8,0.7-1.6,1.5l-0.4-0.5c0.9-0.9,1.8-1.7,2.8-2.2c0.9-0.5,1.6-0.8,2.1-0.8c0.1,0,0.3,0,0.4,0.1
				c0.1,0.1,0.1,0.1,0.1,0.3c0,0.1,0,0.4-0.1,0.9l-0.7,2.5c0.9-1.5,2-2.8,3.3-3.8c0.5-0.5,1.1-0.8,1.5-0.8c0.3,0,0.5,0.1,0.7,0.3
				c0.1,0.1,0.3,0.4,0.3,0.7c0,0.3-0.1,0.5-0.3,0.7s-0.7,0.4-1.3,0.7c-0.7,0.3-1.3,0.5-1.7,0.8c-0.4,0.4-0.9,0.8-1.5,1.6
				c-0.5,0.7-0.9,1.3-1.1,1.7c-0.3,0.5-0.5,1.7-0.9,3.6L310.3,73.8z"/>
			<path class="st3" d="M332.1,62c0.9,0,1.7,0.4,2.4,1.1c0.7,0.8,0.9,1.7,0.9,3c0,2.1-0.8,4-2.2,5.7c-1.5,1.7-3,2.5-4.6,2.5
				c-1.1,0-1.8-0.4-2.5-1.1c-0.7-0.7-0.9-1.6-0.9-2.8c0-2,0.5-3.8,1.7-5.5C328.3,63,330,62,332.1,62z M330.9,63
				c-0.8,0-1.6,0.5-2.4,1.7c-0.8,1.2-1.2,2.8-1.2,4.7c0,1.2,0.3,2.2,0.7,2.9c0.4,0.5,0.8,0.8,1.3,0.8c0.8,0,1.5-0.5,2.1-1.5
				c0.8-1.3,1.2-2.9,1.2-4.7c0-1.5-0.1-2.4-0.5-3C332,63.3,331.6,63,330.9,63z"/>
			<path class="st3" d="M349.4,59.7l2.2-0.9l-1.1,4h2.9l-0.3,1.1h-2.9l-1.2,4.7c-0.4,1.5-0.5,2.4-0.5,3c0,0.3,0,0.4,0.1,0.5
				c0.1,0.1,0.3,0.1,0.4,0.1c0.3,0,0.8-0.1,1.3-0.5c0.8-0.4,1.6-0.9,2.2-1.6l0.5,0.7c-2.1,1.6-3.4,2.5-4.1,2.9s-1.3,0.5-1.7,0.5
				c-0.4,0-0.7-0.1-0.8-0.4c-0.3-0.3-0.3-0.7-0.3-1.2c0-0.7,0.1-1.7,0.5-3.2l1.5-5.7h-2.2l0.3-1.1h2.2L349.4,59.7z"/>
			<path class="st3" d="M370.9,70.3l0.5,0.7c-2.4,2.2-4.4,3.3-5.9,3.3c-0.7,0-1.2-0.3-1.6-0.7c-0.4-0.4-0.5-1.2-0.5-2.2
				c0-2,0.7-4.1,1.8-6.1c1.3-2.2,3-3.4,4.9-3.4c0.7,0,1.2,0.1,1.6,0.5c0.4,0.4,0.5,0.8,0.5,1.3c0,0.7-0.3,1.2-0.7,1.8
				c-0.4,0.7-1.2,1.2-2.2,1.8c-0.5,0.3-1.7,0.9-3.6,1.7c-0.1,0.5-0.1,1.1-0.1,1.5c0,0.7,0.1,1.2,0.3,1.5c0.3,0.3,0.5,0.4,0.9,0.4
				c0.4,0,0.8-0.1,1.3-0.3C368.7,71.9,369.7,71.2,370.9,70.3z M365.8,68.3c1.6-0.7,2.6-1.5,3.4-2.2c0.5-0.5,0.8-1.1,0.8-1.6
				c0-0.4-0.1-0.8-0.3-0.9c-0.3-0.3-0.5-0.4-0.8-0.4c-0.4,0-0.7,0.1-1.1,0.4c-0.4,0.4-0.8,0.9-1.1,1.6
				C366.4,66.2,366,67.2,365.8,68.3z"/>
			<path class="st3" d="M389.7,70.8l0.3,0.8c-2.2,1.7-4.1,2.6-5.7,2.6c-0.8,0-1.5-0.3-1.8-0.9c-0.4-0.5-0.5-1.3-0.5-2.2
				c0-1.5,0.4-3,1.2-4.6c0.8-1.6,1.7-2.8,2.9-3.6c0.9-0.7,1.8-0.9,3-0.9c0.7,0,1.2,0.1,1.6,0.4c0.4,0.3,0.5,0.5,0.5,0.9
				c0,0.3-0.1,0.5-0.3,0.7c-0.1,0.1-0.4,0.3-0.8,0.3c-0.3,0-0.8-0.1-1.3-0.4c-0.5-0.3-0.9-0.5-1.3-0.5c-0.5,0-0.9,0.3-1.3,0.7
				c-0.4,0.4-0.9,1.2-1.3,2.5c-0.4,1.2-0.7,2.4-0.7,3.7c0,0.9,0.1,1.6,0.5,2.1c0.3,0.4,0.7,0.5,1.1,0.5
				C386.9,72.8,388.1,72.1,389.7,70.8z"/>
			<path class="st3" d="M404.5,59.7l2.2-0.9l-1.1,4h2.9l-0.3,1.1h-2.9l-1.2,4.7c-0.4,1.5-0.5,2.4-0.5,3c0,0.3,0,0.4,0.1,0.5
				s0.3,0.1,0.4,0.1c0.3,0,0.8-0.1,1.3-0.5c0.8-0.4,1.6-0.9,2.2-1.6l0.5,0.7c-2.1,1.6-3.4,2.5-4.1,2.9s-1.3,0.5-1.7,0.5
				c-0.4,0-0.7-0.1-0.8-0.4c-0.3-0.3-0.3-0.7-0.3-1.2c0-0.7,0.1-1.7,0.5-3.2l1.5-5.7h-2.2l0.3-1.1h2.2L404.5,59.7z"/>
		</g>
		<path class="st4" d="M0,2.6h28.9v29.3h9.4V2.6h29.4v9.6H48.5v19.4h19.1v38.6H38.5V41.1h-9.6v29H0v-9.5h19V41.4H0V2.6z M19.1,12.5
			H9.8v19h9.4V12.5z M57.7,41.5h-9.4v19h9.4V41.5z"/>
	</g>
</g>
</svg>
