<?xml version="1.0" encoding="utf-8"?>
<!-- Generator: Adobe Illustrator 22.0.1, SVG Export Plug-In . SVG Version: 6.00 Build 0)  -->
<svg version="1.1" id="圖層_1" xmlns="http://www.w3.org/2000/svg" xmlns:xlink="http://www.w3.org/1999/xlink" x="0px" y="0px"
	 viewBox="0 0 20.5 20.5" style="enable-background:new 0 0 20.5 20.5;" xml:space="preserve">
<style type="text/css">
	.st0{fill:#FFFFFF;}
</style>
<g>
	<path class="st0" d="M20.5,10.3C20.5,4.6,15.9,0,10.3,0C4.6,0,0,4.6,0,10.3c0,5.3,4,9.6,9.1,10.2v-7.8H7.4V9.7h1.7c0,0,0-2,0-2.4
		S9,3.9,12.8,3.9c0.5,0,1.7,0,2.7,0c0,1.3,0,2.7,0,3.1c-0.8,0-1.6,0-2,0c-0.4,0-0.8,0.4-0.8,0.7c0,0.3,0,2,0,2s2.4,0,2.7,0
		c-0.1,1.5-0.3,3-0.3,3h-2.4v7.6C17.2,19.1,20.5,15.1,20.5,10.3z"/>
</g>
</svg>
