<?xml version="1.0" encoding="utf-8"?>
<!-- Generator: Adobe Illustrator 22.0.1, SVG Export Plug-In . SVG Version: 6.00 Build 0)  -->
<svg version="1.1" id="圖層_2" xmlns="http://www.w3.org/2000/svg" xmlns:xlink="http://www.w3.org/1999/xlink" x="0px" y="0px"
	 viewBox="0 0 96 97.9" style="enable-background:new 0 0 96 97.9;" xml:space="preserve">
<style type="text/css">
	.st0{fill-rule:evenodd;clip-rule:evenodd;fill:#C8BB9B;}
	.st1{fill:#83B87C;}
</style>
<g>
	<path id="location_2_" class="st0" d="M40,79.9C17.9,79.9,0,62,0,40c0-2.1,0.2-4.1,0.5-6.1v-1c0,0,0.1,0,0.1,0.1
		C4,14.2,20.3,0,40,0c22.1,0,40,17.9,40,40C79.9,62,62,79.9,40,79.9z M60.8,31.7c0.1-0.5,0.1-1,0.1-1.5c0-0.7-0.1-1.4-0.2-2.1
		c3.9-0.4,8.1-0.6,12.6-0.5c-1.5-4-3.6-7.7-6.4-10.9c-2,1.1-5.3,3.2-8.7,6.5c-0.7-0.8-1.4-1.4-2.3-2c3.4-3.6,6.7-5.9,8.5-7.1
		c-2.9-2.7-6.2-5-9.8-6.7c-3.3,0.4-11.6,1.8-20.5,6.9c0.1,0.3,0.2,0.7,0.2,1.1c3.3,1.6,6.7,3.5,10.1,5.9c-0.7,0.5-1.4,1.1-2,1.8
		c-2.5-1.9-5.4-3.6-8.8-5.2c-0.8,1.2-2.1,2-3.6,2c-1,0-1.9-0.4-2.6-0.9c-5.2,4.3-10.2,10.2-13.9,18.3c0.9,0.8,1.5,1.9,1.5,3.2
		c0,0.7-0.2,1.4-0.5,1.9c1.5,0.8,3.2,1.6,4.9,2.5c1-0.9,2.3-1.5,3.7-1.5c0.5,0,0.9,0.1,1.3,0.2c4.1-3.7,9.3-7.3,15.8-10.2
		c0.4,1.2,1,2.3,1.8,3.3c-5.1,2.1-10.1,5-14.7,8.8c0.7,0.8,1.1,1.9,1.2,3c4.4,1.4,9.2,2.6,14.4,3.3c0.2-4.6,1-8.7,2.2-12.5
		c0.9,0.5,1.8,0.9,2.8,1.1c-1,3.5-1.7,7.4-1.9,11.7c3.2,0.3,6.6,0.4,10.1,0.3c0.5-1.4,1.6-2.5,2.9-3.1c-0.6-3.3-1.6-6.8-3.2-10.3
		c1-0.6,1.9-1.4,2.7-2.3c2,3.7,3.5,7.8,4.2,12.4c1.3,0.4,2.4,1.2,3.1,2.4c2.7-0.4,5.5-1,8.3-1.7c0.9-3.2,1.4-6.5,1.4-9.9
		c0-3.2-0.5-6.3-1.3-9.3C71.9,30.6,66.9,30.8,60.8,31.7z M18.1,47.6c-2-1-3.9-2-5.6-3c-0.5,0.2-1,0.3-1.6,0.3c0,0,0,0,0,0
		c-1.1,3.5-1.9,7.3-2.5,11.5c0.9,1.8,2,3.5,3.3,5.1c0.8-2,2.9-6.1,6.6-10.9c-0.2-0.5-0.3-1.1-0.3-1.7C17.9,48.4,18,48,18.1,47.6z
		 M49.7,69.7c0,0.5-0.8,2.1-1.1,2.6c0.3,1,0.4,1,0.7,2c3.2-0.9,6.3-2.2,9-3.9c0.6-2.4,1.3-6.2,1.5-10.9c-1.9-0.5-3.5-2.1-3.8-4.1
		c-3.4,0.1-6.7,0.1-9.9-0.2c0.1,3.8,0.5,7.4,1.5,11.8C48.4,67.6,49.7,68.7,49.7,69.7z M73.1,52.9c-2.2,0.5-4.4,1-6.5,1.4
		c0,0,0,0.1,0,0.1c0,2.4-1.5,4.3-3.6,5.1c-0.2,2.8-0.7,5.7-1.5,8.8C66.7,64.3,70.7,59,73.1,52.9z M40,75.6c2.3,0,4.5-0.2,6.7-0.7
		c-0.2-0.7-0.5-1.4-0.7-2.1c0,0,0,0,0,0c-1.6,0-2.9-1.3-2.9-2.9c0-1.1,0.6-2,1.5-2.5c-1-4.5-1.5-8.6-1.6-12.5
		c-5.5-0.7-10.5-1.9-15.1-3.4c-0.9,1.6-2.6,2.7-4.6,2.7c-1.2,0-2.2-0.4-3.1-1c-2.4,3.3-4.4,7-6,11.3C20.7,71.3,29.8,75.6,40,75.6z
		 M6.1,51C6.5,49.2,7,46.6,8,43.7c-0.8-0.8-1.4-1.8-1.4-3C5.8,40,5,39.5,4.4,38.9c0,0.3-0.1,0.7-0.1,1C4.3,43.8,5,47.5,6.1,51z
		 M4.5,36.1c0.8,0.6,1.8,1.3,2.8,2c0.8-1.1,2-1.8,3.5-1.8c0,0,0,0,0,0c3-6.5,7.8-13.7,15.2-19.5c-0.1-0.3-0.1-0.7-0.1-1
		c0-0.3,0-0.5,0.1-0.8c-2.7-0.9-5.6-1.7-8.7-2.5C10.3,18.2,5.6,26.6,4.5,36.1z M20.3,10.3c1.6,0.4,4.1,1.1,7.1,2.3
		c0.8-0.7,1.7-1.1,2.8-1.1c0.9,0,1.8,0.3,2.5,0.8c5-2.8,10.9-5,17.9-6.3C47.3,4.9,43.7,4.3,40,4.3C32.7,4.3,25.9,6.5,20.3,10.3z
		 M50.3,37.6c-4.1,0-7.5-3.4-7.5-7.5c0-4.1,3.3-7.5,7.5-7.5c4.1,0,7.5,3.3,7.5,7.5C57.8,34.2,54.5,37.6,50.3,37.6z M50.3,25.2
		c-2.7,0-4.9,2.2-4.9,4.9c0,2.7,2.2,4.9,4.9,4.9c2.7,0,4.9-2.2,4.9-4.9C55.2,27.4,53,25.2,50.3,25.2z M50.3,32.2
		c-1.3,0-2.4-1.1-2.4-2.4c0-1.3,1.1-2.4,2.4-2.4c1.3,0,2.4,1.1,2.4,2.4C52.8,31.1,51.7,32.2,50.3,32.2z"/>
	<path class="st1" d="M87,68.5v-2c0-2.5-2-4.5-4.5-4.5H44.2c-2.5,0-4.5,2-4.5,4.5v26.8c0,2.5,2,4.5,4.5,4.5h38.3
		c2.5,0,4.5-2,4.5-4.5V74.6l8.9,5.8V62.7L87,68.5z M22.6,62.5v27.3h6.2l6.7-4.3V66.8l-6.7-4.3H22.6z"/>
</g>
</svg>
