<?xml version="1.0" encoding="utf-8"?>
<!-- Generator: Adobe Illustrator 22.0.1, SVG Export Plug-In . SVG Version: 6.00 Build 0)  -->
<svg version="1.1" id="圖層_1" xmlns="http://www.w3.org/2000/svg" xmlns:xlink="http://www.w3.org/1999/xlink" x="0px" y="0px"
	 viewBox="0 0 13.8 103.7" style="enable-background:new 0 0 13.8 103.7;" xml:space="preserve">
<style type="text/css">
	.st0{clip-path:url(#SVGID_2_);}
	.st1{fill:url(#SVGID_3_);}
	.st2{fill:url(#SVGID_4_);}
	.st3{fill:url(#SVGID_5_);}
	.st4{fill:url(#SVGID_6_);}
	.st5{fill:url(#SVGID_7_);}
	.st6{fill:#A51F24;}
	.st7{fill:url(#SVGID_8_);}
	.st8{fill:#A72536;}
	.st9{fill:#8C1C21;}
	.st10{fill:#8E2130;}
	.st11{fill:#C71B1E;}
	.st12{fill:url(#SVGID_9_);}
	.st13{fill:url(#SVGID_10_);}
	.st14{fill:#1D923A;}
	.st15{fill:url(#SVGID_11_);}
	.st16{fill:url(#SVGID_12_);}
	.st17{fill:#243380;}
	.st18{fill:url(#SVGID_13_);}
	.st19{fill:url(#SVGID_14_);}
	.st20{fill:url(#SVGID_15_);}
	.st21{fill:url(#SVGID_16_);}
</style>
<g>
	<g>
		<g>
			<g>
				<defs>
					<rect id="SVGID_1_" width="13.8" height="103.7"/>
				</defs>
				<clipPath id="SVGID_2_">
					<use xlink:href="#SVGID_1_"  style="overflow:visible;"/>
				</clipPath>
				<g class="st0">
					
						<linearGradient id="SVGID_3_" gradientUnits="userSpaceOnUse" x1="-1175.9402" y1="-1315.9147" x2="-1084.6893" y2="-1315.9147" gradientTransform="matrix(0 -1.1359 1.1359 0 1501.6572 -1232.0985)">
						<stop  offset="0" style="stop-color:#8E202F"/>
						<stop  offset="3.609390e-02" style="stop-color:#8A1C21"/>
						<stop  offset="8.464910e-02" style="stop-color:#A72536"/>
						<stop  offset="0.1237" style="stop-color:#A41F24"/>
						<stop  offset="0.1255" style="stop-color:#A71F24"/>
						<stop  offset="0.1532" style="stop-color:#BE1B20"/>
						<stop  offset="0.1697" style="stop-color:#C71B1E"/>
						<stop  offset="0.1813" style="stop-color:#B71D2E"/>
						<stop  offset="0.2056" style="stop-color:#8F2D65"/>
						<stop  offset="0.2142" style="stop-color:#803379"/>
						<stop  offset="0.2436" style="stop-color:#7E337A"/>
						<stop  offset="0.2638" style="stop-color:#683383"/>
						<stop  offset="0.2911" style="stop-color:#353F87"/>
						<stop  offset="0.3242" style="stop-color:#103777"/>
						<stop  offset="0.4181" style="stop-color:#302A6A"/>
						<stop  offset="0.494" style="stop-color:#24327F"/>
						<stop  offset="0.5581" style="stop-color:#1D5D96"/>
						<stop  offset="0.5876" style="stop-color:#3278A2"/>
						<stop  offset="0.632" style="stop-color:#4F9AB0"/>
						<stop  offset="0.6556" style="stop-color:#5BA6B5"/>
						<stop  offset="0.6714" style="stop-color:#55A5B4"/>
						<stop  offset="0.6916" style="stop-color:#449DB1"/>
						<stop  offset="0.7142" style="stop-color:#2D93AB"/>
						<stop  offset="0.7384" style="stop-color:#1785A4"/>
						<stop  offset="0.7426" style="stop-color:#0C83A3"/>
						<stop  offset="0.8342" style="stop-color:#0F916D"/>
						<stop  offset="0.8875" style="stop-color:#1B994B"/>
						<stop  offset="1" style="stop-color:#088B79"/>
					</linearGradient>
					<rect x="-18.4" class="st1" width="50.6" height="103.7"/>
					<g>
						
							<linearGradient id="SVGID_4_" gradientUnits="userSpaceOnUse" x1="-1149.9373" y1="-1304.7778" x2="-1161.192" y2="-1304.7778" gradientTransform="matrix(0 -1.1359 1.1359 0 1501.6572 -1232.0985)">
							<stop  offset="0" style="stop-color:#813379"/>
							<stop  offset="0.3354" style="stop-color:#813379"/>
							<stop  offset="0.7165" style="stop-color:#862A55"/>
							<stop  offset="1" style="stop-color:#89243E"/>
							<stop  offset="1" style="stop-color:#89243E"/>
						</linearGradient>
						<polygon class="st2" points="32.2,86.9 32.2,74.1 6.9,78.5 						"/>
						
							<linearGradient id="SVGID_5_" gradientUnits="userSpaceOnUse" x1="-1130.0624" y1="-1338.077" x2="-1134.7542" y2="-1308.7393" gradientTransform="matrix(0 -1.1359 1.1359 0 1501.6572 -1232.0985)">
							<stop  offset="0" style="stop-color:#302A6A"/>
							<stop  offset="0.2427" style="stop-color:#302A6A"/>
							<stop  offset="0.4514" style="stop-color:#2A2C6E"/>
							<stop  offset="0.697" style="stop-color:#193678"/>
							<stop  offset="0.9604" style="stop-color:#004389"/>
							<stop  offset="1" style="stop-color:#00468B"/>
						</linearGradient>
						<polygon class="st3" points="-18.4,52.3 -18.4,58.8 6.9,62.3 32.2,59.1 32.2,52.3 						"/>
						
							<linearGradient id="SVGID_6_" gradientUnits="userSpaceOnUse" x1="-1153.851" y1="-1315.9147" x2="-1143.9104" y2="-1315.9147" gradientTransform="matrix(0 -1.1359 1.1359 0 1501.6572 -1232.0985)">
							<stop  offset="0" style="stop-color:#683383"/>
							<stop  offset="1" style="stop-color:#373F87"/>
						</linearGradient>
						<polygon class="st4" points="-18.4,73.7 -18.4,73.7 6.9,78.5 32.2,74.1 6.9,67.3 						"/>
						
							<linearGradient id="SVGID_7_" gradientUnits="userSpaceOnUse" x1="-1136.4658" y1="-1315.9147" x2="-1149.9331" y2="-1315.9147" gradientTransform="matrix(0 -1.1359 1.1359 0 1501.6572 -1232.0985)">
							<stop  offset="0" style="stop-color:#103777"/>
							<stop  offset="0.2156" style="stop-color:#163778"/>
							<stop  offset="0.4705" style="stop-color:#22377B"/>
							<stop  offset="0.7443" style="stop-color:#3C377D"/>
							<stop  offset="1" style="stop-color:#573780"/>
						</linearGradient>
						<polygon class="st5" points="-18.4,58.8 -18.4,73.7 6.9,67.3 32.2,74.1 32.2,59.1 6.9,62.3 						"/>
						<polygon class="st6" points="-18.4,87 -18.4,95.7 -2.7,95.7 6.9,90.8 16.5,95.7 32.2,95.7 32.2,86.9 6.9,90 						"/>
						
							<linearGradient id="SVGID_8_" gradientUnits="userSpaceOnUse" x1="-1149.4297" y1="-1327.052" x2="-1161.5975" y2="-1327.052" gradientTransform="matrix(0 -1.1359 1.1359 0 1501.6572 -1232.0985)">
							<stop  offset="0" style="stop-color:#813379"/>
							<stop  offset="0.3354" style="stop-color:#813379"/>
							<stop  offset="0.7165" style="stop-color:#862A55"/>
							<stop  offset="1" style="stop-color:#89243E"/>
							<stop  offset="1" style="stop-color:#89243E"/>
						</linearGradient>
						<polygon class="st7" points="-18.4,73.7 -18.4,87 6.9,78.5 						"/>
						<polygon class="st8" points="6.9,90.8 -2.7,95.7 16.5,95.7 						"/>
						<polygon class="st10" points="-2.7,95.7 -18.4,103.7 32.2,103.7 16.5,95.7 						"/>
						<polygon class="st11" points="-18.4,87 6.9,90 32.2,86.9 6.9,78.5 						"/>
						
							<linearGradient id="SVGID_9_" gradientUnits="userSpaceOnUse" x1="-1096.4906" y1="-1338.189" x2="-1096.4906" y2="-1293.6405" gradientTransform="matrix(0 -1.1359 1.1359 0 1501.6572 -1232.0985)">
							<stop  offset="0" style="stop-color:#8EB555"/>
							<stop  offset="0.2993" style="stop-color:#89B564"/>
							<stop  offset="0.6727" style="stop-color:#81B370"/>
							<stop  offset="1" style="stop-color:#7FB376"/>
						</linearGradient>
						<path class="st12" d="M24.5,11.7c-4.2-0.2-9-1.4-14.1-2.7C9.5,8.9,8.7,8.6,7.8,8.4C6.9,8.6,6,8.9,5.2,9
							c-5.5,1.2-10.7,2.4-15.2,2.7c-3.5,0.2-6.1-0.2-8.3-1.3V17c3,1.1,4.8,1.5,8.3,1.3c4.5-0.2,9.7-1.4,15.2-2.7
							c8.1-1.8,17.5-4,27.1-3.3v-1.8C30.1,11.5,27.7,11.9,24.5,11.7z"/>
						
							<linearGradient id="SVGID_10_" gradientUnits="userSpaceOnUse" x1="-1109.1931" y1="-1337.6887" x2="-1097.6925" y2="-1294.1613" gradientTransform="matrix(0 -1.1359 1.1359 0 1501.6572 -1232.0985)">
							<stop  offset="0" style="stop-color:#199A4A"/>
							<stop  offset="0.2661" style="stop-color:#1B9851"/>
							<stop  offset="0.6408" style="stop-color:#0D9362"/>
							<stop  offset="1" style="stop-color:#088D79"/>
						</linearGradient>
						<path class="st13" d="M5.1,15.6c-5.5,1.2-10.7,2.4-15.2,2.7c-3.5,0.2-5.3-0.2-8.3-1.3v5.1c8.9-0.8,17.6,0.6,27.5,1.9
							c5.8,0.8,11.7,1.7,16.6,1.9c3.5,0.1,5.4,0,6.4-0.3V12.2C22.6,11.6,13.2,13.8,5.1,15.6z"/>
						<path class="st14" d="M7.9,8.4C8.7,8.6,9.6,8.8,10.4,9c5.1,1.2,9.9,2.4,14.1,2.7c3.2,0.2,5.6-0.2,7.8-1.3V5.7
							C23.7,5.1,15.3,6.7,7.9,8.4z"/>
						
							<linearGradient id="SVGID_11_" gradientUnits="userSpaceOnUse" x1="-1088.387" y1="-1338.1813" x2="-1088.387" y2="-1293.6338" gradientTransform="matrix(0 -1.1359 1.1359 0 1501.6572 -1232.0985)">
							<stop  offset="0" style="stop-color:#68995E"/>
							<stop  offset="3.505770e-03" style="stop-color:#65995E"/>
							<stop  offset="0.1504" style="stop-color:#4E9151"/>
							<stop  offset="0.309" style="stop-color:#378A46"/>
							<stop  offset="0.4853" style="stop-color:#2D863E"/>
							<stop  offset="0.6916" style="stop-color:#25843A"/>
							<stop  offset="1" style="stop-color:#20833B"/>
						</linearGradient>
						<path class="st15" d="M-18.4,6.1C-9.2,4.6-0.2,6.5,7.8,8.4c7.5-1.7,15.8-3.3,24.3-2.7V0h-50.6L-18.4,6.1L-18.4,6.1z"/>
						
							<linearGradient id="SVGID_12_" gradientUnits="userSpaceOnUse" x1="-1108.6473" y1="-1338.189" x2="-1108.6473" y2="-1293.6405" gradientTransform="matrix(0 -1.1359 1.1359 0 1501.6572 -1232.0985)">
							<stop  offset="0" style="stop-color:#1BA9CE"/>
							<stop  offset="0.2751" style="stop-color:#19A4C7"/>
							<stop  offset="0.6717" style="stop-color:#1495B7"/>
							<stop  offset="1" style="stop-color:#1083A4"/>
						</linearGradient>
						<path class="st16" d="M25.8,25.9c-4.8-0.2-10.8-1.1-16.6-1.9c-9.9-1.4-18.6-2.8-27.5-1.9v10.2c1.9,0.2,3.2,0.4,6.9,0.3
							c5.2-0.2,11.6-1.1,17.9-1.9c9.1-1.2,18-2.4,25.8-2.2v-2.8C31.1,25.9,29.2,26.1,25.8,25.9z"/>
						<polygon class="st17" points="-18.4,52.3 32.2,52.3 6.9,49.8 						"/>
						
							<linearGradient id="SVGID_13_" gradientUnits="userSpaceOnUse" x1="-1096.7404" y1="-1319.9796" x2="-1090.15" y2="-1331.7361" gradientTransform="matrix(0 -1.1359 1.1359 0 1501.6572 -1232.0985)">
							<stop  offset="0" style="stop-color:#61A96B"/>
							<stop  offset="1" style="stop-color:#80B157"/>
						</linearGradient>
						<path class="st18" d="M-10,11.7c4.5-0.2,9.7-1.4,15.2-2.7c0.9-0.2,1.8-0.4,2.7-0.6c-8-1.9-17.1-3.8-26.2-2.3v4.2
							C-16.2,11.5-13.5,11.9-10,11.7z"/>
						
							<linearGradient id="SVGID_14_" gradientUnits="userSpaceOnUse" x1="-1122.241" y1="-1337.1299" x2="-1110.5413" y2="-1293.4662" gradientTransform="matrix(0 -1.1359 1.1359 0 1501.6572 -1232.0985)">
							<stop  offset="0" style="stop-color:#1890C4"/>
							<stop  offset="0.2238" style="stop-color:#1B94C2"/>
							<stop  offset="0.6535" style="stop-color:#389EBC"/>
							<stop  offset="1" style="stop-color:#5AA7B6"/>
						</linearGradient>
						<path class="st19" d="M6.4,30.6c-6.2,0.8-12.7,1.7-17.9,1.9c-3.7,0.1-5,0-6.9-0.3v6c6.6-0.2,14.1,0.2,26.5,1
							c7.2,0.5,18.2,1.2,24,1V28.4C24.3,28.2,15.5,29.4,6.4,30.6z"/>
						
							<linearGradient id="SVGID_15_" gradientUnits="userSpaceOnUse" x1="-1127.1868" y1="-1338.189" x2="-1127.1868" y2="-1293.6405" gradientTransform="matrix(0 -1.1359 1.1359 0 1501.6572 -1232.0985)">
							<stop  offset="0" style="stop-color:#144087"/>
							<stop  offset="0.3971" style="stop-color:#1D5194"/>
							<stop  offset="1" style="stop-color:#3274AD"/>
						</linearGradient>
						<polygon class="st20" points="-18.4,52.3 6.9,49.8 32.2,52.3 32.2,44.3 -18.4,44.2 						"/>
						
							<linearGradient id="SVGID_16_" gradientUnits="userSpaceOnUse" x1="-1120.9308" y1="-1293.6405" x2="-1120.9308" y2="-1338.189" gradientTransform="matrix(0 -1.1359 1.1359 0 1501.6572 -1232.0985)">
							<stop  offset="0" style="stop-color:#4091BD"/>
							<stop  offset="1" style="stop-color:#1D5D97"/>
						</linearGradient>
						<path class="st21" d="M8.1,39.2c-12.4-0.8-19.9-1.2-26.5-1v6h50.6v-4.1C26.4,40.3,15.4,39.6,8.1,39.2z"/>
					</g>
				</g>
			</g>
		</g>
	</g>
</g>
</svg>
