<?xml version="1.0" encoding="utf-8"?>
<!-- Generator: Adobe Illustrator 22.0.1, SVG Export Plug-In . SVG Version: 6.00 Build 0)  -->
<svg version="1.1" id="圖層_2" xmlns="http://www.w3.org/2000/svg" xmlns:xlink="http://www.w3.org/1999/xlink" x="0px" y="0px"
	 viewBox="0 0 56.4 55.2" style="enable-background:new 0 0 56.4 55.2;" xml:space="preserve">
<style type="text/css">
	.st0{fill-rule:evenodd;clip-rule:evenodd;fill:#83B87C;}
</style>
<g id="圖層_2">
	<g>
		<g id="list_w_image_10_">
			<g>
				<path class="st0" d="M13.1,0H1.9C0.8,0,0,0.8,0,1.9v11c0,1,0.8,1.9,1.9,1.9h11.2c1,0,1.9-0.8,1.9-1.9v-11C15,0.8,14.1,0,13.1,0z
					 M13.1,20.4H1.9c-1,0-1.9,0.8-1.9,1.9V33c0,1,0.8,1.9,1.9,1.9h11.2c1,0,1.9-0.8,1.9-1.9V22.2C15,21.2,14.1,20.4,13.1,20.4z
					 M13.1,40.5H1.9c-1,0-1.9,0.8-1.9,1.9v11c0,1,0.8,1.9,1.9,1.9h11.2c1,0,1.9-0.8,1.9-1.9v-11C15,41.3,14.1,40.5,13.1,40.5z
					 M54.5,0H22c-1,0-1.9,0.8-1.9,1.9v11c0,1,0.8,1.9,1.9,1.9h32.5c1,0,1.9-0.8,1.9-1.9v-11C56.4,0.8,55.5,0,54.5,0z M54.5,20.4H22
					c-1,0-1.9,0.8-1.9,1.9V33c0,1,0.8,1.9,1.9,1.9h32.5c1,0,1.9-0.8,1.9-1.9V22.2C56.4,21.2,55.5,20.4,54.5,20.4z M54.5,40.5H22
					c-1,0-1.9,0.8-1.9,1.9v11c0,1,0.8,1.9,1.9,1.9h32.5c1,0,1.9-0.8,1.9-1.9v-11C56.4,41.3,55.5,40.5,54.5,40.5z"/>
			</g>
		</g>
	</g>
</g>
</svg>
