<?xml version="1.0" encoding="utf-8"?>
<!-- Generator: Adobe Illustrator 22.0.1, SVG Export Plug-In . SVG Version: 6.00 Build 0)  -->
<svg version="1.1" id="圖層_2" xmlns="http://www.w3.org/2000/svg" xmlns:xlink="http://www.w3.org/1999/xlink" x="0px" y="0px"
	 viewBox="0 0 297.3 53.8" style="enable-background:new 0 0 297.3 53.8;" xml:space="preserve">
<style type="text/css">
	.st0{fill:#19306E;}
	.st1{fill-rule:evenodd;clip-rule:evenodd;fill:#83B87C;}
</style>
<g>
	<g>
		<path class="st0" d="M53,19l-2.5,4.8c-1.5-0.3-3.3-0.8-5.2-1.5v22.6H20l2.6,3c-5.6,2.6-12.3,4.5-20,5.8L0,48.8
			c5.7-0.7,11.2-2,16.4-4H7.6V22.1h11.3l-2.3-3.3c7-1.8,12.2-4.9,15.7-9.3l5.4,1.2c-0.6,1.1-1,1.7-1.3,2C40.7,15.5,46.2,17.5,53,19z
			 M17.9,17.3H0.5v-4.9h17.5V17.3z M17.4,7.7H1.3V2.9h16.1V7.7z M39.9,28.5v-2.1H13.2v2.1H39.9z M39.9,34.6v-2.2H13.2v2.2H39.9z
			 M39.9,40.9v-2.3H13.2v2.3H39.9z M52,8.4c-1.9,2.7-3.6,4.9-5.2,6.7l-4.5-2.7c0.5-0.6,1.6-1.9,3.2-4H26.5c-1.8,2.1-3.6,3.9-5.3,5.3
			l-4.1-3.5c3.1-2.2,6.1-5.6,8.9-10.2L31,1.7c-0.2,0.7-0.6,1.4-1.1,2.1H52V8.4z M44.7,22.1c-4-1.3-7.9-3.2-11.7-5.8
			c-2.5,2.3-5.8,4.2-9.8,5.8H44.7z M52.7,49.2l-2.9,4.6c-5.2-1.7-11.1-2.9-17.6-3.7l2.8-4.5C41.3,46.2,47.2,47.4,52.7,49.2z"/>
		<path class="st0" d="M79.7,10.6H60.3V5.8H68c-0.3-0.9-0.9-2.2-1.9-3.7l5.3-2c1.1,2,1.9,3.9,2.6,5.7h5.8V10.6z M78.4,19.5H61.7
			v-4.8h16.7V19.5z M78.4,28.3H61.7v-4.7h16.7V28.3z M78.5,51.7h-5.3V49h-6.3v4.1h-5.2V32.3h16.8V51.7z M73.2,44v-6.8h-6.3V44H73.2z
			 M113.2,39.1c-0.3,3.1-0.8,6-1.6,8.5c-0.8,2.6-1.6,4.2-2.3,4.8c-0.8,0.6-1.6,1-2.6,1c-1.2,0-2.2-0.5-3.1-1.4
			c-0.9-0.9-1.7-3.6-2.5-8c-0.8-4.5-1.2-8.5-1.2-12V7h-8.1v16.2h6.4v5.2h-6.4v24.8h-5.2V28.3h-5.6v-5.2h5.6V7h-4.9v-5h23.3v31.3
			c0,4.6,0.6,9.1,1.9,13.5c0.7-2.7,1.2-6.2,1.4-10.5L113.2,39.1z"/>
		<path class="st0" d="M169.7,35.7h-20.6V53h-5.5V35.7h-20.5V10.4h20.5V0.7h5.5v9.6h20.6V35.7z M143.6,30.4V15.6h-14.9v14.8H143.6z
			 M164.2,30.4V15.6h-15.1v14.8H164.2z"/>
		<path class="st0" d="M191.9,19.9c-1.9,11.5-4.3,20.6-7.3,27.1l-4.9-2.9c3.4-7.7,5.7-16.2,6.8-25.3L191.9,19.9z M221,35.3
			c-0.1,3.8-0.3,6.9-0.6,9.3c-0.3,2.3-0.7,3.9-1.2,4.6c-0.5,0.7-1.2,1.4-2.1,2.1c-0.9,0.7-2.3,1.1-4,1.2c-1.7,0.1-3.6,0.2-5.5,0.2
			c-2.2,0-4.2-0.1-6.1-0.2c-1.9-0.2-3.2-0.5-3.8-0.9c-0.6-0.4-1.1-1.1-1.5-1.8c-0.4-0.8-0.6-1.7-0.6-2.8V13.6h5.4v31.8
			c0,1.4,0.9,2.1,2.6,2.1c1.7-0.1,4.7-0.1,8.8-0.1c0.6,0,1.3-0.2,1.9-0.6c0.6-0.4,1.1-2.2,1.3-5.3c0.2-3.1,0.3-5.6,0.3-7.7L221,35.3
			z M216.2,16.8l-4.6,3.3c-3.1-5.7-7.2-11.2-12.4-16.5l3.8-3.3C207.9,4.9,212.3,10.4,216.2,16.8z M232.9,42.7l-5.2,2.5
			c-1.9-8-5-15.8-9.2-23.5l4.7-2.5C227.9,28,231.1,35.9,232.9,42.7z"/>
	</g>
</g>
<path id="support_2_" class="st1" d="M291.5,29.3c-0.4,2.2-1.3,3.8-2.5,5.1c1.4,6.4,3,7.9,4.5,8.3c-0.4,0.6-8.5,3-12-1.6
	c-2.4,3.1-5.2,5.1-8,5.1c-2.6,0-5.3-1.7-7.6-4.5c-3.8,3.8-11.5,1-11.5,1s3.4-1.6,4.8-15c-0.5-2.1-0.8-4.3-0.8-6.3
	c0-11,7.9-15.2,15.2-15.2c7.3,0,14.8,4.1,14.8,15.2c0,1.7-0.2,3.5-0.5,5.3c0.2,2,0.5,3.7,0.7,5.2c0.5-0.8,1-1.8,1.3-2.9
	c-0.3-0.1-0.6-0.2-0.9-0.4c0.9-2.1,1.3-4.4,1.3-6.8c0-2.2-0.4-4.3-1.1-6.2c0.4-0.2,0.7-0.3,1.1-0.4c-1.9-6.5-8.8-11.3-17-11.3v0
	c0,0,0,0,0,0c0,0,0,0,0,0v0c-4.1,0-7.9,1.2-10.8,3.2c0,0,0,0-0.1,0c-0.3,0.2-0.7,0.5-1,0.7c0,0-0.1,0.1-0.1,0.1
	c-0.3,0.2-0.6,0.5-0.9,0.8c-0.1,0.1-0.1,0.1-0.2,0.2c-0.2,0.2-0.5,0.5-0.7,0.7c-0.1,0.1-0.2,0.2-0.2,0.3c-0.2,0.2-0.4,0.5-0.6,0.7
	c-0.1,0.1-0.2,0.3-0.3,0.4c-0.1,0.2-0.3,0.4-0.4,0.6c-0.1,0.2-0.2,0.4-0.3,0.5c-0.1,0.2-0.2,0.4-0.3,0.6c-0.1,0.2-0.2,0.5-0.3,0.7
	c-0.1,0.1-0.1,0.3-0.2,0.4c-0.2,0.4-0.3,0.8-0.4,1.2c0.4,0.1,0.8,0.2,1.1,0.4c-0.7,1.9-1.1,4-1.1,6.2c0,2.4,0.5,4.7,1.3,6.8
	c-0.8,0.4-1.6,0.7-2.5,0.7c-3.2,0-5.9-3.2-5.9-7.2c0-3.5,2.1-6.5,4.9-7c2-7.5,9.8-13,19.1-13c0,0,0,0,0,0c0,0,0,0,0,0
	c9.3,0,17.1,5.6,19.1,13c2.8,0.6,4.9,3.5,4.9,7C297.3,26,294.7,29.2,291.5,29.3z M286.2,23c-0.2-0.1-0.5-0.1-0.7-0.2
	c-0.1,0-0.1,0-0.2-0.1c-0.2-0.1-0.5-0.2-0.8-0.3c0,0-0.1,0-0.1,0c-0.3-0.1-0.6-0.3-0.9-0.5c-0.1,0-0.2-0.1-0.2-0.1
	c-0.3-0.2-0.6-0.4-0.9-0.6c0,0-0.1,0-0.1-0.1c-0.3-0.2-0.6-0.5-1-0.8c-0.1-0.1-0.2-0.2-0.2-0.2c-0.3-0.3-0.6-0.6-0.9-1
	c0,0,0,0-0.1-0.1c-0.3-0.4-0.6-0.8-0.9-1.2c-0.1-0.1-0.1-0.2-0.2-0.3c-0.3-0.5-0.5-1-0.7-1.5c-2.6,7.6-8.3,8-8.3,8s2.6-3.2,2.1-9.3
	c-0.2,0.5-0.4,0.9-0.7,1.3c-0.1,0.1-0.2,0.3-0.2,0.4c-0.2,0.3-0.4,0.6-0.5,0.9c-0.1,0.1-0.2,0.3-0.3,0.4c-0.2,0.3-0.4,0.6-0.6,0.9
	c-0.1,0.1-0.2,0.2-0.2,0.3c-0.6,0.8-1.2,1.4-1.8,2.1c-0.1,0.1-0.2,0.2-0.2,0.2c-0.2,0.2-0.5,0.5-0.7,0.7c-0.1,0.1-0.2,0.2-0.3,0.2
	c-0.3,0.2-0.5,0.4-0.8,0.6c-0.1,0.1-0.1,0.1-0.2,0.2c-0.3,0.3-0.6,0.5-0.9,0.7c0,0,0,0-0.1,0c-0.3,0.2-0.6,0.4-0.8,0.6
	c-0.1,0.1-0.2,0.1-0.3,0.2c-0.2,0.1-0.4,0.2-0.5,0.4c-0.1,0.1-0.2,0.1-0.3,0.2c-0.2,0.1-0.3,0.2-0.4,0.3c-0.1,0.1-0.2,0.1-0.3,0.2
	c-0.1,0.1-0.2,0.1-0.3,0.1c-0.3,0.2-0.6,0.3-0.8,0.5c1.5,8.5,7.3,17.3,12.7,17.3c2.6,0,5.2-2,7.3-4.9c-1.2,0.2-2.4,0.4-3.2,0.4
	c-0.4,0.8-1.2,1.4-2.2,1.4c-1.3,0-2.4-1.1-2.4-2.4c0-1.3,1.1-2.4,2.4-2.4c1.1,0,2,0.7,2.3,1.6c1.2-0.1,2.8-0.2,4.5-0.7
	C284.4,32.4,286,27.5,286.2,23L286.2,23z M279.1,26.3c2.1,0,3.9,1.2,4.2,2.8h-8.4C275.2,27.5,277,26.3,279.1,26.3z M268.1,26.3
	c2.1,0,3.9,1.2,4.2,2.8h-8.4C264.2,27.5,266,26.3,268.1,26.3z"/>
</svg>
