<?xml version="1.0" encoding="utf-8"?>
<!-- Generator: Adobe Illustrator 22.1.0, SVG Export Plug-In . SVG Version: 6.00 Build 0)  -->
<svg version="1.1" id="圖層_1" xmlns="http://www.w3.org/2000/svg" xmlns:xlink="http://www.w3.org/1999/xlink" x="0px" y="0px"
	 viewBox="0 0 402.2 104.4" style="enable-background:new 0 0 402.2 104.4;" xml:space="preserve">
<style type="text/css">
	.st0{fill:#FFFFFF;}
	.st1{fill:#19306F;}
	.st2{fill:#19306E;}
	.st3{fill:#B81C25;}
</style>
<g>
	<rect class="st0" width="402.2" height="104.4"/>
	<g>
		<g>
			<path class="st1" d="M108.5,51.8l7.5-0.8c0.5,2.4,1.4,4.3,2.6,5.3c1.4,1.2,3.2,1.7,5.5,1.7c2.4,0,4.3-0.5,5.5-1.5
				c1.2-1.1,1.8-2.3,1.8-3.7c0-0.9-0.2-1.5-0.8-2.3c-0.6-0.8-1.4-1.2-2.7-1.5c-0.9-0.3-2.9-0.9-6.1-1.5c-4-0.9-6.9-2.3-8.5-3.7
				c-2.3-2-3.5-4.6-3.5-7.5c0-1.8,0.5-3.7,1.5-5.3c1.1-1.7,2.6-2.9,4.7-3.8s4.4-1.2,7.5-1.2c4.7,0,8.2,1.1,10.5,3
				c2.3,2,3.7,4.7,3.7,8.2l-7.5,0.3c-0.3-1.8-1.1-3.2-2.1-4.1c-1.1-0.9-2.6-1.2-4.7-1.2c-2.3,0-4,0.5-5.2,1.4
				c-0.9,0.5-1.2,1.4-1.2,2.3c0,0.9,0.5,1.7,1.2,2.3c0.9,0.9,3.2,1.5,7,2.6c3.7,0.9,6.4,1.8,8.1,2.6c1.8,0.9,3.2,2.3,4.1,3.8
				c0.9,1.5,1.5,3.7,1.5,5.9c0,2.1-0.6,4.1-1.8,6.1c-1.2,1.8-2.9,3.2-5,4.1c-2.3,0.9-4.9,1.4-8.1,1.4c-4.7,0-8.4-1.1-10.8-3.2
				C110.5,59.2,109,56,108.5,51.8z"/>
			<path class="st1" d="M145.3,64V26.7h7.5v14.6h14.8V26.7h7.5V64h-7.5V47.7h-14.8V64H145.3z"/>
			<path class="st1" d="M216.8,64h-8.2l-3.2-8.4h-14.9l-3,8.4h-8.1l14.6-37.3h8.1L216.8,64z M202.7,49.2l-5-14l-5,13.9L202.7,49.2
				L202.7,49.2z"/>
			<path class="st1" d="M220.9,64V27h7.5v30.8h18.7v6.4h-26.2V64z"/>
			<path class="st1" d="M286.4,64h-8.2l-3.2-8.4h-15.1l-3,8.4h-8.1l14.6-37.3h8.1L286.4,64z M272.4,49.2l-5-14l-5,14H272.4z"/>
			<path class="st1" d="M290.4,64V26.7h15.9c4,0,6.9,0.3,8.7,1.1c1.8,0.6,3.2,1.8,4.3,3.7c1.1,1.7,1.5,3.7,1.5,5.9
				c0,2.9-0.9,5-2.4,7c-1.7,1.8-4.1,2.9-7.5,3.5c1.5,0.9,2.9,2,4,3.2c1.1,1.2,2.6,3.2,4.3,6.1l4.6,7.3h-9l-5.5-8.1
				c-1.8-2.9-3.2-4.7-4-5.5c-0.8-0.8-1.5-1.2-2.3-1.5c-0.9-0.3-2.1-0.5-3.8-0.5h-1.5v15.7L290.4,64L290.4,64z M298,42.4h5.6
				c3.7,0,5.9-0.2,6.7-0.5c0.9-0.3,1.5-0.9,2.1-1.5c0.5-0.8,0.8-1.7,0.8-2.9c0-1.2-0.3-2.3-1.1-3c-0.6-0.8-1.5-1.2-2.9-1.5
				c-0.6-0.2-2.4-0.2-5.5-0.2h-5.9L298,42.4L298,42.4z"/>
			<path class="st1" d="M328,64V26.7h11.3l6.7,25.5l6.7-25.5H364V64h-7V34.6L349.5,64h-7.3l-7.5-29.4V64H328z"/>
		</g>
		<g>
			<path class="st2" d="M115.4,70.4l0.2-0.5c0.9-0.2,1.8-0.2,2.9-0.5c-0.3,0.9-0.6,1.8-0.9,2.9l-0.8,3.2c-0.5,2.3-1.2,4-1.8,5.2
				c0.6,0.2,1.2,0.2,1.7,0.2c1.4,0,2.4-0.3,3.5-0.9c0.9-0.5,1.8-1.4,2.3-2.4c0.5-1.1,0.9-2.3,0.9-3.5c0-1.7-0.5-3-1.5-4.1
				c-0.9-1.1-2.3-1.5-3.8-1.5c-1.4,0-2.6,0.3-3.8,0.9s-2.1,1.5-2.9,2.6c-0.8,1.1-1.1,2.1-1.1,3s0.5,1.7,1.2,2.1
				c0.2,0.2,0.5,0.2,0.5,0.3c0.2,0.2,0.2,0.2,0.2,0.3c0,0.2-0.2,0.3-0.2,0.5c-0.2,0.2-0.3,0.2-0.5,0.2c-0.5,0-0.9-0.2-1.2-0.9
				c-0.5-0.8-0.8-1.5-0.8-2.3c0-1.2,0.5-2.6,1.2-3.8s1.8-2.3,3.2-2.9c1.4-0.8,2.9-1.1,4.7-1.1c2.1,0,3.7,0.5,5,1.7
				c1.2,1.2,1.8,2.6,1.8,4.3c0,1.5-0.5,2.9-1.2,4.3c-0.9,1.2-1.8,2.3-3.2,2.9c-1.2,0.5-2.4,0.9-3.7,0.9c-0.5,0-1.1,0-2-0.2
				c-0.9-0.2-1.5-0.2-2.3-0.2c-0.3,0-0.9,0-1.5,0l0.2-0.5c0.8,0,1.2-0.2,1.2-0.2c0.2-0.2,0.3-0.2,0.5-0.5c0.2-0.3,0.5-1.1,0.9-2.3
				l0.8-2.9l0.9-3.7c0-0.2,0.2-0.3,0.2-0.5c0-0.2,0-0.2-0.2-0.3c-0.2-0.2-0.2-0.2-0.3-0.2C115.7,70.4,115.7,70.4,115.4,70.4z"/>
			<path class="st2" d="M139.2,78.5l0.5,0.5c-1.8,1.8-3.5,2.6-4.7,2.6c-0.5,0-0.9-0.2-1.2-0.5c-0.3-0.3-0.5-0.9-0.5-1.8
				c0-1.5,0.5-3.2,1.5-4.9c1.1-1.8,2.4-2.7,4-2.7c0.5,0,0.9,0.2,1.2,0.5c0.3,0.3,0.5,0.6,0.5,1.1c0,0.5-0.2,0.9-0.5,1.5
				c-0.3,0.5-0.9,0.9-1.8,1.5c-0.5,0.2-1.4,0.8-2.9,1.4c-0.2,0.5-0.2,0.9-0.2,1.2c0,0.5,0.2,0.9,0.2,1.2c0.2,0.2,0.5,0.3,0.8,0.3
				s0.6-0.2,1.1-0.2C137.5,79.7,138.3,79.1,139.2,78.5z M135.2,76.8c1.2-0.5,2.1-1.2,2.7-1.8c0.5-0.5,0.6-0.9,0.6-1.2
				c0-0.3-0.2-0.6-0.2-0.8c-0.2-0.2-0.5-0.3-0.6-0.3c-0.3,0-0.5,0.2-0.9,0.3c-0.3,0.3-0.6,0.8-0.9,1.2
				C135.7,75.2,135.4,76.1,135.2,76.8z"/>
			<path class="st2" d="M153.2,71.8c0.6,0,1.2,0.2,1.5,0.5c0.3,0.2,0.5,0.5,0.5,0.9c0,0.2-0.2,0.5-0.2,0.5c-0.2,0.2-0.3,0.2-0.5,0.2
				s-0.3,0-0.5-0.2c-0.2-0.2-0.2-0.2-0.5-0.5c-0.3-0.5-0.8-0.8-1.1-0.8s-0.6,0.2-0.9,0.3c-0.2,0.2-0.3,0.5-0.3,0.9s0.2,0.6,0.2,0.9
				c0.2,0.3,0.5,0.8,1.2,1.4c0.9,0.9,1.2,1.7,1.2,2.6s-0.3,1.5-1.1,2.1c-0.6,0.6-1.5,0.9-2.6,0.9c-0.9,0-1.5-0.2-2-0.5
				c-0.5-0.3-0.6-0.9-0.6-1.4c0-0.2,0.2-0.5,0.2-0.6c0.2-0.2,0.5-0.2,0.6-0.2c0.2,0,0.5,0.2,0.5,0.2c0.2,0.2,0.2,0.3,0.2,0.5
				c0,0.2,0,0.2,0,0.3c0,0.2,0,0.2,0,0.2c0,0.2,0.2,0.5,0.3,0.6c0.2,0.2,0.5,0.2,0.9,0.2s0.8-0.2,1.1-0.2c0.3-0.2,0.5-0.3,0.8-0.6
				c0.2-0.3,0.2-0.5,0.2-0.9c0-0.3-0.2-0.5-0.2-0.9c-0.2-0.3-0.5-0.8-1.1-1.4c-0.8-0.9-1.2-1.7-1.2-2.6c0-0.8,0.3-1.4,0.9-1.8
				C151.5,72.1,152.3,71.8,153.2,71.8z"/>
			<path class="st2" d="M162.9,74.4l-0.5-0.5c0.8-0.9,1.5-1.4,2.1-1.8c0.6-0.3,1.2-0.5,1.5-0.5c0.2,0,0.5,0,0.5,0.2
				c0.2,0.2,0.2,0.2,0.2,0.5s-0.2,1.2-0.8,2.7c-0.9,2.6-1.2,4.3-1.2,4.9c0,0.2,0,0.2,0.2,0.3c0,0.2,0.2,0.2,0.2,0.2
				c0.2,0,0.9-0.5,1.8-1.4l0.5,0.5c-1.1,0.9-1.8,1.5-2.3,1.8c-0.5,0.3-0.9,0.5-1.2,0.5c-0.3,0-0.5-0.2-0.6-0.2
				c-0.2-0.2-0.2-0.5-0.2-0.8c0-0.9,0.5-3.2,1.7-7c0-0.2,0.2-0.3,0.2-0.5c0-0.2-0.2-0.2-0.2-0.2c-0.2,0-0.3,0.2-0.5,0.2
				C164,73.3,163.6,73.8,162.9,74.4z M167.4,66.9c0.2,0,0.5,0.2,0.5,0.2c0.2,0.2,0.2,0.3,0.2,0.6s-0.2,0.6-0.3,0.9
				c-0.2,0.2-0.5,0.5-0.8,0.5c-0.2,0-0.5-0.2-0.5-0.2c-0.2-0.2-0.2-0.3-0.2-0.6c0-0.3,0.2-0.6,0.3-0.9
				C166.8,67.1,167.1,66.9,167.4,66.9z"/>
			<path class="st2" d="M182.8,71.7l0.9-0.2c-0.5,1.8-1.1,3.7-1.5,5.3c-0.3,1.2-0.5,2.3-0.8,3.2c-0.2,0.5-0.2,0.9-0.2,1.5
				c0,1.1-0.2,2-0.3,2.6c-0.3,0.9-0.9,1.7-1.8,2.3c-0.9,0.5-1.8,0.9-3,0.9c-1.1,0-1.8-0.2-2.4-0.8c-0.6-0.5-0.9-1.1-0.9-1.7
				s0.2-1.2,0.8-1.7c0.3-0.5,1.1-0.9,2.3-1.5c0.5-0.3,1.1-0.6,1.5-0.9c-0.5,0.3-0.9,0.5-1.2,0.5c-0.3,0-0.5-0.2-0.8-0.5
				c-0.2-0.2-0.3-0.6-0.3-1.1c0-1.4,0.5-2.7,1.2-4.1c0.8-1.4,1.8-2.4,2.9-3c0.8-0.5,1.5-0.6,2.7-0.6
				C182.3,71.8,182.6,71.8,182.8,71.7L182.8,71.7z M179.9,79.6c-0.5,0.5-1.5,1.2-2.9,2.3c-1.2,0.9-2.1,1.5-2.4,1.8
				c-0.3,0.5-0.5,0.9-0.5,1.2c0,0.5,0.2,0.9,0.5,1.2c0.5,0.3,0.9,0.5,1.4,0.5s1.1-0.2,1.5-0.5c0.5-0.2,0.9-0.6,1.2-1.1
				c0.3-0.5,0.6-1.1,0.8-1.5c0.2-0.6,0.2-1.4,0.2-2.4C179.9,80.8,179.9,80.3,179.9,79.6z M181.5,73.3c-0.3-0.2-0.6-0.2-0.9-0.2
				c-0.8,0-1.4,0.2-1.8,0.5c-0.5,0.5-0.9,1.1-1.2,1.8c-0.5,1.2-0.8,2.3-0.8,3.2c0,0.3,0.2,0.6,0.3,0.9c0.2,0.2,0.5,0.3,0.6,0.3
				c0.3,0,0.6-0.2,1.2-0.5c0.5-0.3,0.9-0.6,1.1-1.1c0.3-0.5,0.5-1.2,0.9-2.3L181.5,73.3z"/>
			<path class="st2" d="M191.8,74.4l-0.5-0.5c0.9-0.9,1.7-1.5,2.3-1.8c0.5-0.3,1.1-0.5,1.5-0.5c0.2,0,0.3,0,0.5,0.2
				c0.2,0.2,0.2,0.2,0.2,0.2c0,0.2,0,0.2-0.2,0.3l-0.5,2.3c0.8-0.9,1.7-1.7,2.9-2.4c0.6-0.5,1.2-0.5,1.5-0.5c0.3,0,0.5,0.2,0.8,0.3
				c0.2,0.2,0.2,0.5,0.2,0.9c0,0.2,0,0.5-0.2,0.9c-0.2,0.5-0.5,1.5-0.9,3.2c-0.5,1.7-0.8,2.6-0.8,3c0,0.2,0,0.3,0.2,0.3
				c0,0.2,0.2,0.2,0.2,0.2c0.2,0,0.5-0.2,1.1-0.6c0.3-0.3,0.6-0.6,0.9-0.9l0.3,0.5c-0.8,0.8-1.4,1.4-2.3,1.8
				c-0.5,0.3-0.9,0.5-1.2,0.5c-0.3,0-0.5-0.2-0.6-0.3c-0.2-0.2-0.2-0.5-0.2-1.1c0-0.6,0.5-2.3,1.2-5c0.2-0.9,0.5-1.5,0.5-1.7
				c0-0.2-0.2-0.3-0.5-0.3s-0.8,0.2-1.2,0.5c-0.8,0.5-1.2,1.1-1.8,1.7c-0.3,0.5-0.5,1.1-0.8,1.8l-0.9,4h-1.7
				c0.3-1.2,0.6-2.3,0.9-3.2l1.1-4.3c0-0.2,0.2-0.3,0.2-0.5c0-0.2-0.2-0.3-0.2-0.3c-0.2,0-0.3,0.2-0.5,0.2
				C192.7,73.6,192.2,73.9,191.8,74.4z"/>
			<path class="st2" d="M224.4,70.1l1.8-0.8l-0.9,3.2h2.3l-0.2,0.9h-2.3l-0.9,3.8c-0.3,1.2-0.5,1.8-0.5,2.4c0,0.2,0,0.3,0.2,0.5
				c0.2,0.2,0.2,0.2,0.3,0.2c0.2,0,0.6-0.2,1.1-0.5c0.6-0.3,1.2-0.8,1.8-1.2l0.5,0.5c-1.7,1.2-2.7,2-3.2,2.3
				c-0.5,0.3-1.1,0.5-1.4,0.5c-0.3,0-0.5-0.2-0.6-0.3c-0.2-0.2-0.2-0.5-0.2-0.9c0-0.5,0.2-1.4,0.5-2.6l1.2-4.6h-1.8l0.2-0.9h1.8
				L224.4,70.1z"/>
			<path class="st2" d="M241.3,71.8c0.8,0,1.4,0.3,1.8,0.9c0.5,0.6,0.8,1.4,0.8,2.4c0,1.7-0.6,3.2-1.8,4.6s-2.4,2-3.7,2
				c-0.9,0-1.5-0.3-2-0.9c-0.5-0.5-0.8-1.2-0.8-2.3c0-1.5,0.5-3,1.4-4.4C238.1,72.6,239.5,71.8,241.3,71.8z M240.2,72.6
				c-0.6,0-1.2,0.5-1.8,1.4c-0.6,0.9-0.9,2.3-0.9,3.8c0,0.9,0.2,1.8,0.5,2.3s0.6,0.6,1.1,0.6c0.6,0,1.2-0.5,1.7-1.2
				c0.6-1.1,0.9-2.3,0.9-3.8c0-1.2-0.2-1.8-0.5-2.4C241,72.9,240.7,72.6,240.2,72.6z"/>
			<path class="st2" d="M264,74.7l-0.5-0.5c0.8-0.9,1.4-1.5,2-1.8c0.6-0.5,1.2-0.6,1.8-0.6c0.2,0,0.3,0,0.5,0.2s0.2,0.2,0.2,0.5
				c0,0.3,0,0.5-0.2,0.6c0,0.2-0.2,0.8-0.5,1.7c1.2-1.2,1.8-1.8,2.3-2.1c0.8-0.5,1.4-0.8,1.8-0.8c0.5,0,0.8,0.2,0.9,0.5
				c0.3,0.3,0.5,0.9,0.5,1.7c0,1.8-0.5,3.7-1.7,5.2c-1.2,1.7-2.4,2.4-3.8,2.4c-0.5,0-1.1-0.2-1.5-0.5l-0.9,3.7
				c-0.2,0.2-0.2,0.5-0.2,0.5c0,0.3,0.2,0.5,0.3,0.6c0.3,0.2,1.1,0.3,2,0.5l-0.2,0.5c-1.2-0.2-2.3-0.2-2.9-0.2c-0.8,0-1.7,0-2.7,0.2
				l0.2-0.5c0.5-0.2,0.9-0.2,1.2-0.5c0.2-0.2,0.5-0.8,0.6-1.4l2-8.7c0.5-1.5,0.5-2.6,0.5-2.6c0-0.2-0.2-0.3-0.3-0.3
				C265.7,73.2,265.1,73.6,264,74.7z M266.4,80c0.6,0.6,1.2,0.9,1.8,0.9c0.9,0,1.7-0.8,2.4-2.1c0.6-1.4,1.1-2.7,1.1-4.1
				c0-0.5-0.2-0.8-0.3-0.9c-0.2-0.2-0.5-0.3-0.8-0.3c-0.3,0-0.8,0.2-1.2,0.5c-0.8,0.5-1.2,1.1-1.5,1.7c-0.2,0.5-0.5,1.1-0.8,2
				L266.4,80z"/>
			<path class="st2" d="M283.2,81.4h-1.7l0.9-3c0.5-1.5,0.8-2.9,1.1-4.3c0.2-0.3,0.2-0.5,0.2-0.6c0-0.2-0.2-0.3-0.2-0.3
				s-0.3,0.2-0.5,0.2c-0.2,0.2-0.6,0.5-1.2,1.2l-0.3-0.5c0.8-0.8,1.5-1.4,2.3-1.8c0.8-0.5,1.2-0.6,1.7-0.6c0.2,0,0.2,0,0.3,0.2
				C286,72,286,72,286,72c0,0.2,0,0.3-0.2,0.8l-0.5,2c0.8-1.2,1.5-2.3,2.6-3c0.5-0.5,0.9-0.6,1.2-0.6c0.2,0,0.5,0.2,0.5,0.2
				c0.2,0.2,0.2,0.3,0.2,0.5c0,0.2-0.2,0.5-0.2,0.5c-0.2,0.2-0.5,0.3-1.1,0.5c-0.5,0.2-1.1,0.5-1.4,0.6c-0.3,0.3-0.8,0.6-1.2,1.2
				c-0.5,0.5-0.8,1.1-0.9,1.4c-0.2,0.5-0.5,1.4-0.8,2.9L283.2,81.4z"/>
			<path class="st2" d="M300.7,71.8c0.8,0,1.4,0.3,1.8,0.9c0.5,0.6,0.8,1.4,0.8,2.4c0,1.7-0.6,3.2-1.8,4.6c-1.2,1.4-2.4,2-3.7,2
				c-0.9,0-1.5-0.3-2-0.9c-0.5-0.5-0.8-1.2-0.8-2.3c0-1.5,0.5-3,1.4-4.4C297.5,72.6,299.1,71.8,300.7,71.8z M299.8,72.6
				c-0.6,0-1.2,0.5-1.8,1.4c-0.6,0.9-0.9,2.3-0.9,3.8c0,0.9,0.2,1.8,0.5,2.3c0.3,0.5,0.6,0.6,1.1,0.6c0.6,0,1.2-0.5,1.7-1.2
				c0.6-1.1,0.9-2.3,0.9-3.8c0-1.2-0.2-1.8-0.5-2.4C300.6,72.9,300.3,72.6,299.8,72.6z"/>
			<path class="st2" d="M314.5,70.1l1.8-0.8l-0.9,3.2h2.3l-0.2,0.9h-2.3l-0.9,3.8c-0.3,1.2-0.5,1.8-0.5,2.4c0,0.2,0,0.3,0.2,0.5
				c0.2,0.2,0.2,0.2,0.3,0.2s0.6-0.2,1.1-0.5c0.6-0.3,1.2-0.8,1.8-1.2l0.5,0.5c-1.7,1.2-2.7,2-3.2,2.3c-0.5,0.3-1.1,0.5-1.4,0.5
				c-0.3,0-0.5-0.2-0.6-0.3c-0.2-0.2-0.2-0.5-0.2-0.9c0-0.5,0.2-1.4,0.5-2.6l1.2-4.6h-1.8l0.2-0.9h1.8L314.5,70.1z"/>
			<path class="st2" d="M331.7,78.5l0.5,0.5c-1.8,1.8-3.5,2.6-4.7,2.6c-0.5,0-0.9-0.2-1.2-0.5c-0.3-0.3-0.5-0.9-0.5-1.8
				c0-1.5,0.5-3.2,1.5-4.9c1.1-1.8,2.4-2.7,4-2.7c0.5,0,0.9,0.2,1.2,0.5c0.3,0.3,0.5,0.6,0.5,1.1c0,0.5-0.2,0.9-0.5,1.5
				c-0.3,0.5-0.9,0.9-1.8,1.5c-0.5,0.2-1.4,0.8-2.9,1.4c-0.2,0.5-0.2,0.9-0.2,1.2c0,0.5,0.2,0.9,0.2,1.2c0.2,0.2,0.5,0.3,0.8,0.3
				c0.3,0,0.6-0.2,1.1-0.2C330,79.7,330.8,79.1,331.7,78.5z M327.7,76.8c1.2-0.5,2.1-1.2,2.7-1.8c0.5-0.5,0.6-0.9,0.6-1.2
				c0-0.3-0.2-0.6-0.2-0.8c-0.2-0.2-0.5-0.3-0.6-0.3c-0.3,0-0.5,0.2-0.9,0.3c-0.3,0.3-0.6,0.8-0.9,1.2
				C328.2,75.2,327.9,76.1,327.7,76.8z"/>
			<path class="st2" d="M346.8,78.8l0.2,0.6c-1.8,1.4-3.2,2.1-4.6,2.1c-0.6,0-1.2-0.2-1.5-0.8c-0.3-0.5-0.5-1.1-0.5-1.8
				c0-1.2,0.3-2.4,0.9-3.7c0.6-1.2,1.4-2.3,2.3-2.9c0.8-0.5,1.5-0.8,2.4-0.8c0.5,0,0.9,0.2,1.2,0.3c0.3,0.2,0.5,0.5,0.5,0.8
				c0,0.2-0.2,0.5-0.2,0.5c-0.2,0.2-0.3,0.2-0.6,0.2c-0.2,0-0.6-0.2-1.1-0.3c-0.5-0.2-0.8-0.5-1.1-0.5c-0.5,0-0.8,0.2-1.1,0.5
				s-0.8,0.9-1.1,2c-0.3,0.9-0.5,1.8-0.5,2.9c0,0.8,0.2,1.2,0.5,1.7c0.2,0.3,0.5,0.5,0.9,0.5C344.6,80.5,345.7,79.9,346.8,78.8z"/>
			<path class="st2" d="M358.7,70.1l1.8-0.8l-0.9,3.2h2.3l-0.2,0.9h-2.3l-0.9,3.8c-0.3,1.2-0.5,1.8-0.5,2.4c0,0.2,0,0.3,0.2,0.5
				c0.2,0.2,0.2,0.2,0.3,0.2s0.6-0.2,1.1-0.5c0.6-0.3,1.2-0.8,1.8-1.2l0.5,0.5c-1.7,1.2-2.7,2-3.2,2.3c-0.5,0.3-1.1,0.5-1.4,0.5
				c-0.3,0-0.5-0.2-0.6-0.3c-0.2-0.2-0.2-0.5-0.2-0.9c0-0.5,0.2-1.4,0.5-2.6l1.2-4.6h-1.8l0.2-0.9h1.8L358.7,70.1z"/>
		</g>
		<path class="st3" d="M34.3,24.2h23.2v23.5h7.5V24.2h23.6V32H73.2v15.5h15.4v30.9H65.2V55.2h-7.8v23.3H34.3v-7.8h15.2V55.3H34.3
			V24.2z M49.7,32.2h-7.5v15.2h7.5V32.2z M80.6,55.3h-7.5v15.2h7.5V55.3z"/>
	</g>
</g>
</svg>
