<?xml version="1.0" encoding="utf-8"?>
<!-- Generator: Adobe Illustrator 22.1.0, SVG Export Plug-In . SVG Version: 6.00 Build 0)  -->
<svg version="1.1" id="圖層_1" xmlns="http://www.w3.org/2000/svg" xmlns:xlink="http://www.w3.org/1999/xlink" x="0px" y="0px"
	 viewBox="0 0 402.2 104.4" style="enable-background:new 0 0 402.2 104.4;" xml:space="preserve">
<style type="text/css">
	.st0{fill:#FFFFFF;}
	.st1{fill:#19306F;}
	.st2{fill:#19306E;}
	.st3{fill:#B81C25;}
</style>
<g>
	<rect class="st0" width="402.2" height="104.4"/>
	<g>
		<g>
			<path class="st1" d="M139.7,53.2l4.9-0.5c0.3,1.6,0.9,2.8,1.7,3.5c0.9,0.8,2.1,1.1,3.6,1.1c1.6,0,2.8-0.3,3.6-1
				c0.8-0.7,1.2-1.5,1.2-2.4c0-0.6-0.1-1-0.5-1.5s-0.9-0.8-1.8-1c-0.6-0.2-1.9-0.6-4-1c-2.6-0.6-4.5-1.5-5.6-2.4
				c-1.5-1.3-2.3-3-2.3-4.9c0-1.2,0.3-2.4,1-3.5s1.7-1.9,3.1-2.5s2.9-0.8,4.9-0.8c3.1,0,5.4,0.7,6.9,2c1.5,1.3,2.4,3.1,2.4,5.4
				l-4.9,0.2c-0.2-1.2-0.7-2.1-1.4-2.7c-0.7-0.6-1.7-0.8-3.1-0.8c-1.5,0-2.6,0.3-3.4,0.9c-0.6,0.3-0.8,0.9-0.8,1.5
				c0,0.6,0.3,1.1,0.8,1.5c0.6,0.6,2.1,1,4.6,1.7c2.4,0.6,4.2,1.2,5.3,1.7c1.2,0.6,2.1,1.5,2.7,2.5c0.6,1,1,2.4,1,3.9
				c0,1.4-0.4,2.7-1.2,4c-0.8,1.2-1.9,2.1-3.3,2.7c-1.5,0.6-3.2,0.9-5.3,0.9c-3.1,0-5.5-0.7-7.1-2.1C141,58,140,55.9,139.7,53.2z"/>
			<path class="st1" d="M163.8,61.2V36.7h4.9v9.6h9.7v-9.6h4.9v24.5h-4.9V50.5h-9.7v10.7H163.8z"/>
			<path class="st1" d="M210.7,61.2h-5.4l-2.1-5.5h-9.8l-2,5.5h-5.3l9.6-24.5h5.3L210.7,61.2z M201.5,51.5l-3.3-9.2l-3.3,9.1
				L201.5,51.5L201.5,51.5z"/>
			<path class="st1" d="M213.4,61.2V36.9h4.9v20.2h12.3v4.2H213.4z"/>
			<path class="st1" d="M256.4,61.2H251l-2.1-5.5H239l-2,5.5h-5.3l9.6-24.5h5.3L256.4,61.2z M247.2,51.5l-3.3-9.2l-3.3,9.2H247.2z"
				/>
			<path class="st1" d="M259,61.2V36.7h10.4c2.6,0,4.5,0.2,5.7,0.7c1.2,0.4,2.1,1.2,2.8,2.4c0.7,1.1,1,2.4,1,3.9
				c0,1.9-0.6,3.3-1.6,4.6c-1.1,1.2-2.7,1.9-4.9,2.3c1,0.6,1.9,1.3,2.6,2.1c0.7,0.8,1.7,2.1,2.8,4l3,4.8h-5.9l-3.6-5.3
				c-1.2-1.9-2.1-3.1-2.6-3.6c-0.5-0.5-1-0.8-1.5-1c-0.6-0.2-1.4-0.3-2.5-0.3h-1v10.3L259,61.2L259,61.2z M264,47h3.7
				c2.4,0,3.9-0.1,4.4-0.3c0.6-0.2,1-0.6,1.4-1c0.3-0.5,0.5-1.1,0.5-1.9c0-0.8-0.2-1.5-0.7-2c-0.4-0.5-1-0.8-1.9-1
				c-0.4-0.1-1.6-0.1-3.6-0.1h-3.9L264,47L264,47z"/>
			<path class="st1" d="M283.7,61.2V36.7h7.4l4.4,16.7l4.4-16.7h7.4v24.5h-4.6V41.9l-4.9,19.3h-4.8l-4.9-19.3v19.3H283.7z"/>
		</g>
		<g>
			<path class="st2" d="M144.2,65.4l0.1-0.3c0.6-0.1,1.2-0.1,1.9-0.3c-0.2,0.6-0.4,1.2-0.6,1.9l-0.5,2.1c-0.3,1.5-0.8,2.6-1.2,3.4
				c0.4,0.1,0.8,0.1,1.1,0.1c0.9,0,1.6-0.2,2.3-0.6c0.6-0.3,1.2-0.9,1.5-1.6c0.3-0.7,0.6-1.5,0.6-2.3c0-1.1-0.3-2-1-2.7
				c-0.6-0.7-1.5-1-2.5-1c-0.9,0-1.7,0.2-2.5,0.6c-0.8,0.4-1.4,1-1.9,1.7c-0.5,0.7-0.7,1.4-0.7,2s0.3,1.1,0.8,1.4
				c0.1,0.1,0.3,0.1,0.3,0.2c0.1,0.1,0.1,0.1,0.1,0.2c0,0.1-0.1,0.2-0.1,0.3c-0.1,0.1-0.2,0.1-0.3,0.1c-0.3,0-0.6-0.1-0.8-0.6
				c-0.3-0.5-0.5-1-0.5-1.5c0-0.8,0.3-1.7,0.8-2.5c0.5-0.8,1.2-1.5,2.1-1.9c0.9-0.5,1.9-0.7,3.1-0.7c1.4,0,2.4,0.3,3.3,1.1
				c0.8,0.8,1.2,1.7,1.2,2.8c0,1-0.3,1.9-0.8,2.8c-0.6,0.8-1.2,1.5-2.1,1.9c-0.8,0.3-1.6,0.6-2.4,0.6c-0.3,0-0.7,0-1.3-0.1
				c-0.6-0.1-1-0.1-1.5-0.1c-0.2,0-0.6,0-1,0l0.1-0.3c0.5,0,0.8-0.1,0.8-0.1c0.1-0.1,0.2-0.1,0.3-0.3c0.1-0.2,0.3-0.7,0.6-1.5
				l0.5-1.9l0.6-2.4c0-0.1,0.1-0.2,0.1-0.3c0-0.1,0-0.1-0.1-0.2c-0.1-0.1-0.1-0.1-0.2-0.1C144.4,65.4,144.4,65.4,144.2,65.4z"/>
			<path class="st2" d="M159.8,70.7l0.3,0.3c-1.2,1.2-2.3,1.7-3.1,1.7c-0.3,0-0.6-0.1-0.8-0.3c-0.2-0.2-0.3-0.6-0.3-1.2
				c0-1,0.3-2.1,1-3.2c0.7-1.2,1.6-1.8,2.6-1.8c0.3,0,0.6,0.1,0.8,0.3c0.2,0.2,0.3,0.4,0.3,0.7c0,0.3-0.1,0.6-0.3,1
				c-0.2,0.3-0.6,0.6-1.2,1c-0.3,0.1-0.9,0.5-1.9,0.9c-0.1,0.3-0.1,0.6-0.1,0.8c0,0.3,0.1,0.6,0.1,0.8c0.1,0.1,0.3,0.2,0.5,0.2
				s0.4-0.1,0.7-0.1C158.7,71.5,159.2,71.1,159.8,70.7z M157.2,69.6c0.8-0.3,1.4-0.8,1.8-1.2c0.3-0.3,0.4-0.6,0.4-0.8
				c0-0.2-0.1-0.4-0.1-0.5c-0.1-0.1-0.3-0.2-0.4-0.2c-0.2,0-0.3,0.1-0.6,0.2c-0.2,0.2-0.4,0.5-0.6,0.8
				C157.5,68.5,157.3,69.1,157.2,69.6z"/>
			<path class="st2" d="M169,66.3c0.4,0,0.8,0.1,1,0.3c0.2,0.1,0.3,0.3,0.3,0.6c0,0.1-0.1,0.3-0.1,0.3c-0.1,0.1-0.2,0.1-0.3,0.1
				c-0.1,0-0.2,0-0.3-0.1c-0.1-0.1-0.1-0.1-0.3-0.3c-0.2-0.3-0.5-0.5-0.7-0.5c-0.2,0-0.4,0.1-0.6,0.2c-0.1,0.1-0.2,0.3-0.2,0.6
				s0.1,0.4,0.1,0.6c0.1,0.2,0.3,0.5,0.8,0.9c0.6,0.6,0.8,1.1,0.8,1.7c0,0.6-0.2,1-0.7,1.4c-0.4,0.4-1,0.6-1.7,0.6
				c-0.6,0-1-0.1-1.3-0.3c-0.3-0.2-0.4-0.6-0.4-0.9c0-0.1,0.1-0.3,0.1-0.4c0.1-0.1,0.3-0.1,0.4-0.1c0.1,0,0.3,0.1,0.3,0.1
				c0.1,0.1,0.1,0.2,0.1,0.3c0,0.1,0,0.1,0,0.2s0,0.1,0,0.1c0,0.1,0.1,0.3,0.2,0.4c0.1,0.1,0.3,0.1,0.6,0.1c0.3,0,0.5-0.1,0.7-0.1
				c0.2-0.1,0.3-0.2,0.5-0.4c0.1-0.2,0.1-0.3,0.1-0.6c0-0.2-0.1-0.3-0.1-0.6c-0.1-0.2-0.3-0.5-0.7-0.9c-0.5-0.6-0.8-1.1-0.8-1.7
				c0-0.5,0.2-0.9,0.6-1.2C167.9,66.5,168.4,66.3,169,66.3z"/>
			<path class="st2" d="M175.4,68l-0.3-0.3c0.5-0.6,1-0.9,1.4-1.2c0.4-0.2,0.8-0.3,1-0.3c0.1,0,0.3,0,0.3,0.1
				c0.1,0.1,0.1,0.1,0.1,0.3s-0.1,0.8-0.5,1.8c-0.6,1.7-0.8,2.8-0.8,3.2c0,0.1,0,0.1,0.1,0.2c0,0.1,0.1,0.1,0.1,0.1
				c0.1,0,0.6-0.3,1.2-0.9l0.3,0.3c-0.7,0.6-1.2,1-1.5,1.2c-0.3,0.2-0.6,0.3-0.8,0.3c-0.2,0-0.3-0.1-0.4-0.1
				c-0.1-0.1-0.1-0.3-0.1-0.5c0-0.6,0.3-2.1,1.1-4.6c0-0.1,0.1-0.2,0.1-0.3c0-0.1-0.1-0.1-0.1-0.1c-0.1,0-0.2,0.1-0.3,0.1
				C176.1,67.3,175.8,67.6,175.4,68z M178.3,63.1c0.1,0,0.3,0.1,0.3,0.1c0.1,0.1,0.1,0.2,0.1,0.4s-0.1,0.4-0.2,0.6
				c-0.1,0.1-0.3,0.3-0.5,0.3c-0.1,0-0.3-0.1-0.3-0.1c-0.1-0.1-0.1-0.2-0.1-0.4c0-0.2,0.1-0.4,0.2-0.6
				C177.9,63.2,178.1,63.1,178.3,63.1z"/>
			<path class="st2" d="M188.4,66.2l0.6-0.1c-0.3,1.2-0.7,2.4-1,3.5c-0.2,0.8-0.3,1.5-0.5,2.1c-0.1,0.3-0.1,0.6-0.1,1
				c0,0.7-0.1,1.3-0.2,1.7c-0.2,0.6-0.6,1.1-1.2,1.5c-0.6,0.3-1.2,0.6-2,0.6c-0.7,0-1.2-0.1-1.6-0.5c-0.4-0.3-0.6-0.7-0.6-1.1
				s0.1-0.8,0.5-1.1c0.2-0.3,0.7-0.6,1.5-1c0.3-0.2,0.7-0.4,1-0.6c-0.3,0.2-0.6,0.3-0.8,0.3c-0.2,0-0.3-0.1-0.5-0.3
				c-0.1-0.1-0.2-0.4-0.2-0.7c0-0.9,0.3-1.8,0.8-2.7s1.2-1.6,1.9-2c0.5-0.3,1-0.4,1.8-0.4C188.1,66.3,188.3,66.3,188.4,66.2
				L188.4,66.2z M186.5,71.4c-0.3,0.3-1,0.8-1.9,1.5c-0.8,0.6-1.4,1-1.6,1.2c-0.2,0.3-0.3,0.6-0.3,0.8c0,0.3,0.1,0.6,0.3,0.8
				c0.3,0.2,0.6,0.3,0.9,0.3s0.7-0.1,1-0.3c0.3-0.1,0.6-0.4,0.8-0.7c0.2-0.3,0.4-0.7,0.5-1c0.1-0.4,0.1-0.9,0.1-1.6
				C186.5,72.2,186.5,71.9,186.5,71.4z M187.6,67.3c-0.2-0.1-0.4-0.1-0.6-0.1c-0.5,0-0.9,0.1-1.2,0.3c-0.3,0.3-0.6,0.7-0.8,1.2
				c-0.3,0.8-0.5,1.5-0.5,2.1c0,0.2,0.1,0.4,0.2,0.6c0.1,0.1,0.3,0.2,0.4,0.2c0.2,0,0.4-0.1,0.8-0.3c0.3-0.2,0.6-0.4,0.7-0.7
				c0.2-0.3,0.3-0.8,0.6-1.5L187.6,67.3z"/>
			<path class="st2" d="M194.3,68l-0.3-0.3c0.6-0.6,1.1-1,1.5-1.2c0.3-0.2,0.7-0.3,1-0.3c0.1,0,0.2,0,0.3,0.1
				c0.1,0.1,0.1,0.1,0.1,0.1c0,0.1,0,0.1-0.1,0.2l-0.3,1.5c0.5-0.6,1.1-1.1,1.9-1.6c0.4-0.3,0.8-0.3,1-0.3c0.2,0,0.3,0.1,0.5,0.2
				c0.1,0.1,0.1,0.3,0.1,0.6c0,0.1,0,0.3-0.1,0.6c-0.1,0.3-0.3,1-0.6,2.1s-0.5,1.7-0.5,2c0,0.1,0,0.2,0.1,0.2c0,0.1,0.1,0.1,0.1,0.1
				c0.1,0,0.3-0.1,0.7-0.4c0.2-0.2,0.4-0.4,0.6-0.6l0.2,0.3c-0.5,0.5-0.9,0.9-1.5,1.2c-0.3,0.2-0.6,0.3-0.8,0.3
				c-0.2,0-0.3-0.1-0.4-0.2c-0.1-0.1-0.1-0.3-0.1-0.7c0-0.4,0.3-1.5,0.8-3.3c0.1-0.6,0.3-1,0.3-1.1s-0.1-0.2-0.3-0.2
				s-0.5,0.1-0.8,0.3c-0.5,0.3-0.8,0.7-1.2,1.1c-0.2,0.3-0.3,0.7-0.5,1.2l-0.6,2.6h-1.1c0.2-0.8,0.4-1.5,0.6-2.1l0.7-2.8
				c0-0.1,0.1-0.2,0.1-0.3c0-0.1-0.1-0.2-0.1-0.2c-0.1,0-0.2,0.1-0.3,0.1C194.9,67.5,194.6,67.7,194.3,68z"/>
			<path class="st2" d="M215.7,65.2l1.2-0.5l-0.6,2.1h1.5l-0.1,0.6h-1.5l-0.6,2.5c-0.2,0.8-0.3,1.2-0.3,1.6c0,0.1,0,0.2,0.1,0.3
				c0.1,0.1,0.1,0.1,0.2,0.1c0.1,0,0.4-0.1,0.7-0.3c0.4-0.2,0.8-0.5,1.2-0.8l0.3,0.3c-1.1,0.8-1.8,1.3-2.1,1.5
				c-0.3,0.2-0.7,0.3-0.9,0.3c-0.2,0-0.3-0.1-0.4-0.2c-0.1-0.1-0.1-0.3-0.1-0.6c0-0.3,0.1-0.9,0.3-1.7l0.8-3h-1.2l0.1-0.6h1.2
				L215.7,65.2z"/>
			<path class="st2" d="M226.8,66.3c0.5,0,0.9,0.2,1.2,0.6c0.3,0.4,0.5,0.9,0.5,1.6c0,1.1-0.4,2.1-1.2,3s-1.6,1.3-2.4,1.3
				c-0.6,0-1-0.2-1.3-0.6c-0.3-0.3-0.5-0.8-0.5-1.5c0-1,0.3-2,0.9-2.9C224.7,66.8,225.6,66.3,226.8,66.3z M226.1,66.8
				c-0.4,0-0.8,0.3-1.2,0.9c-0.4,0.6-0.6,1.5-0.6,2.5c0,0.6,0.1,1.2,0.3,1.5c0.2,0.3,0.4,0.4,0.7,0.4c0.4,0,0.8-0.3,1.1-0.8
				c0.4-0.7,0.6-1.5,0.6-2.5c0-0.8-0.1-1.2-0.3-1.6C226.6,67,226.4,66.8,226.1,66.8z"/>
			<path class="st2" d="M241.7,68.2l-0.3-0.3c0.5-0.6,0.9-1,1.3-1.2c0.4-0.3,0.8-0.4,1.2-0.4c0.1,0,0.2,0,0.3,0.1
				c0.1,0.1,0.1,0.1,0.1,0.3s0,0.3-0.1,0.4c0,0.1-0.1,0.5-0.3,1.1c0.8-0.8,1.2-1.2,1.5-1.4c0.5-0.3,0.9-0.5,1.2-0.5
				c0.3,0,0.5,0.1,0.6,0.3c0.2,0.2,0.3,0.6,0.3,1.1c0,1.2-0.3,2.4-1.1,3.4c-0.8,1.1-1.6,1.6-2.5,1.6c-0.3,0-0.7-0.1-1-0.3l-0.6,2.4
				c-0.1,0.1-0.1,0.3-0.1,0.3c0,0.2,0.1,0.3,0.2,0.4c0.2,0.1,0.7,0.2,1.3,0.3l-0.1,0.3c-0.8-0.1-1.5-0.1-1.9-0.1
				c-0.5,0-1.1,0-1.8,0.1l0.1-0.3c0.3-0.1,0.6-0.1,0.8-0.3c0.1-0.1,0.3-0.5,0.4-0.9l1.3-5.7c0.3-1,0.3-1.7,0.3-1.7
				c0-0.1-0.1-0.2-0.2-0.2C242.8,67.2,242.4,67.5,241.7,68.2z M243.3,71.7c0.4,0.4,0.8,0.6,1.2,0.6c0.6,0,1.1-0.5,1.6-1.4
				c0.4-0.9,0.7-1.8,0.7-2.7c0-0.3-0.1-0.5-0.2-0.6c-0.1-0.1-0.3-0.2-0.5-0.2c-0.2,0-0.5,0.1-0.8,0.3c-0.5,0.3-0.8,0.7-1,1.1
				c-0.1,0.3-0.3,0.7-0.5,1.3L243.3,71.7z"/>
			<path class="st2" d="M254.3,72.6h-1.1l0.6-2c0.3-1,0.5-1.9,0.7-2.8c0.1-0.2,0.1-0.3,0.1-0.4c0-0.1-0.1-0.2-0.1-0.2
				s-0.2,0.1-0.3,0.1c-0.1,0.1-0.4,0.3-0.8,0.8l-0.2-0.3c0.5-0.5,1-0.9,1.5-1.2c0.5-0.3,0.8-0.4,1.1-0.4c0.1,0,0.1,0,0.2,0.1
				c0.1,0.1,0.1,0.1,0.1,0.1c0,0.1,0,0.2-0.1,0.5l-0.3,1.3c0.5-0.8,1-1.5,1.7-2c0.3-0.3,0.6-0.4,0.8-0.4c0.1,0,0.3,0.1,0.3,0.1
				c0.1,0.1,0.1,0.2,0.1,0.3c0,0.1-0.1,0.3-0.1,0.3c-0.1,0.1-0.3,0.2-0.7,0.3c-0.3,0.1-0.7,0.3-0.9,0.4c-0.2,0.2-0.5,0.4-0.8,0.8
				c-0.3,0.3-0.5,0.7-0.6,0.9c-0.1,0.3-0.3,0.9-0.5,1.9L254.3,72.6z"/>
			<path class="st2" d="M265.8,66.3c0.5,0,0.9,0.2,1.2,0.6c0.3,0.4,0.5,0.9,0.5,1.6c0,1.1-0.4,2.1-1.2,3c-0.8,0.9-1.6,1.3-2.4,1.3
				c-0.6,0-1-0.2-1.3-0.6c-0.3-0.3-0.5-0.8-0.5-1.5c0-1,0.3-2,0.9-2.9C263.7,66.8,264.7,66.3,265.8,66.3z M265.2,66.8
				c-0.4,0-0.8,0.3-1.2,0.9c-0.4,0.6-0.6,1.5-0.6,2.5c0,0.6,0.1,1.2,0.3,1.5c0.2,0.3,0.4,0.4,0.7,0.4c0.4,0,0.8-0.3,1.1-0.8
				c0.4-0.7,0.6-1.5,0.6-2.5c0-0.8-0.1-1.2-0.3-1.6C265.7,67,265.5,66.8,265.2,66.8z"/>
			<path class="st2" d="M274.8,65.2l1.2-0.5l-0.6,2.1h1.5l-0.1,0.6h-1.5l-0.6,2.5c-0.2,0.8-0.3,1.2-0.3,1.6c0,0.1,0,0.2,0.1,0.3
				c0.1,0.1,0.1,0.1,0.2,0.1c0.1,0,0.4-0.1,0.7-0.3c0.4-0.2,0.8-0.5,1.2-0.8l0.3,0.3c-1.1,0.8-1.8,1.3-2.1,1.5
				c-0.3,0.2-0.7,0.3-0.9,0.3s-0.3-0.1-0.4-0.2c-0.1-0.1-0.1-0.3-0.1-0.6c0-0.3,0.1-0.9,0.3-1.7l0.8-3h-1.2l0.1-0.6h1.2L274.8,65.2z
				"/>
			<path class="st2" d="M286.1,70.7l0.3,0.3c-1.2,1.2-2.3,1.7-3.1,1.7c-0.3,0-0.6-0.1-0.8-0.3c-0.2-0.2-0.3-0.6-0.3-1.2
				c0-1,0.3-2.1,1-3.2c0.7-1.2,1.6-1.8,2.6-1.8c0.3,0,0.6,0.1,0.8,0.3c0.2,0.2,0.3,0.4,0.3,0.7c0,0.3-0.1,0.6-0.3,1
				c-0.2,0.3-0.6,0.6-1.2,1c-0.3,0.1-0.9,0.5-1.9,0.9c-0.1,0.3-0.1,0.6-0.1,0.8c0,0.3,0.1,0.6,0.1,0.8c0.1,0.1,0.3,0.2,0.5,0.2
				c0.2,0,0.4-0.1,0.7-0.1C285,71.5,285.5,71.1,286.1,70.7z M283.5,69.6c0.8-0.3,1.4-0.8,1.8-1.2c0.3-0.3,0.4-0.6,0.4-0.8
				c0-0.2-0.1-0.4-0.1-0.5c-0.1-0.1-0.3-0.2-0.4-0.2c-0.2,0-0.3,0.1-0.6,0.2c-0.2,0.2-0.4,0.5-0.6,0.8
				C283.8,68.5,283.6,69.1,283.5,69.6z"/>
			<path class="st2" d="M296,70.9l0.1,0.4c-1.2,0.9-2.1,1.4-3,1.4c-0.4,0-0.8-0.1-1-0.5c-0.2-0.3-0.3-0.7-0.3-1.2
				c0-0.8,0.2-1.6,0.6-2.4c0.4-0.8,0.9-1.5,1.5-1.9c0.5-0.3,1-0.5,1.6-0.5c0.3,0,0.6,0.1,0.8,0.2c0.2,0.1,0.3,0.3,0.3,0.5
				c0,0.1-0.1,0.3-0.1,0.3c-0.1,0.1-0.2,0.1-0.4,0.1c-0.1,0-0.4-0.1-0.7-0.2c-0.3-0.1-0.5-0.3-0.7-0.3c-0.3,0-0.5,0.1-0.7,0.3
				s-0.5,0.6-0.7,1.3c-0.2,0.6-0.3,1.2-0.3,1.9c0,0.5,0.1,0.8,0.3,1.1c0.1,0.2,0.3,0.3,0.6,0.3C294.6,72,295.3,71.6,296,70.9z"/>
			<path class="st2" d="M303.8,65.2l1.2-0.5l-0.6,2.1h1.5l-0.1,0.6h-1.5l-0.6,2.5c-0.2,0.8-0.3,1.2-0.3,1.6c0,0.1,0,0.2,0.1,0.3
				c0.1,0.1,0.1,0.1,0.2,0.1c0.1,0,0.4-0.1,0.7-0.3c0.4-0.2,0.8-0.5,1.2-0.8l0.3,0.3c-1.1,0.8-1.8,1.3-2.1,1.5s-0.7,0.3-0.9,0.3
				s-0.3-0.1-0.4-0.2c-0.1-0.1-0.1-0.3-0.1-0.6c0-0.3,0.1-0.9,0.3-1.7l0.8-3h-1.2l0.1-0.6h1.2L303.8,65.2z"/>
		</g>
		<path class="st3" d="M91,35.1h15.2v15.4h4.9V35.1h15.5v5.1h-10.1v10.2h10.1v20.3h-15.3V55.4h-5.1v15.3H91v-5.1h10V55.5H91V35.1z
			 M101.1,40.3h-4.9v10h4.9V40.3z M121.4,55.5h-4.9v10h4.9V55.5z"/>
	</g>
</g>
</svg>
