<?xml version="1.0" encoding="utf-8"?>
<!-- Generator: Adobe Illustrator 22.0.1, SVG Export Plug-In . SVG Version: 6.00 Build 0)  -->
<svg version="1.1" id="圖層_1" xmlns="http://www.w3.org/2000/svg" xmlns:xlink="http://www.w3.org/1999/xlink" x="0px" y="0px"
	 viewBox="0 0 312 59.7" style="enable-background:new 0 0 312 59.7;" xml:space="preserve">
<style type="text/css">
	.st0{fill:#19306F;}
	.st1{fill:#19306E;}
	.st2{fill:#B81C25;}
</style>
<g>
	<g>
		<g>
			<path class="st0" d="M70.1,26.1l7-0.7c0.4,2.3,1.3,4,2.5,5.1c1.3,1.1,3,1.6,5.2,1.6c2.3,0,4-0.5,5.2-1.5c1.2-1,1.8-2.1,1.8-3.4
				c0-0.8-0.2-1.5-0.7-2.1c-0.5-0.6-1.3-1.1-2.6-1.5c-0.8-0.3-2.7-0.8-5.7-1.5c-3.8-0.9-6.5-2.1-8.1-3.5c-2.2-1.9-3.3-4.3-3.3-7.1
				c0-1.8,0.5-3.5,1.5-5.1c1-1.6,2.5-2.8,4.4-3.6c1.9-0.8,4.2-1.2,7-1.2c4.4,0,7.8,1,10,2.9s3.4,4.5,3.5,7.8l-7.1,0.3
				c-0.3-1.8-1-3.1-2-3.9c-1-0.8-2.5-1.2-4.5-1.2c-2.1,0-3.7,0.4-4.9,1.3c-0.8,0.5-1.1,1.3-1.1,2.2c0,0.8,0.4,1.6,1.1,2.1
				c0.9,0.8,3.1,1.5,6.6,2.4c3.5,0.8,6,1.7,7.7,2.5c1.7,0.9,3,2.1,3.9,3.6c0.9,1.5,1.4,3.4,1.4,5.6c0,2-0.6,3.9-1.7,5.7
				c-1.1,1.8-2.7,3.1-4.8,3.9c-2.1,0.9-4.6,1.3-7.7,1.3c-4.5,0-7.9-1-10.3-3.1C72,33.1,70.5,30.1,70.1,26.1z"/>
			<path class="st0" d="M104.9,37.6V2.2h7.1v13.9h14V2.2h7.1v35.4H126V22.2h-14v15.5H104.9z"/>
			<path class="st0" d="M172.5,37.6h-7.8l-3.1-8h-14.1l-2.9,8H137l13.8-35.4h7.6L172.5,37.6z M159.3,23.6l-4.9-13.1l-4.8,13.1H159.3
				z"/>
			<path class="st0" d="M176.5,37.6V2.5h7.1v29.1h17.8v6H176.5z"/>
			<path class="st0" d="M238.4,37.6h-7.8l-3.1-8h-14.1l-2.9,8h-7.6l13.8-35.4h7.6L238.4,37.6z M225.2,23.6l-4.9-13.1l-4.8,13.1
				H225.2z"/>
			<path class="st0" d="M242.2,37.6V2.2h15c3.8,0,6.5,0.3,8.2,1c1.7,0.6,3.1,1.8,4.1,3.4c1,1.6,1.5,3.5,1.5,5.6
				c0,2.7-0.8,4.8-2.3,6.6c-1.6,1.7-3.9,2.8-7,3.3c1.5,0.9,2.8,1.9,3.8,3c1,1.1,2.4,3,4.1,5.7l4.3,6.9h-8.5l-5.2-7.7
				c-1.8-2.8-3.1-4.5-3.8-5.2c-0.7-0.7-1.4-1.2-2.1-1.5c-0.8-0.3-2-0.4-3.6-0.4h-1.4v14.8H242.2z M249.3,17.2h5.3
				c3.4,0,5.6-0.1,6.4-0.4c0.9-0.3,1.5-0.8,2-1.5c0.5-0.7,0.7-1.6,0.7-2.7c0-1.2-0.3-2.2-1-2.9c-0.6-0.7-1.5-1.2-2.7-1.4
				c-0.6-0.1-2.3-0.1-5.2-0.1h-5.6V17.2z"/>
			<path class="st0" d="M277.8,37.6V2.2h10.7l6.4,24.1l6.3-24.1H312v35.4h-6.6V9.8l-7,27.9h-6.9l-7-27.9v27.9H277.8z"/>
		</g>
		<g>
			<path class="st1" d="M76.7,43.7l0.1-0.5c0.8-0.1,1.7-0.2,2.8-0.5c-0.3,0.8-0.6,1.7-0.8,2.7l-0.7,3c-0.5,2.2-1.1,3.8-1.7,4.9
				c0.6,0.1,1.2,0.2,1.6,0.2c1.3,0,2.3-0.3,3.3-0.8c0.9-0.5,1.7-1.3,2.2-2.3c0.5-1,0.8-2.1,0.8-3.3c0-1.6-0.5-2.9-1.4-3.9
				c-0.9-1-2.1-1.5-3.6-1.5c-1.3,0-2.5,0.3-3.6,0.9c-1.1,0.6-2,1.4-2.7,2.4c-0.7,1-1,2-1,2.9c0,0.9,0.4,1.6,1.2,2
				c0.2,0.1,0.4,0.2,0.4,0.3c0.1,0.1,0.1,0.2,0.1,0.3c0,0.2-0.1,0.3-0.2,0.5c-0.1,0.1-0.3,0.2-0.5,0.2c-0.4,0-0.8-0.2-1.1-0.8
				c-0.5-0.7-0.7-1.4-0.7-2.2c0-1.2,0.4-2.4,1.1-3.6c0.7-1.1,1.8-2.1,3.1-2.7c1.3-0.7,2.8-1,4.4-1c2,0,3.5,0.5,4.7,1.6
				c1.2,1.1,1.8,2.4,1.8,4c0,1.5-0.4,2.8-1.2,4.1c-0.8,1.2-1.8,2.1-3,2.7c-1.2,0.5-2.3,0.8-3.5,0.8c-0.4,0-1,0-1.9-0.1
				C75.9,54,75.1,54,74.4,54c-0.3,0-0.8,0-1.5,0l0.2-0.5c0.7,0,1.1-0.1,1.2-0.2c0.2-0.1,0.3-0.2,0.4-0.4c0.2-0.3,0.5-1,0.8-2.1
				l0.7-2.8l0.9-3.5c0-0.2,0.1-0.3,0.1-0.4c0-0.1,0-0.2-0.1-0.3c-0.1-0.1-0.2-0.1-0.3-0.1C76.9,43.7,76.8,43.7,76.7,43.7z"/>
			<path class="st1" d="M99.2,51.3l0.4,0.5c-1.8,1.7-3.3,2.5-4.5,2.5c-0.5,0-0.9-0.2-1.2-0.5c-0.3-0.3-0.4-0.9-0.4-1.7
				c0-1.5,0.5-3.1,1.4-4.6c1-1.7,2.3-2.6,3.7-2.6c0.5,0,0.9,0.1,1.2,0.4c0.3,0.3,0.4,0.6,0.4,1c0,0.5-0.2,0.9-0.5,1.4
				c-0.3,0.5-0.9,0.9-1.7,1.4c-0.4,0.2-1.3,0.7-2.7,1.3c-0.1,0.4-0.1,0.8-0.1,1.1c0,0.5,0.1,0.9,0.2,1.1c0.2,0.2,0.4,0.3,0.7,0.3
				c0.3,0,0.6-0.1,1-0.2C97.6,52.5,98.2,52,99.2,51.3z M95.4,49.8c1.2-0.5,2-1.1,2.6-1.7c0.4-0.4,0.6-0.8,0.6-1.2
				c0-0.3-0.1-0.6-0.2-0.7c-0.2-0.2-0.4-0.3-0.6-0.3c-0.3,0-0.5,0.1-0.8,0.3c-0.3,0.3-0.6,0.7-0.8,1.2C95.8,48.2,95.5,49,95.4,49.8z
				"/>
			<path class="st1" d="M112.3,45c0.6,0,1.1,0.1,1.5,0.4c0.3,0.2,0.5,0.5,0.5,0.9c0,0.2-0.1,0.4-0.2,0.5c-0.1,0.1-0.3,0.2-0.5,0.2
				c-0.1,0-0.3,0-0.4-0.1c-0.1-0.1-0.2-0.2-0.4-0.5c-0.3-0.5-0.7-0.7-1-0.7c-0.3,0-0.6,0.1-0.8,0.3c-0.2,0.2-0.3,0.5-0.3,0.8
				c0,0.3,0.1,0.6,0.2,0.9c0.1,0.3,0.5,0.7,1.1,1.3c0.8,0.8,1.2,1.6,1.2,2.4c0,0.8-0.3,1.4-1,2c-0.6,0.6-1.5,0.9-2.5,0.9
				c-0.9,0-1.5-0.2-1.9-0.5s-0.6-0.8-0.6-1.3c0-0.2,0.1-0.5,0.2-0.6c0.2-0.2,0.4-0.2,0.6-0.2c0.2,0,0.4,0.1,0.5,0.2
				c0.1,0.1,0.2,0.3,0.2,0.5c0,0.1,0,0.2,0,0.3c0,0.1,0,0.2,0,0.2c0,0.2,0.1,0.4,0.3,0.6c0.2,0.2,0.5,0.2,0.8,0.2
				c0.4,0,0.7-0.1,1-0.2c0.3-0.1,0.5-0.3,0.7-0.6c0.2-0.3,0.2-0.5,0.2-0.8c0-0.3-0.1-0.5-0.2-0.8c-0.2-0.3-0.5-0.7-1-1.3
				c-0.7-0.8-1.1-1.6-1.1-2.4c0-0.7,0.3-1.3,0.8-1.8C110.7,45.3,111.4,45,112.3,45z"/>
			<path class="st1" d="M121.6,47.5l-0.5-0.4c0.7-0.8,1.4-1.3,2-1.7c0.6-0.3,1.1-0.5,1.5-0.5c0.2,0,0.4,0,0.5,0.2
				c0.1,0.1,0.2,0.2,0.2,0.4c0,0.2-0.2,1.1-0.7,2.6c-0.8,2.5-1.1,4.1-1.1,4.6c0,0.1,0,0.2,0.1,0.3c0,0.1,0.1,0.1,0.2,0.1
				c0.2,0,0.8-0.4,1.8-1.3l0.4,0.4c-1,0.9-1.7,1.5-2.1,1.8c-0.5,0.3-0.8,0.4-1.1,0.4c-0.3,0-0.4-0.1-0.6-0.2
				c-0.1-0.2-0.2-0.4-0.2-0.7c0-0.9,0.5-3.1,1.6-6.6c0-0.2,0.1-0.3,0.1-0.4c0-0.1-0.1-0.2-0.2-0.2c-0.1,0-0.3,0.1-0.5,0.2
				C122.6,46.5,122.2,46.9,121.6,47.5z M125.8,40.4c0.2,0,0.4,0.1,0.5,0.2c0.1,0.1,0.2,0.3,0.2,0.6c0,0.3-0.1,0.6-0.3,0.8
				c-0.2,0.2-0.5,0.4-0.7,0.4c-0.2,0-0.4-0.1-0.5-0.2c-0.1-0.2-0.2-0.3-0.2-0.6c0-0.3,0.1-0.6,0.3-0.8
				C125.3,40.5,125.5,40.4,125.8,40.4z"/>
			<path class="st1" d="M140.3,44.9l0.9-0.2c-0.5,1.7-1,3.4-1.4,5c-0.3,1.2-0.5,2.2-0.7,3c-0.1,0.4-0.1,0.9-0.1,1.5
				c0,1-0.1,1.9-0.3,2.5c-0.3,0.9-0.9,1.6-1.7,2.1c-0.8,0.5-1.8,0.8-2.9,0.8c-1,0-1.7-0.2-2.3-0.7c-0.6-0.5-0.8-1-0.8-1.6
				c0-0.6,0.2-1.1,0.7-1.6c0.3-0.4,1-0.8,2.1-1.4c0.5-0.3,1-0.6,1.5-0.9c-0.5,0.3-0.9,0.4-1.2,0.4c-0.3,0-0.5-0.1-0.7-0.4
				c-0.2-0.2-0.3-0.6-0.3-1c0-1.3,0.4-2.6,1.2-3.9c0.8-1.3,1.7-2.3,2.8-2.9c0.7-0.4,1.5-0.6,2.6-0.6c0.2,0,0.4,0,0.7,0L140.3,44.9z
				 M137.7,52.4c-0.5,0.4-1.4,1.1-2.8,2.1c-1.2,0.8-2,1.4-2.3,1.8c-0.3,0.4-0.4,0.8-0.4,1.2c0,0.4,0.2,0.8,0.5,1.1
				c0.4,0.3,0.8,0.5,1.3,0.5c0.5,0,1-0.1,1.4-0.4c0.5-0.2,0.9-0.6,1.2-1c0.3-0.5,0.6-1,0.7-1.5c0.1-0.6,0.2-1.3,0.2-2.3
				C137.6,53.6,137.6,53.1,137.7,52.4z M139.1,46.5c-0.3-0.1-0.6-0.1-0.9-0.1c-0.7,0-1.3,0.2-1.8,0.5c-0.5,0.4-0.9,1-1.2,1.8
				c-0.5,1.2-0.7,2.2-0.7,3c0,0.3,0.1,0.6,0.3,0.8c0.2,0.2,0.4,0.3,0.6,0.3c0.3,0,0.6-0.1,1.1-0.4c0.4-0.3,0.8-0.6,1-1
				c0.3-0.4,0.5-1.1,0.8-2.1L139.1,46.5z"/>
			<path class="st1" d="M148.8,47.5l-0.4-0.4c0.9-0.9,1.6-1.5,2.2-1.7c0.5-0.3,1-0.4,1.4-0.4c0.2,0,0.3,0,0.4,0.1
				c0.1,0.1,0.1,0.1,0.1,0.2c0,0.1,0,0.2-0.1,0.3l-0.5,2.2c0.7-0.8,1.6-1.6,2.7-2.3c0.6-0.4,1.1-0.5,1.4-0.5c0.3,0,0.5,0.1,0.7,0.3
				c0.2,0.2,0.2,0.4,0.2,0.8c0,0.2,0,0.5-0.1,0.8c-0.1,0.5-0.4,1.5-0.9,3c-0.5,1.5-0.7,2.4-0.7,2.9c0,0.1,0,0.3,0.1,0.3
				c0,0.1,0.1,0.1,0.2,0.1c0.2,0,0.5-0.2,1-0.6c0.3-0.3,0.6-0.6,0.9-0.8l0.3,0.4c-0.7,0.7-1.3,1.3-2.1,1.8c-0.5,0.3-0.8,0.4-1.1,0.4
				c-0.3,0-0.5-0.1-0.6-0.3c-0.2-0.2-0.2-0.5-0.2-1c0-0.6,0.4-2.2,1.2-4.8c0.2-0.9,0.4-1.4,0.4-1.6c0-0.2-0.1-0.3-0.4-0.3
				c-0.3,0-0.7,0.2-1.1,0.5c-0.7,0.4-1.2,1-1.7,1.6c-0.3,0.4-0.5,1-0.7,1.8l-0.9,3.8H149c0.3-1.1,0.6-2.1,0.8-3.1l1-4.1
				c0-0.2,0.1-0.3,0.1-0.4c0-0.2-0.1-0.3-0.2-0.3c-0.1,0-0.3,0.1-0.5,0.2C149.6,46.7,149.2,47.1,148.8,47.5z"/>
			<path class="st1" d="M179.7,43.3l1.7-0.7l-0.8,3h2.2l-0.2,0.8h-2.2l-0.9,3.6c-0.3,1.1-0.4,1.8-0.4,2.3c0,0.2,0,0.3,0.1,0.4
				c0.1,0.1,0.2,0.1,0.3,0.1c0.2,0,0.6-0.1,1-0.4c0.6-0.3,1.2-0.7,1.7-1.2l0.4,0.5c-1.6,1.2-2.6,1.9-3.1,2.2c-0.5,0.3-1,0.4-1.3,0.4
				c-0.3,0-0.5-0.1-0.6-0.3c-0.2-0.2-0.2-0.5-0.2-0.9c0-0.5,0.1-1.3,0.4-2.4l1.1-4.3h-1.7l0.2-0.8h1.7L179.7,43.3z"/>
			<path class="st1" d="M195.6,45c0.7,0,1.3,0.3,1.8,0.8c0.5,0.6,0.7,1.3,0.7,2.3c0,1.6-0.6,3-1.7,4.3s-2.3,1.9-3.5,1.9
				c-0.8,0-1.4-0.3-1.9-0.8c-0.5-0.5-0.7-1.2-0.7-2.1c0-1.5,0.4-2.9,1.3-4.2C192.7,45.8,194,45,195.6,45z M194.7,45.8
				c-0.6,0-1.2,0.4-1.8,1.3c-0.6,0.9-0.9,2.1-0.9,3.6c0,0.9,0.2,1.7,0.5,2.2c0.3,0.4,0.6,0.6,1,0.6c0.6,0,1.1-0.4,1.6-1.1
				c0.6-1,0.9-2.2,0.9-3.6c0-1.1-0.1-1.8-0.4-2.3C195.5,46,195.2,45.8,194.7,45.8z"/>
			<path class="st1" d="M217.3,47.7l-0.4-0.4c0.7-0.8,1.3-1.4,1.9-1.7c0.6-0.4,1.2-0.6,1.7-0.6c0.2,0,0.3,0,0.4,0.1
				c0.1,0.1,0.2,0.2,0.2,0.4c0,0.2,0,0.4-0.1,0.6c0,0.2-0.2,0.7-0.4,1.6c1.1-1.1,1.8-1.8,2.2-2c0.7-0.4,1.3-0.7,1.8-0.7
				c0.4,0,0.7,0.2,0.9,0.5c0.3,0.3,0.4,0.9,0.4,1.6c0,1.7-0.5,3.4-1.6,4.9c-1.1,1.6-2.3,2.3-3.6,2.3c-0.5,0-1-0.1-1.5-0.4l-0.9,3.5
				c-0.1,0.2-0.1,0.4-0.1,0.5c0,0.3,0.1,0.5,0.3,0.6c0.3,0.2,1,0.3,1.9,0.4l-0.1,0.5c-1.2-0.1-2.1-0.1-2.7-0.1c-0.7,0-1.6,0-2.6,0.1
				l0.1-0.5c0.5-0.1,0.9-0.2,1.2-0.5c0.2-0.2,0.4-0.7,0.6-1.3l1.9-8.2c0.4-1.5,0.5-2.4,0.5-2.5c0-0.2-0.1-0.3-0.3-0.3
				C218.8,46.3,218.2,46.7,217.3,47.7z M219.5,52.7c0.6,0.6,1.1,0.8,1.7,0.8c0.9,0,1.6-0.7,2.3-2c0.6-1.3,1-2.6,1-3.9
				c0-0.4-0.1-0.7-0.3-0.9c-0.2-0.2-0.4-0.3-0.7-0.3c-0.3,0-0.7,0.2-1.2,0.5c-0.7,0.5-1.2,1-1.5,1.6c-0.2,0.4-0.5,1-0.7,1.9
				L219.5,52.7z"/>
			<path class="st1" d="M235.4,54h-1.6l0.8-2.9c0.4-1.4,0.7-2.8,1-4c0.1-0.3,0.1-0.5,0.1-0.6c0-0.2-0.1-0.3-0.2-0.3
				c-0.1,0-0.3,0.1-0.5,0.2c-0.2,0.1-0.6,0.5-1.2,1.1l-0.3-0.4c0.7-0.7,1.4-1.3,2.1-1.7c0.7-0.4,1.2-0.6,1.6-0.6
				c0.1,0,0.2,0,0.3,0.1c0.1,0.1,0.1,0.1,0.1,0.2c0,0.1,0,0.3-0.1,0.7l-0.5,1.9c0.7-1.1,1.5-2.1,2.5-2.9c0.4-0.4,0.8-0.6,1.1-0.6
				c0.2,0,0.4,0.1,0.5,0.2c0.1,0.1,0.2,0.3,0.2,0.5c0,0.2-0.1,0.4-0.2,0.5c-0.1,0.1-0.5,0.3-1,0.5c-0.5,0.2-1,0.4-1.3,0.6
				c-0.3,0.3-0.7,0.6-1.1,1.2c-0.4,0.5-0.7,1-0.8,1.3c-0.2,0.4-0.4,1.3-0.7,2.7L235.4,54z"/>
			<path class="st1" d="M251.9,45c0.7,0,1.3,0.3,1.8,0.8c0.5,0.6,0.7,1.3,0.7,2.3c0,1.6-0.6,3-1.7,4.3c-1.1,1.3-2.3,1.9-3.5,1.9
				c-0.8,0-1.4-0.3-1.9-0.8c-0.5-0.5-0.7-1.2-0.7-2.1c0-1.5,0.4-2.9,1.3-4.2C249,45.8,250.3,45,251.9,45z M251,45.8
				c-0.6,0-1.2,0.4-1.8,1.3c-0.6,0.9-0.9,2.1-0.9,3.6c0,0.9,0.2,1.7,0.5,2.2c0.3,0.4,0.6,0.6,1,0.6c0.6,0,1.1-0.4,1.6-1.1
				c0.6-1,0.9-2.2,0.9-3.6c0-1.1-0.1-1.8-0.4-2.3C251.8,46,251.5,45.8,251,45.8z"/>
			<path class="st1" d="M265,43.3l1.7-0.7l-0.8,3h2.2l-0.2,0.8h-2.2l-0.9,3.6c-0.3,1.1-0.4,1.8-0.4,2.3c0,0.2,0,0.3,0.1,0.4
				c0.1,0.1,0.2,0.1,0.3,0.1c0.2,0,0.6-0.1,1-0.4c0.6-0.3,1.2-0.7,1.7-1.2l0.4,0.5c-1.6,1.2-2.6,1.9-3.1,2.2c-0.5,0.3-1,0.4-1.3,0.4
				c-0.3,0-0.5-0.1-0.6-0.3c-0.2-0.2-0.2-0.5-0.2-0.9c0-0.5,0.1-1.3,0.4-2.4l1.1-4.3h-1.7l0.2-0.8h1.7L265,43.3z"/>
			<path class="st1" d="M281.3,51.3l0.4,0.5c-1.8,1.7-3.3,2.5-4.5,2.5c-0.5,0-0.9-0.2-1.2-0.5c-0.3-0.3-0.4-0.9-0.4-1.7
				c0-1.5,0.5-3.1,1.4-4.6c1-1.7,2.3-2.6,3.7-2.6c0.5,0,0.9,0.1,1.2,0.4c0.3,0.3,0.4,0.6,0.4,1c0,0.5-0.2,0.9-0.5,1.4
				c-0.3,0.5-0.9,0.9-1.7,1.4c-0.4,0.2-1.3,0.7-2.7,1.3c-0.1,0.4-0.1,0.8-0.1,1.1c0,0.5,0.1,0.9,0.2,1.1c0.2,0.2,0.4,0.3,0.7,0.3
				c0.3,0,0.6-0.1,1-0.2C279.7,52.5,280.4,52,281.3,51.3z M277.5,49.8c1.2-0.5,2-1.1,2.6-1.7c0.4-0.4,0.6-0.8,0.6-1.2
				c0-0.3-0.1-0.6-0.2-0.7c-0.2-0.2-0.4-0.3-0.6-0.3c-0.3,0-0.5,0.1-0.8,0.3c-0.3,0.3-0.6,0.7-0.8,1.2
				C277.9,48.2,277.6,49,277.5,49.8z"/>
			<path class="st1" d="M295.6,51.7l0.2,0.6c-1.7,1.3-3.1,2-4.3,2c-0.6,0-1.1-0.2-1.4-0.7c-0.3-0.4-0.4-1-0.4-1.7
				c0-1.1,0.3-2.3,0.9-3.5c0.6-1.2,1.3-2.1,2.2-2.7c0.7-0.5,1.4-0.7,2.3-0.7c0.5,0,0.9,0.1,1.2,0.3c0.3,0.2,0.4,0.4,0.4,0.7
				c0,0.2-0.1,0.4-0.2,0.5c-0.1,0.1-0.3,0.2-0.6,0.2c-0.2,0-0.6-0.1-1-0.3c-0.4-0.2-0.7-0.4-1-0.4c-0.4,0-0.7,0.2-1,0.5
				c-0.3,0.3-0.7,0.9-1,1.9c-0.3,0.9-0.5,1.8-0.5,2.8c0,0.7,0.1,1.2,0.4,1.6c0.2,0.3,0.5,0.4,0.8,0.4
				C293.5,53.2,294.4,52.7,295.6,51.7z"/>
			<path class="st1" d="M306.8,43.3l1.7-0.7l-0.8,3h2.2l-0.2,0.8h-2.2l-0.9,3.6c-0.3,1.1-0.4,1.8-0.4,2.3c0,0.2,0,0.3,0.1,0.4
				c0.1,0.1,0.2,0.1,0.3,0.1c0.2,0,0.6-0.1,1-0.4c0.6-0.3,1.2-0.7,1.7-1.2l0.4,0.5c-1.6,1.2-2.6,1.9-3.1,2.2c-0.5,0.3-1,0.4-1.3,0.4
				c-0.3,0-0.5-0.1-0.6-0.3c-0.2-0.2-0.2-0.5-0.2-0.9c0-0.5,0.1-1.3,0.4-2.4l1.1-4.3h-1.7l0.2-0.8h1.7L306.8,43.3z"/>
		</g>
		<path class="st2" d="M0,0l21.9,0v22.2H29V0h22.3v7.3H36.8V22h14.5v29.3H29.2V29.2h-7.3v22H0V44h14.4V29.4H0V0z M14.5,7.5H7.4v14.4
			h7.1V7.5z M43.8,29.5h-7.1v14.4h7.1V29.5z"/>
	</g>
</g>
</svg>
