<?xml version="1.0" encoding="utf-8"?>
<!-- Generator: Adobe Illustrator 22.0.1, SVG Export Plug-In . SVG Version: 6.00 Build 0)  -->
<svg version="1.1" id="圖層_1" xmlns="http://www.w3.org/2000/svg" xmlns:xlink="http://www.w3.org/1999/xlink" x="0px" y="0px"
	 viewBox="0 0 402.2 104.4" style="enable-background:new 0 0 402.2 104.4;" xml:space="preserve">
<style type="text/css">
	.st0{fill:#FFFFFF;}
	.st1{fill:#19306F;}
	.st2{fill:#19306E;}
	.st3{fill:#B81C25;}
</style>
<g>
	<rect class="st0" width="402.2" height="104.4"/>
	<g>
		<g>
			<path class="st1" d="M112.5,53.7l7-0.7c0.4,2.3,1.3,4,2.5,5.1c1.3,1.1,3,1.6,5.2,1.6c2.3,0,4-0.5,5.2-1.5c1.2-1,1.8-2.1,1.8-3.4
				c0-0.8-0.2-1.5-0.7-2.1c-0.5-0.6-1.3-1.1-2.6-1.5c-0.8-0.3-2.7-0.8-5.7-1.5c-3.8-0.9-6.5-2.1-8.1-3.5c-2.2-1.9-3.3-4.3-3.3-7.1
				c0-1.8,0.5-3.5,1.5-5.1c1-1.6,2.5-2.8,4.4-3.6c1.9-0.8,4.2-1.2,7-1.2c4.4,0,7.8,1,10,2.9c2.2,1.9,3.4,4.5,3.5,7.8l-7.1,0.3
				c-0.3-1.8-1-3.1-2-3.9c-1-0.8-2.5-1.2-4.5-1.2c-2.1,0-3.7,0.4-4.9,1.3c-0.8,0.5-1.1,1.3-1.1,2.2c0,0.8,0.4,1.6,1.1,2.1
				c0.9,0.8,3.1,1.5,6.6,2.4c3.5,0.8,6,1.7,7.7,2.5c1.7,0.9,3,2.1,3.9,3.6c0.9,1.5,1.4,3.4,1.4,5.6c0,2-0.6,3.9-1.7,5.7
				c-1.1,1.8-2.7,3.1-4.8,3.9c-2.1,0.9-4.6,1.3-7.7,1.3c-4.5,0-7.9-1-10.3-3.1C114.4,60.6,113,57.6,112.5,53.7z"/>
			<path class="st1" d="M147.3,65.2V29.8h7.1v13.9h14V29.8h7.1v35.4h-7.1V49.7h-14v15.5H147.3z"/>
			<path class="st1" d="M214.9,65.2h-7.8l-3.1-8h-14.1l-2.9,8h-7.6l13.8-35.4h7.6L214.9,65.2z M201.7,51.2L196.9,38l-4.8,13.1H201.7
				z"/>
			<path class="st1" d="M218.9,65.2V30.1h7.1v29.1h17.8v6H218.9z"/>
			<path class="st1" d="M280.8,65.2H273l-3.1-8h-14.1l-2.9,8h-7.6l13.8-35.4h7.6L280.8,65.2z M267.6,51.2L262.8,38L258,51.2H267.6z"
				/>
			<path class="st1" d="M284.6,65.2V29.8h15c3.8,0,6.5,0.3,8.2,1c1.7,0.6,3.1,1.8,4.1,3.4c1,1.6,1.5,3.5,1.5,5.6
				c0,2.7-0.8,4.8-2.3,6.6c-1.6,1.7-3.9,2.8-7,3.3c1.5,0.9,2.8,1.9,3.8,3c1,1.1,2.4,3,4.1,5.7l4.3,6.9h-8.5l-5.2-7.7
				c-1.8-2.8-3.1-4.5-3.8-5.2c-0.7-0.7-1.4-1.2-2.1-1.5c-0.8-0.3-2-0.4-3.6-0.4h-1.4v14.8H284.6z M291.8,44.7h5.3
				c3.4,0,5.6-0.1,6.4-0.4c0.9-0.3,1.5-0.8,2-1.5c0.5-0.7,0.7-1.6,0.7-2.7c0-1.2-0.3-2.2-1-2.9c-0.6-0.7-1.5-1.2-2.7-1.4
				c-0.6-0.1-2.3-0.1-5.2-0.1h-5.6V44.7z"/>
			<path class="st1" d="M320.2,65.2V29.8h10.7l6.4,24.1l6.3-24.1h10.7v35.4h-6.6V37.3l-7,27.9h-6.9l-7-27.9v27.9H320.2z"/>
		</g>
		<g>
			<path class="st2" d="M119.1,71.2l0.1-0.5c0.8-0.1,1.7-0.2,2.8-0.5c-0.3,0.8-0.6,1.7-0.8,2.7l-0.7,3c-0.5,2.2-1.1,3.8-1.7,4.9
				c0.6,0.1,1.2,0.2,1.6,0.2c1.3,0,2.3-0.3,3.3-0.8c0.9-0.5,1.7-1.3,2.2-2.3c0.5-1,0.8-2.1,0.8-3.3c0-1.6-0.5-2.9-1.4-3.9
				c-0.9-1-2.1-1.5-3.6-1.5c-1.3,0-2.5,0.3-3.6,0.9c-1.1,0.6-2,1.4-2.7,2.4c-0.7,1-1,2-1,2.9c0,0.9,0.4,1.6,1.2,2
				c0.2,0.1,0.4,0.2,0.4,0.3c0.1,0.1,0.1,0.2,0.1,0.3c0,0.2-0.1,0.3-0.2,0.5c-0.1,0.1-0.3,0.2-0.5,0.2c-0.4,0-0.8-0.2-1.1-0.8
				c-0.5-0.7-0.7-1.4-0.7-2.2c0-1.2,0.4-2.4,1.1-3.6c0.7-1.1,1.8-2.1,3.1-2.7c1.3-0.7,2.8-1,4.4-1c2,0,3.5,0.5,4.7,1.6
				c1.2,1.1,1.8,2.4,1.8,4c0,1.5-0.4,2.8-1.2,4.1c-0.8,1.2-1.8,2.1-3,2.7c-1.2,0.5-2.3,0.8-3.5,0.8c-0.4,0-1,0-1.9-0.1
				c-0.8-0.1-1.5-0.1-2.2-0.1c-0.3,0-0.8,0-1.5,0l0.2-0.5c0.7,0,1.1-0.1,1.2-0.2c0.2-0.1,0.3-0.2,0.4-0.4c0.2-0.3,0.5-1,0.8-2.1
				l0.7-2.8l0.9-3.5c0-0.2,0.1-0.3,0.1-0.4c0-0.1,0-0.2-0.1-0.3c-0.1-0.1-0.2-0.1-0.3-0.1C119.4,71.2,119.3,71.2,119.1,71.2z"/>
			<path class="st2" d="M141.6,78.9l0.4,0.5c-1.8,1.7-3.3,2.5-4.5,2.5c-0.5,0-0.9-0.2-1.2-0.5c-0.3-0.3-0.4-0.9-0.4-1.7
				c0-1.5,0.5-3.1,1.4-4.6c1-1.7,2.3-2.6,3.7-2.6c0.5,0,0.9,0.1,1.2,0.4c0.3,0.3,0.4,0.6,0.4,1c0,0.5-0.2,0.9-0.5,1.4
				c-0.3,0.5-0.9,0.9-1.7,1.4c-0.4,0.2-1.3,0.7-2.7,1.3c-0.1,0.4-0.1,0.8-0.1,1.1c0,0.5,0.1,0.9,0.2,1.1c0.2,0.2,0.4,0.3,0.7,0.3
				c0.3,0,0.6-0.1,1-0.2C140,80,140.7,79.5,141.6,78.9z M137.8,77.3c1.2-0.5,2-1.1,2.6-1.7c0.4-0.4,0.6-0.8,0.6-1.2
				c0-0.3-0.1-0.6-0.2-0.7c-0.2-0.2-0.4-0.3-0.6-0.3c-0.3,0-0.5,0.1-0.8,0.3c-0.3,0.3-0.6,0.7-0.8,1.2
				C138.2,75.7,138,76.5,137.8,77.3z"/>
			<path class="st2" d="M154.8,72.5c0.6,0,1.1,0.1,1.5,0.4c0.3,0.2,0.5,0.5,0.5,0.9c0,0.2-0.1,0.4-0.2,0.5c-0.1,0.1-0.3,0.2-0.5,0.2
				c-0.1,0-0.3,0-0.4-0.1c-0.1-0.1-0.2-0.2-0.4-0.5c-0.3-0.5-0.7-0.7-1-0.7c-0.3,0-0.6,0.1-0.8,0.3c-0.2,0.2-0.3,0.5-0.3,0.8
				c0,0.3,0.1,0.6,0.2,0.9c0.1,0.3,0.5,0.7,1.1,1.3c0.8,0.8,1.2,1.6,1.2,2.4c0,0.8-0.3,1.4-1,2c-0.6,0.6-1.5,0.9-2.5,0.9
				c-0.9,0-1.5-0.2-1.9-0.5c-0.4-0.3-0.6-0.8-0.6-1.3c0-0.2,0.1-0.5,0.2-0.6c0.2-0.2,0.4-0.2,0.6-0.2c0.2,0,0.4,0.1,0.5,0.2
				c0.1,0.1,0.2,0.3,0.2,0.5c0,0.1,0,0.2,0,0.3c0,0.1,0,0.2,0,0.2c0,0.2,0.1,0.4,0.3,0.6c0.2,0.2,0.5,0.2,0.8,0.2
				c0.4,0,0.7-0.1,1-0.2c0.3-0.1,0.5-0.3,0.7-0.6c0.2-0.3,0.2-0.5,0.2-0.8c0-0.3-0.1-0.5-0.2-0.8c-0.2-0.3-0.5-0.7-1-1.3
				c-0.7-0.8-1.1-1.6-1.1-2.4c0-0.7,0.3-1.3,0.8-1.8C153.2,72.8,153.9,72.5,154.8,72.5z"/>
			<path class="st2" d="M164,75l-0.5-0.4c0.7-0.8,1.4-1.3,2-1.7c0.6-0.3,1.1-0.5,1.5-0.5c0.2,0,0.4,0,0.5,0.2
				c0.1,0.1,0.2,0.2,0.2,0.4c0,0.2-0.2,1.1-0.7,2.6c-0.8,2.5-1.1,4.1-1.1,4.6c0,0.1,0,0.2,0.1,0.3c0,0.1,0.1,0.1,0.2,0.1
				c0.2,0,0.8-0.4,1.8-1.3l0.4,0.4c-1,0.9-1.7,1.5-2.1,1.8c-0.5,0.3-0.8,0.4-1.1,0.4c-0.3,0-0.4-0.1-0.6-0.2
				c-0.1-0.2-0.2-0.4-0.2-0.7c0-0.9,0.5-3.1,1.6-6.6c0-0.2,0.1-0.3,0.1-0.4c0-0.1-0.1-0.2-0.2-0.2c-0.1,0-0.3,0.1-0.5,0.2
				C165.1,74,164.6,74.4,164,75z M168.2,67.9c0.2,0,0.4,0.1,0.5,0.2c0.1,0.1,0.2,0.3,0.2,0.6c0,0.3-0.1,0.6-0.3,0.8
				c-0.2,0.2-0.5,0.4-0.7,0.4c-0.2,0-0.4-0.1-0.5-0.2c-0.1-0.2-0.2-0.3-0.2-0.6c0-0.3,0.1-0.6,0.3-0.8C167.7,68,168,67.9,168.2,67.9
				z"/>
			<path class="st2" d="M182.8,72.4l0.9-0.2c-0.5,1.7-1,3.4-1.4,5c-0.3,1.2-0.5,2.2-0.7,3c-0.1,0.4-0.1,0.9-0.1,1.5
				c0,1-0.1,1.9-0.3,2.5c-0.3,0.9-0.9,1.6-1.7,2.1s-1.8,0.8-2.9,0.8c-1,0-1.7-0.2-2.3-0.7s-0.8-1-0.8-1.6c0-0.6,0.2-1.1,0.7-1.6
				c0.3-0.4,1-0.8,2.1-1.4c0.5-0.3,1-0.6,1.5-0.9c-0.5,0.3-0.9,0.4-1.2,0.4c-0.3,0-0.5-0.1-0.7-0.4c-0.2-0.2-0.3-0.6-0.3-1
				c0-1.3,0.4-2.6,1.2-3.9c0.8-1.3,1.7-2.3,2.8-2.9c0.7-0.4,1.5-0.6,2.6-0.6c0.2,0,0.4,0,0.7,0L182.8,72.4z M180.1,79.9
				c-0.5,0.4-1.4,1.1-2.8,2.1c-1.2,0.8-2,1.4-2.3,1.8c-0.3,0.4-0.4,0.8-0.4,1.2c0,0.4,0.2,0.8,0.5,1.1c0.4,0.3,0.8,0.5,1.3,0.5
				c0.5,0,1-0.1,1.4-0.4c0.5-0.2,0.9-0.6,1.2-1c0.3-0.5,0.6-1,0.7-1.5c0.1-0.6,0.2-1.3,0.2-2.3C180,81.1,180.1,80.6,180.1,79.9z
				 M181.6,74c-0.3-0.1-0.6-0.1-0.9-0.1c-0.7,0-1.3,0.2-1.8,0.5c-0.5,0.4-0.9,1-1.2,1.8c-0.5,1.2-0.7,2.2-0.7,3
				c0,0.3,0.1,0.6,0.3,0.8c0.2,0.2,0.4,0.3,0.6,0.3c0.3,0,0.6-0.1,1.1-0.4c0.4-0.3,0.8-0.6,1-1c0.3-0.4,0.5-1.1,0.8-2.1L181.6,74z"
				/>
			<path class="st2" d="M191.3,75l-0.4-0.4c0.9-0.9,1.6-1.5,2.2-1.7c0.5-0.3,1-0.4,1.4-0.4c0.2,0,0.3,0,0.4,0.1
				c0.1,0.1,0.1,0.1,0.1,0.2c0,0.1,0,0.2-0.1,0.3l-0.5,2.2c0.7-0.8,1.6-1.6,2.7-2.3c0.6-0.4,1.1-0.5,1.4-0.5c0.3,0,0.5,0.1,0.7,0.3
				c0.2,0.2,0.2,0.4,0.2,0.8c0,0.2,0,0.5-0.1,0.8c-0.1,0.5-0.4,1.5-0.9,3c-0.5,1.5-0.7,2.4-0.7,2.9c0,0.1,0,0.3,0.1,0.3
				c0,0.1,0.1,0.1,0.2,0.1c0.2,0,0.5-0.2,1-0.6c0.3-0.3,0.6-0.6,0.9-0.8l0.3,0.4c-0.7,0.7-1.3,1.3-2.1,1.8c-0.5,0.3-0.8,0.4-1.1,0.4
				c-0.3,0-0.5-0.1-0.6-0.3c-0.2-0.2-0.2-0.5-0.2-1c0-0.6,0.4-2.2,1.2-4.8c0.2-0.9,0.4-1.4,0.4-1.6c0-0.2-0.1-0.3-0.4-0.3
				c-0.3,0-0.7,0.2-1.1,0.5c-0.7,0.4-1.2,1-1.7,1.6c-0.3,0.4-0.5,1-0.7,1.8l-0.9,3.8h-1.6c0.3-1.1,0.6-2.1,0.8-3.1l1-4.1
				c0-0.2,0.1-0.3,0.1-0.4c0-0.2-0.1-0.3-0.2-0.3c-0.1,0-0.3,0.1-0.5,0.2C192.1,74.3,191.7,74.6,191.3,75z"/>
			<path class="st2" d="M222.1,70.9l1.7-0.7l-0.8,3h2.2l-0.2,0.8h-2.2l-0.9,3.6c-0.3,1.1-0.4,1.8-0.4,2.3c0,0.2,0,0.3,0.1,0.4
				c0.1,0.1,0.2,0.1,0.3,0.1c0.2,0,0.6-0.1,1-0.4c0.6-0.3,1.2-0.7,1.7-1.2l0.4,0.5c-1.6,1.2-2.6,1.9-3.1,2.2c-0.5,0.3-1,0.4-1.3,0.4
				c-0.3,0-0.5-0.1-0.6-0.3c-0.2-0.2-0.2-0.5-0.2-0.9c0-0.5,0.1-1.3,0.4-2.4l1.1-4.3h-1.7l0.2-0.8h1.7L222.1,70.9z"/>
			<path class="st2" d="M238.1,72.5c0.7,0,1.3,0.3,1.8,0.8c0.5,0.6,0.7,1.3,0.7,2.3c0,1.6-0.6,3-1.7,4.3c-1.1,1.3-2.3,1.9-3.5,1.9
				c-0.8,0-1.4-0.3-1.9-0.8c-0.5-0.5-0.7-1.2-0.7-2.1c0-1.5,0.4-2.9,1.3-4.2C235.1,73.3,236.5,72.5,238.1,72.5z M237.1,73.3
				c-0.6,0-1.2,0.4-1.8,1.3c-0.6,0.9-0.9,2.1-0.9,3.6c0,0.9,0.2,1.7,0.5,2.2c0.3,0.4,0.6,0.6,1,0.6c0.6,0,1.1-0.4,1.6-1.1
				c0.6-1,0.9-2.2,0.9-3.6c0-1.1-0.1-1.8-0.4-2.3C237.9,73.6,237.6,73.3,237.1,73.3z"/>
			<path class="st2" d="M259.7,75.2l-0.4-0.4c0.7-0.8,1.3-1.4,1.9-1.7c0.6-0.4,1.2-0.6,1.7-0.6c0.2,0,0.3,0,0.4,0.1
				c0.1,0.1,0.2,0.2,0.2,0.4c0,0.2,0,0.4-0.1,0.6c0,0.2-0.2,0.7-0.4,1.6c1.1-1.1,1.8-1.8,2.2-2c0.7-0.4,1.3-0.7,1.8-0.7
				c0.4,0,0.7,0.2,0.9,0.5c0.3,0.3,0.4,0.9,0.4,1.6c0,1.7-0.5,3.4-1.6,4.9c-1.1,1.6-2.3,2.3-3.6,2.3c-0.5,0-1-0.1-1.5-0.4l-0.9,3.5
				c-0.1,0.2-0.1,0.4-0.1,0.5c0,0.3,0.1,0.5,0.3,0.6c0.3,0.2,1,0.3,1.9,0.4l-0.1,0.5c-1.2-0.1-2.1-0.1-2.7-0.1c-0.7,0-1.6,0-2.6,0.1
				l0.1-0.5c0.5-0.1,0.9-0.2,1.2-0.5c0.2-0.2,0.4-0.7,0.6-1.3l1.9-8.2c0.4-1.5,0.5-2.4,0.5-2.5c0-0.2-0.1-0.3-0.3-0.3
				C261.2,73.8,260.6,74.3,259.7,75.2z M261.9,80.3c0.6,0.6,1.1,0.8,1.7,0.8c0.9,0,1.6-0.7,2.3-2c0.6-1.3,1-2.6,1-3.9
				c0-0.4-0.1-0.7-0.3-0.9c-0.2-0.2-0.4-0.3-0.7-0.3c-0.3,0-0.7,0.2-1.2,0.5c-0.7,0.5-1.2,1-1.5,1.6c-0.2,0.4-0.5,1-0.7,1.9
				L261.9,80.3z"/>
			<path class="st2" d="M277.8,81.6h-1.6l0.8-2.9c0.4-1.4,0.7-2.8,1-4c0.1-0.3,0.1-0.5,0.1-0.6c0-0.2-0.1-0.3-0.2-0.3
				c-0.1,0-0.3,0.1-0.5,0.2c-0.2,0.1-0.6,0.5-1.2,1.1l-0.3-0.4c0.7-0.7,1.4-1.3,2.1-1.7c0.7-0.4,1.2-0.6,1.6-0.6
				c0.1,0,0.2,0,0.3,0.1c0.1,0.1,0.1,0.1,0.1,0.2c0,0.1,0,0.3-0.1,0.7l-0.5,1.9c0.7-1.1,1.5-2.1,2.5-2.9c0.4-0.4,0.8-0.6,1.1-0.6
				c0.2,0,0.4,0.1,0.5,0.2c0.1,0.1,0.2,0.3,0.2,0.5c0,0.2-0.1,0.4-0.2,0.5c-0.1,0.1-0.5,0.3-1,0.5c-0.5,0.2-1,0.4-1.3,0.6
				c-0.3,0.3-0.7,0.6-1.1,1.2c-0.4,0.5-0.7,1-0.8,1.3c-0.2,0.4-0.4,1.3-0.7,2.7L277.8,81.6z"/>
			<path class="st2" d="M294.4,72.5c0.7,0,1.3,0.3,1.8,0.8c0.5,0.6,0.7,1.3,0.7,2.3c0,1.6-0.6,3-1.7,4.3c-1.1,1.3-2.3,1.9-3.5,1.9
				c-0.8,0-1.4-0.3-1.9-0.8c-0.5-0.5-0.7-1.2-0.7-2.1c0-1.5,0.4-2.9,1.3-4.2C291.4,73.3,292.8,72.5,294.4,72.5z M293.5,73.3
				c-0.6,0-1.2,0.4-1.8,1.3c-0.6,0.9-0.9,2.1-0.9,3.6c0,0.9,0.2,1.7,0.5,2.2c0.3,0.4,0.6,0.6,1,0.6c0.6,0,1.1-0.4,1.6-1.1
				c0.6-1,0.9-2.2,0.9-3.6c0-1.1-0.1-1.8-0.4-2.3C294.3,73.6,293.9,73.3,293.5,73.3z"/>
			<path class="st2" d="M307.4,70.9l1.7-0.7l-0.8,3h2.2l-0.2,0.8h-2.2l-0.9,3.6c-0.3,1.1-0.4,1.8-0.4,2.3c0,0.2,0,0.3,0.1,0.4
				c0.1,0.1,0.2,0.1,0.3,0.1c0.2,0,0.6-0.1,1-0.4c0.6-0.3,1.2-0.7,1.7-1.2l0.4,0.5c-1.6,1.2-2.6,1.9-3.1,2.2c-0.5,0.3-1,0.4-1.3,0.4
				c-0.3,0-0.5-0.1-0.6-0.3c-0.2-0.2-0.2-0.5-0.2-0.9c0-0.5,0.1-1.3,0.4-2.4l1.1-4.3h-1.7l0.2-0.8h1.7L307.4,70.9z"/>
			<path class="st2" d="M323.7,78.9l0.4,0.5c-1.8,1.7-3.3,2.5-4.5,2.5c-0.5,0-0.9-0.2-1.2-0.5c-0.3-0.3-0.4-0.9-0.4-1.7
				c0-1.5,0.5-3.1,1.4-4.6c1-1.7,2.3-2.6,3.7-2.6c0.5,0,0.9,0.1,1.2,0.4c0.3,0.3,0.4,0.6,0.4,1c0,0.5-0.2,0.9-0.5,1.4
				c-0.3,0.5-0.9,0.9-1.7,1.4c-0.4,0.2-1.3,0.7-2.7,1.3c-0.1,0.4-0.1,0.8-0.1,1.1c0,0.5,0.1,0.9,0.2,1.1c0.2,0.2,0.4,0.3,0.7,0.3
				c0.3,0,0.6-0.1,1-0.2C322.1,80,322.8,79.5,323.7,78.9z M319.9,77.3c1.2-0.5,2-1.1,2.6-1.7c0.4-0.4,0.6-0.8,0.6-1.2
				c0-0.3-0.1-0.6-0.2-0.7c-0.2-0.2-0.4-0.3-0.6-0.3c-0.3,0-0.5,0.1-0.8,0.3c-0.3,0.3-0.6,0.7-0.8,1.2
				C320.3,75.7,320.1,76.5,319.9,77.3z"/>
			<path class="st2" d="M338,79.2l0.2,0.6c-1.7,1.3-3.1,2-4.3,2c-0.6,0-1.1-0.2-1.4-0.7c-0.3-0.4-0.4-1-0.4-1.7
				c0-1.1,0.3-2.3,0.9-3.5c0.6-1.2,1.3-2.1,2.2-2.7c0.7-0.5,1.4-0.7,2.3-0.7c0.5,0,0.9,0.1,1.2,0.3c0.3,0.2,0.4,0.4,0.4,0.7
				c0,0.2-0.1,0.4-0.2,0.5c-0.1,0.1-0.3,0.2-0.6,0.2c-0.2,0-0.6-0.1-1-0.3c-0.4-0.2-0.7-0.4-1-0.4c-0.4,0-0.7,0.2-1,0.5
				c-0.3,0.3-0.7,0.9-1,1.9c-0.3,0.9-0.5,1.8-0.5,2.8c0,0.7,0.1,1.2,0.4,1.6c0.2,0.3,0.5,0.4,0.8,0.4
				C335.9,80.7,336.9,80.2,338,79.2z"/>
			<path class="st2" d="M349.2,70.9l1.7-0.7l-0.8,3h2.2l-0.2,0.8H350l-0.9,3.6c-0.3,1.1-0.4,1.8-0.4,2.3c0,0.2,0,0.3,0.1,0.4
				c0.1,0.1,0.2,0.1,0.3,0.1c0.2,0,0.6-0.1,1-0.4c0.6-0.3,1.2-0.7,1.7-1.2l0.4,0.5c-1.6,1.2-2.6,1.9-3.1,2.2c-0.5,0.3-1,0.4-1.3,0.4
				c-0.3,0-0.5-0.1-0.6-0.3c-0.2-0.2-0.2-0.5-0.2-0.9c0-0.5,0.1-1.3,0.4-2.4l1.1-4.3h-1.7l0.2-0.8h1.7L349.2,70.9z"/>
		</g>
		<path class="st3" d="M42.4,27.5l21.9,0v22.2h7.1V27.5h22.3v7.3H79.2v14.7h14.5v29.3H71.7V56.8h-7.3v22H42.4v-7.3h14.4V57H42.4
			V27.5z M56.9,35h-7.1v14.4h7.1V35z M86.2,57h-7.1v14.4h7.1V57z"/>
	</g>
</g>
</svg>
