<?xml version="1.0" encoding="utf-8"?>
<!-- Generator: Adobe Illustrator 22.0.1, SVG Export Plug-In . SVG Version: 6.00 Build 0)  -->
<svg version="1.1" id="圖層_2" xmlns="http://www.w3.org/2000/svg" xmlns:xlink="http://www.w3.org/1999/xlink" x="0px" y="0px"
	 viewBox="0 0 305.4 53.7" style="enable-background:new 0 0 305.4 53.7;" xml:space="preserve">
<style type="text/css">
	.st0{fill:#19306E;}
	.st1{fill:#83B87C;}
</style>
<g>
	<g>
		<path class="st0" d="M52.4,52H0v-4.6h6.3V33.7h39.8v13.7h6.3V52z M29,29.9H2.4V1.7H29v4.3H18.8v3.8h7.4v12h-7.4v3.8H29V29.9z
			 M13.9,9.8V5.9H7.4v3.8H13.9z M21.2,17.8v-4H7.4v4H21.2z M13.9,25.6v-3.8H7.4v3.8H13.9z M18,47.3v-9.1h-6.4v9.1H18z M29.5,47.3
			v-9.1h-6.4v9.1H29.5z M52.3,12.8H35.9c-1.6,2.7-3.4,5.1-5.3,7L27.2,16c3.8-4.1,6.6-9.3,8.3-15.8l5.1,0.9c-0.7,2.7-1.5,5-2.3,6.8
			h14V12.8z M50.9,26.9H31.7V22h19.2V26.9z M40.9,38.3h-6.2v9.1h6.2V38.3z"/>
		<path class="st0" d="M82,33.1l-3.7,4c-0.7-1.4-2.3-3.7-4.8-6.9v22.7h-5.2V33c-2.7,2.5-4.6,4.1-5.6,4.9l-2.9-4.7
			c6.6-4.7,11.4-10.4,14.2-17.2H60.7v-5.2h19v5.2c-1.1,2.7-2.6,5.6-4.6,8.8C78.5,28.6,80.8,31.4,82,33.1z M75.1,7.6l-4.8,2.3
			C68.9,7.4,67.1,5,65,2.6L69.6,0C72.3,3.1,74.1,5.6,75.1,7.6z M113.1,41.8c-0.3,4.7-0.9,7.6-2,8.9c-1.1,1.2-3.4,1.9-6.9,1.9
			c-4.4,0-6.6-1.7-6.6-5V35.4h-3.8c-1,9-5.6,15.1-13.7,18.3l-3.1-4.5c7.3-3,11.2-7.6,11.6-13.8h-5.6V2.1H109v33.4h-6.4V46
			c0,1.2,0.8,1.8,2.3,1.8c1,0,1.8-0.3,2.2-0.9s0.7-3,1-7.1L113.1,41.8z M103.9,11.5V6.6H88.1v4.9H103.9z M103.9,21.1v-5H88.1v5
			H103.9z M103.9,30.8v-5.2H88.1v5.2H103.9z"/>
		<path class="st0" d="M139.5,40.9c-5,3.9-10.5,7.1-16.5,9.3l-3.2-4.3c5.8-2.1,11-4.9,15.7-8.5L139.5,40.9z M171.5,35.1l-4.5,3.2
			c-1.4-2-2.5-3.4-3.3-4.4c-5.6,0.7-10.5,1.2-14.8,1.5v12.2c0.1,1.6-0.4,2.9-1.4,3.9c-1,0.9-4.2,1.4-9.5,1.4l-2.1-5.3
			c2.2,0.2,4.2,0.2,6.1,0.2c1.1,0,1.6-0.5,1.6-1.6V35.9c-8.2,0.4-14.3,0.6-18.3,0.7l-1.3-4.6c5.1-1.4,11-3.9,17.7-7.4
			c-7,0.4-12,0.5-14.9,0.5l-0.8-3.9c8.2-2.6,15.6-6.7,22-12.5l4.9,2.8c-3.9,3.5-8.8,6.5-14.6,8.9l4.7-0.2l7.2-0.6
			c0.3,0,1.7-0.9,4-2.5l4.2-3.1l4.7,3.3c-9.4,6.7-18.2,11.5-26.5,14.3c7-0.3,14.7-1,23.2-2c-1-1.1-2.2-2.2-3.5-3.4l4.7-2.7
			C165.6,27.6,169,31.5,171.5,35.1z M153.1,3c-6,4.9-14.5,8.8-25.3,11.7l-3.1-4.6c9.6-2.1,17.6-5.4,23.9-10L153.1,3z M172.8,46.6
			l-3.6,4c-4-3.4-9.3-6.7-15.8-9.9l3.7-3.7C163.6,40.2,168.8,43.4,172.8,46.6z"/>
		<path class="st0" d="M187.4,38.9c-0.8,6-2,10.8-3.8,14.4l-4.5-2.1c1.8-3.4,3.1-7.8,3.9-13.2L187.4,38.9z M202,35l-4.7,1.6
			c0-0.2-0.2-1.3-0.6-3.1c-5.3,1.6-10.5,2.7-15.8,3.5l-0.9-4.1c3.5-2.8,7.1-6.9,10.8-12.3c-3.2,0.5-6.3,0.8-9.3,1.1l-0.6-3.5
			c4.5-5,8-11,10.7-18l5,1.8c-2.5,5.8-5.4,10.8-8.7,14.8c2.1-0.2,4-0.4,5.7-0.7c1.2-1.8,2.1-3.6,2.9-5.3l4.6,2.4
			c-4.2,7.5-8.4,13.5-12.7,17.9c2.5-0.5,4.8-1.1,6.9-1.9c-0.4-1.2-0.7-2-1-2.6l4.1-1.8C200.1,28.2,201.3,31.6,202,35z M195.2,50.9
			l-4.5,1c0.1-3.9-0.4-8.2-1.5-12.9l4.1-1.1C194.4,42.7,195.1,47,195.2,50.9z M202.2,45.8l-4,1.6c-0.6-3.4-1.4-6.3-2.3-8.5l4-1.5
			C200.9,39.6,201.7,42.4,202.2,45.8z M232.8,38.8c-0.4,6.3-0.7,9.7-1.1,10.4c-0.4,0.6-1,1.3-1.8,2.2c-0.8,0.8-2.9,1.2-6.2,1.2
			c-2.7,0-4.5-0.4-5.4-1.2c-0.9-0.8-1.3-2.5-1.3-5V26.2c-2,0.3-3.5,0.5-4.6,0.7c0,4.3-0.2,8-0.6,10.9c-0.4,2.9-1.4,5.8-3,8.6
			c-1.6,2.8-3.7,5.2-6.3,7.3l-3.8-3.7c1.7-1.2,3.3-2.9,4.8-4.9c1.5-2.1,2.5-4.3,3.1-6.8c0.6-2.5,0.9-6.1,0.8-10.8l-5.3,0.6l-1-4
			c3.4-4.2,6.2-8.5,8.3-13.1h-8.9V6h10.9c0.5-1.1,1.1-3,2-5.5l5.5,0.8c-0.7,1.9-1.3,3.5-1.8,4.7h14.9v4.9h-17.1
			c-1.7,3.8-4,7.7-6.9,11.7c5.1-0.3,9.8-0.9,14.1-1.7c-0.7-1.2-1.8-2.5-3.1-4l4.2-2.8c4.1,4.9,7.1,9.1,8.8,12.5l-4.4,3
			c-1.1-2-2-3.5-2.8-4.7l-3,0.5v21.1c0,1,0.9,1.5,2.7,1.5c1.4,0,2.3-0.5,2.6-1.6c0.3-1.1,0.6-4.1,0.7-9.2L232.8,38.8z"/>
	</g>
</g>
<path class="st1" d="M298.8,21.1v-1.5c0-1.9-1.5-3.4-3.4-3.4h-28.5c-1.9,0-3.4,1.5-3.4,3.4v19.9c0,1.9,1.5,3.4,3.4,3.4h28.5
	c1.9,0,3.4-1.5,3.4-3.4V25.6l6.6,4.3V16.8L298.8,21.1z M250.9,16.6v20.2h4.6l5-3.2V19.8l-5-3.2H250.9z"/>
</svg>
