<svg id="圖層_2" data-name="圖層 2" xmlns="http://www.w3.org/2000/svg" viewBox="0 0 17.61 26.33"><defs><style>.cls-1{fill:#83b87c;}</style></defs><title>product-info</title><path class="cls-1" d="M920.77,700.26c0,1,.18,1.75,1.14,1.75h5.34c1,0,1.14-.79,1.14-1.75s-.18-1.75-1.14-1.75h-5.34C921,698.51,920.77,699.29,920.77,700.26Zm7.31,2.4h-7.14c-1,0-1.14.78-1.14,1.74s.18,1.75,1.14,1.75h7.14c1,0,1.15-.78,1.15-1.75S929.05,702.66,928.08,702.66Zm-.55,4.21H921.9c-1,0-1.15.78-1.15,1.74s.18,1.75,1.15,1.75h5.63c1,0,1.15-.78,1.15-1.75S928.5,706.87,927.53,706.87ZM926,711.16h-3.21c-1,0-1.15.79-1.15,1.75s.18,1.75,1.15,1.75H926c1,0,1.14-.78,1.14-1.75S927,711.16,926,711.16Zm-4.52-.18a1.53,1.53,0,0,1-1.21-.83,4.35,4.35,0,0,1,0-3.07,1.41,1.41,0,0,1,.21-.31,1.56,1.56,0,0,1-1.17-.83,4.35,4.35,0,0,1,0-3.07,1.55,1.55,0,0,1,1.14-.82,1.92,1.92,0,0,1-.17-.26,3.29,3.29,0,0,1-.28-1.53,3.36,3.36,0,0,1,.28-1.54,1.59,1.59,0,0,1,1.51-.85h1.08c.11-.81,2.36-2.54,2.36-6.09,0-3.88-4.13-3.43-4.13-3.43v2.41c-.73,2.68-5.54,6.83-6.9,8a4.79,4.79,0,0,0-2.62,4.41v5.92a5.54,5.54,0,0,0,5.54,5.54h4.17a1.29,1.29,0,0,1-.09-.16,4.32,4.32,0,0,1,0-3.06A1.94,1.94,0,0,1,921.52,711Z" transform="translate(-911.62 -688.33)"/></svg>