<?xml version="1.0" encoding="utf-8"?>
<!-- Generator: Adobe Illustrator 22.0.1, SVG Export Plug-In . SVG Version: 6.00 Build 0)  -->
<svg version="1.1" id="圖層_1" xmlns="http://www.w3.org/2000/svg" xmlns:xlink="http://www.w3.org/1999/xlink" x="0px" y="0px"
	 viewBox="0 0 20.5 20.5" style="enable-background:new 0 0 20.5 20.5;" xml:space="preserve">
<style type="text/css">
	.st0{fill:#FFFFFF;}
</style>
<g>
	<path class="st0" d="M10.3,0C4.6,0,0,4.6,0,10.3c0,5.7,4.6,10.3,10.3,10.3c5.7,0,10.3-4.6,10.3-10.3C20.5,4.6,15.9,0,10.3,0z
		 M14.3,16.1c-0.5,0.3-1,0.4-1.5,0.5c-0.4,0.1-0.9,0.2-1.4,0.2c-0.6,0-0.9-0.1-1.4-0.2c-0.4-0.1-0.8-0.4-1.2-0.6
		c-0.3-0.3-0.5-0.6-0.7-0.9C8,14.7,8,14.3,8,13.7V9.2H6.2V7.4C6.7,7.2,7.3,7,7.7,6.7C8,6.4,8.3,6,8.5,5.6C8.8,5.2,8.9,4.6,9,4h1.8v3
		h3v2.3h-3v3.3c0,0.7,0,1.2,0.1,1.4c0.1,0.2,0.3,0.4,0.5,0.6c0.3,0.2,0.6,0.3,1,0.3c0.6,0,1.3-0.2,1.9-0.6V16.1z"/>
</g>
</svg>
