<?xml version="1.0" encoding="utf-8"?>
<!-- Generator: Adobe Illustrator 22.0.1, SVG Export Plug-In . SVG Version: 6.00 Build 0)  -->
<svg version="1.1" id="圖層_1" xmlns="http://www.w3.org/2000/svg" xmlns:xlink="http://www.w3.org/1999/xlink" x="0px" y="0px"
	 viewBox="0 0 20.5 20.5" style="enable-background:new 0 0 20.5 20.5;" xml:space="preserve">
<style type="text/css">
	.st0{fill:#FFFFFF;}
</style>
<path class="st0" d="M10.3,0C4.6,0,0,4.6,0,10.3c0,5.7,4.6,10.3,10.3,10.3c5.7,0,10.3-4.6,10.3-10.3C20.5,4.6,15.9,0,10.3,0z
	 M15.8,10.3c-0.2,0.4-0.5,0.7-0.8,0.9c-0.5,1.2-1.9,3.5-5.8,3.5c-5.2,0-6.9-3.8-6.9-3.8s2.4,1.2,4.8,0.2c-2.1-0.9-2.5-3.5-1.5-2.5
	c0.8,0.8,2.7,0.8,4,0.8c0.1-0.2,0.3-0.3,0.4-0.5c0,0,0-0.1,0-0.1c0-1.7,1.4-3,3-3c1.6,0,2.9,1.2,3,2.8l1.9,0.9L15.8,10.3z"/>
</svg>
